<svg xmlns="http://www.w3.org/2000/svg" xmlns:xlink="http://www.w3.org/1999/xlink" width="100" zoomAndPan="magnify" viewBox="0 0 75 52.499999" height="70" preserveAspectRatio="xMidYMid meet" version="1.0"><defs><g/><clipPath id="59e2dea010"><path d="M 19.265625 2.152344 L 65.328125 2.152344 L 65.328125 48.214844 L 19.265625 48.214844 Z M 19.265625 2.152344 " clip-rule="nonzero"/></clipPath><clipPath id="5bd65bd806"><path d="M 59 18 L 72.8125 18 L 72.8125 36 L 59 36 Z M 59 18 " clip-rule="nonzero"/></clipPath><clipPath id="c4a0f7a02a"><rect x="0" width="73" y="0" height="51"/></clipPath><clipPath id="9ad43286f0"><path d="M 1 0.847656 L 41.640625 0.847656 L 41.640625 14.636719 L 1 14.636719 Z M 1 0.847656 " clip-rule="nonzero"/></clipPath><clipPath id="4f2f977866"><rect x="0" width="42" y="0" height="15"/></clipPath></defs><g clip-path="url(#59e2dea010)"><path fill="#fffef9" d="M 42.351562 48.320312 C 29.597656 48.320312 19.265625 37.917969 19.265625 25.234375 C 19.265625 12.554688 29.597656 2.152344 42.351562 2.152344 C 55.101562 2.152344 65.433594 12.484375 65.433594 25.234375 C 65.433594 37.988281 55.03125 48.320312 42.351562 48.320312 Z M 42.351562 3.578125 C 30.382812 3.578125 20.691406 13.265625 20.691406 25.234375 C 20.691406 37.207031 30.382812 46.894531 42.351562 46.894531 C 54.320312 46.894531 64.007812 37.207031 64.007812 25.234375 C 64.007812 13.265625 54.246094 3.578125 42.351562 3.578125 Z M 42.351562 3.578125 " fill-opacity="1" fill-rule="nonzero"/></g><g transform="matrix(1, 0, 0, 1, 1, 0)"><g clip-path="url(#c4a0f7a02a)"><g fill="#122620" fill-opacity="1"><g transform="translate(1.001461, 27.80466)"><g><path d="M 15.195312 1.179688 L 15.535156 -2.058594 L 16.253906 -7.609375 C 16.480469 -9.347656 16.726562 -11.050781 16.984375 -12.714844 C 17.246094 -14.382812 17.550781 -16.09375 17.894531 -17.847656 C 18.238281 -19.597656 18.636719 -21.480469 19.09375 -23.496094 L 20.230469 -23.238281 L 20.230469 -22.074219 C 19.917969 -22.074219 19.472656 -22.027344 18.894531 -21.933594 C 18.261719 -21.832031 17.5625 -21.710938 16.796875 -21.566406 C 16.035156 -21.425781 15.273438 -21.269531 14.515625 -21.097656 L 12.386719 -20.613281 L 10.902344 -20.273438 L 10.640625 -21.410156 L 10.945312 -20.285156 L 8.710938 -19.679688 C 8 -19.488281 7.277344 -19.277344 6.546875 -19.054688 C 6.199219 -18.953125 5.753906 -18.8125 5.207031 -18.628906 C 4.691406 -18.457031 4.210938 -18.265625 3.765625 -18.058594 C 3.589844 -17.976562 3.453125 -17.898438 3.351562 -17.824219 C 3.316406 -17.796875 3.289062 -17.777344 3.269531 -17.757812 L 3.265625 -17.753906 L 2.296875 -18.398438 L 3.40625 -18.742188 C 3.398438 -18.75 3.390625 -18.757812 3.386719 -18.761719 C 3.648438 -18.59375 3.898438 -18.414062 4.140625 -18.222656 L 3.414062 -17.3125 L 4.097656 -18.253906 L 7.726562 -15.617188 C 9.484375 -14.292969 11.027344 -12.839844 12.355469 -11.25 C 13.710938 -9.632812 14.792969 -7.78125 15.605469 -5.695312 C 16.140625 -4.371094 16.507812 -3.296875 16.707031 -2.476562 C 16.902344 -1.675781 17.035156 -1.011719 17.113281 -0.476562 C 17.179688 -0.0390625 17.273438 0.390625 17.402344 0.808594 L 16.289062 1.148438 L 17.371094 0.714844 L 17.429688 0.871094 L 16.351562 1.304688 Z M 17.507812 1.425781 L 15.269531 1.734375 L 15.191406 1.535156 L 15.175781 1.488281 C 15.015625 0.953125 14.894531 0.410156 14.8125 -0.140625 C 14.746094 -0.601562 14.621094 -1.199219 14.445312 -1.929688 C 14.273438 -2.636719 13.9375 -3.613281 13.4375 -4.851562 C 12.71875 -6.699219 11.761719 -8.332031 10.570312 -9.757812 C 9.355469 -11.207031 7.953125 -12.535156 6.359375 -13.734375 L 2.707031 -16.386719 L 2.6875 -16.40625 C 2.511719 -16.542969 2.328125 -16.675781 2.136719 -16.796875 C 1.667969 -17.09375 1.351562 -17.515625 1.183594 -18.058594 L 1.019531 -18.585938 L 1.328125 -19.042969 C 1.613281 -19.472656 2.097656 -19.847656 2.78125 -20.167969 C 3.308594 -20.414062 3.871094 -20.636719 4.472656 -20.835938 C 5.042969 -21.027344 5.507812 -21.175781 5.867188 -21.28125 C 6.621094 -21.511719 7.367188 -21.726562 8.105469 -21.925781 L 10.359375 -22.539062 L 11.875 -22.882812 L 14 -23.367188 C 14.789062 -23.542969 15.582031 -23.707031 16.371094 -23.855469 C 17.15625 -24.003906 17.875 -24.128906 18.523438 -24.234375 C 19.226562 -24.347656 19.796875 -24.402344 20.230469 -24.402344 L 21.6875 -24.402344 L 21.363281 -22.980469 C 20.910156 -20.988281 20.515625 -19.125 20.175781 -17.398438 C 19.839844 -15.675781 19.542969 -13.996094 19.285156 -12.355469 C 19.027344 -10.710938 18.785156 -9.027344 18.558594 -7.3125 L 17.847656 -1.773438 L 16.691406 -1.921875 L 17.847656 -1.800781 Z M 0.078125 -18.617188 C 0.078125 -19.175781 0.289062 -19.675781 0.707031 -20.117188 C 0.972656 -20.394531 1.269531 -20.644531 1.59375 -20.867188 C 1.867188 -21.050781 2.089844 -21.199219 2.269531 -21.308594 L 2.347656 -21.359375 L 4.765625 -22.371094 L 4.800781 -22.382812 C 7.242188 -23.226562 9.730469 -23.929688 12.265625 -24.5 C 14.800781 -25.066406 17.339844 -25.488281 19.886719 -25.761719 C 19.980469 -25.773438 20.050781 -25.785156 20.097656 -25.796875 C 20.003906 -25.769531 19.902344 -25.703125 19.792969 -25.597656 C 19.761719 -25.566406 19.730469 -25.515625 19.703125 -25.449219 C 19.851562 -25.792969 20.105469 -26.03125 20.46875 -26.164062 C 20.644531 -26.230469 20.847656 -26.265625 21.066406 -26.265625 C 21.261719 -26.265625 21.425781 -26.253906 21.554688 -26.238281 C 22.039062 -26.175781 22.378906 -25.949219 22.574219 -25.558594 C 22.582031 -25.542969 22.59375 -25.523438 22.609375 -25.496094 C 22.492188 -25.691406 22.335938 -25.832031 22.144531 -25.921875 C 22.09375 -25.945312 22.050781 -25.960938 22.011719 -25.96875 C 22.03125 -25.964844 22.085938 -25.957031 22.175781 -25.949219 L 22.089844 -24.789062 L 22.089844 -25.953125 L 22.585938 -25.953125 C 22.910156 -25.953125 23.261719 -25.960938 23.644531 -25.96875 C 24.046875 -25.980469 24.429688 -25.984375 24.789062 -25.984375 L 25.410156 -25.984375 L 26.664062 -25.855469 C 27.261719 -25.792969 27.96875 -25.707031 28.785156 -25.601562 C 29.605469 -25.5 30.441406 -25.378906 31.300781 -25.242188 C 32.175781 -25.101562 32.992188 -24.949219 33.75 -24.777344 C 34.546875 -24.597656 35.203125 -24.402344 35.71875 -24.191406 C 36.65625 -23.808594 37.125 -23.242188 37.125 -22.496094 C 37.125 -22.089844 37.03125 -21.746094 36.851562 -21.46875 C 36.710938 -21.25 36.527344 -21.082031 36.300781 -20.964844 C 36.089844 -20.859375 35.863281 -20.804688 35.617188 -20.804688 C 35.367188 -20.804688 35.078125 -20.847656 34.757812 -20.941406 C 34.550781 -21 34.289062 -21.070312 33.972656 -21.148438 C 33.378906 -21.285156 32.675781 -21.429688 31.855469 -21.582031 C 31.035156 -21.734375 30.179688 -21.871094 29.289062 -21.992188 C 28.394531 -22.113281 27.546875 -22.210938 26.738281 -22.28125 C 25.941406 -22.351562 25.273438 -22.386719 24.726562 -22.386719 C 24.226562 -22.386719 23.785156 -22.367188 23.398438 -22.328125 C 22.9375 -22.285156 22.398438 -22.261719 21.78125 -22.261719 L 21.78125 -23.425781 L 22.882812 -23.058594 C 22.878906 -23.035156 22.832031 -22.828125 22.746094 -22.4375 C 22.65625 -22.007812 22.554688 -21.515625 22.441406 -20.960938 C 22.328125 -20.410156 22.230469 -19.90625 22.152344 -19.453125 C 22.070312 -19 22.019531 -18.707031 22 -18.574219 L 22 -18.554688 L 20.320312 -9.074219 C 20.054688 -7.386719 19.828125 -5.746094 19.632812 -4.15625 C 19.433594 -2.546875 19.222656 -0.914062 18.992188 0.746094 C 18.933594 1.179688 18.890625 1.582031 18.859375 1.953125 C 18.828125 2.367188 18.78125 2.820312 18.714844 3.316406 L 17.5625 3.164062 L 18.71875 3.28125 L 17.695312 13.367188 C 17.675781 13.558594 17.65625 13.804688 17.636719 14.101562 C 17.609375 14.527344 17.527344 14.914062 17.394531 15.269531 C 17.269531 15.601562 17.082031 15.863281 16.828125 16.0625 C 16.535156 16.285156 16.203125 16.398438 15.824219 16.398438 C 15.34375 16.398438 14.957031 16.226562 14.660156 15.882812 C 14.675781 15.898438 14.6875 15.914062 14.703125 15.925781 L 14.699219 15.921875 L 14.09375 15.558594 L 14.664062 6.042969 L 15.824219 6.113281 L 14.660156 6.113281 C 14.660156 5.265625 14.605469 4.359375 14.496094 3.386719 C 14.386719 2.40625 14.234375 1.429688 14.046875 0.457031 C 13.855469 -0.515625 13.652344 -1.390625 13.433594 -2.167969 C 13.136719 -3.269531 12.792969 -4.242188 12.410156 -5.082031 C 12.019531 -5.929688 11.574219 -6.734375 11.082031 -7.492188 C 10.574219 -8.269531 10 -9.054688 9.359375 -9.851562 C 8.96875 -10.355469 8.492188 -10.847656 7.933594 -11.324219 C 7.332031 -11.835938 6.707031 -12.332031 6.066406 -12.8125 C 5.40625 -13.308594 4.8125 -13.75 4.277344 -14.140625 L 1.464844 -16.148438 C 1.152344 -16.378906 0.871094 -16.644531 0.621094 -16.949219 C 0.257812 -17.390625 0.078125 -17.945312 0.078125 -18.617188 Z M 2.40625 -18.617188 C 2.40625 -18.535156 2.410156 -18.46875 2.425781 -18.421875 L 2.421875 -18.421875 C 2.542969 -18.273438 2.675781 -18.144531 2.816406 -18.042969 L 5.652344 -16.019531 C 6.191406 -15.621094 6.796875 -15.175781 7.460938 -14.675781 C 8.144531 -14.164062 8.800781 -13.636719 9.441406 -13.09375 C 10.121094 -12.515625 10.703125 -11.921875 11.179688 -11.308594 C 11.863281 -10.449219 12.480469 -9.605469 13.027344 -8.765625 C 13.585938 -7.910156 14.085938 -7.007812 14.523438 -6.054688 C 14.964844 -5.097656 15.347656 -4.011719 15.671875 -2.796875 C 15.90625 -1.960938 16.125 -1.023438 16.328125 0.0078125 C 16.53125 1.042969 16.691406 2.082031 16.808594 3.128906 C 16.929688 4.183594 16.988281 5.179688 16.988281 6.113281 L 16.988281 6.148438 L 16.457031 14.992188 L 15.296875 14.925781 L 15.894531 13.925781 C 16.105469 14.054688 16.285156 14.199219 16.429688 14.367188 C 16.257812 14.167969 16.054688 14.070312 15.824219 14.070312 C 15.671875 14.070312 15.53125 14.121094 15.402344 14.222656 C 15.308594 14.292969 15.246094 14.371094 15.214844 14.453125 C 15.269531 14.3125 15.300781 14.144531 15.3125 13.945312 C 15.335938 13.625 15.359375 13.351562 15.378906 13.132812 L 16.40625 3.03125 L 16.40625 3.015625 C 16.46875 2.558594 16.511719 2.144531 16.539062 1.769531 C 16.574219 1.355469 16.621094 0.910156 16.6875 0.429688 C 16.914062 -1.21875 17.125 -2.839844 17.320312 -4.4375 C 17.519531 -6.054688 17.753906 -7.734375 18.027344 -9.480469 L 19.703125 -18.941406 L 20.851562 -18.742188 L 19.699219 -18.90625 C 19.722656 -19.0625 19.773438 -19.378906 19.859375 -19.859375 C 19.945312 -20.335938 20.042969 -20.855469 20.160156 -21.421875 C 20.273438 -21.984375 20.378906 -22.484375 20.472656 -22.925781 C 20.574219 -23.402344 20.644531 -23.691406 20.675781 -23.792969 L 20.941406 -24.589844 L 21.78125 -24.589844 C 22.324219 -24.589844 22.785156 -24.609375 23.171875 -24.644531 C 23.632812 -24.691406 24.152344 -24.714844 24.726562 -24.714844 C 25.339844 -24.714844 26.078125 -24.675781 26.941406 -24.601562 C 27.785156 -24.527344 28.671875 -24.425781 29.601562 -24.300781 C 30.53125 -24.171875 31.421875 -24.03125 32.277344 -23.871094 C 33.132812 -23.714844 33.886719 -23.558594 34.535156 -23.40625 C 34.878906 -23.320312 35.164062 -23.246094 35.394531 -23.179688 C 35.507812 -23.148438 35.582031 -23.128906 35.617188 -23.128906 C 35.488281 -23.128906 35.359375 -23.097656 35.234375 -23.035156 C 35.09375 -22.960938 34.980469 -22.859375 34.898438 -22.730469 C 34.847656 -22.65625 34.816406 -22.582031 34.800781 -22.507812 C 34.796875 -22.496094 34.796875 -22.484375 34.796875 -22.476562 C 34.796875 -22.480469 34.796875 -22.488281 34.796875 -22.496094 C 34.796875 -22.359375 34.828125 -22.234375 34.886719 -22.121094 C 34.921875 -22.054688 34.960938 -22 35.007812 -21.960938 C 35.011719 -21.953125 35.019531 -21.949219 35.019531 -21.949219 C 35.015625 -21.953125 35.007812 -21.957031 34.996094 -21.964844 C 34.957031 -21.984375 34.902344 -22.011719 34.835938 -22.039062 C 34.441406 -22.199219 33.910156 -22.355469 33.238281 -22.507812 C 32.527344 -22.667969 31.761719 -22.8125 30.9375 -22.941406 C 30.101562 -23.074219 29.285156 -23.191406 28.488281 -23.296875 C 27.691406 -23.398438 27.003906 -23.480469 26.421875 -23.539062 L 25.230469 -23.664062 L 25.347656 -24.820312 L 25.347656 -23.65625 L 24.789062 -23.65625 C 24.449219 -23.65625 24.085938 -23.652344 23.703125 -23.644531 C 23.300781 -23.632812 22.929688 -23.625 22.585938 -23.625 L 22.050781 -23.625 L 22.007812 -23.628906 C 21.804688 -23.644531 21.632812 -23.667969 21.496094 -23.699219 C 21.09375 -23.789062 20.796875 -23.988281 20.613281 -24.300781 C 20.566406 -24.378906 20.527344 -24.449219 20.492188 -24.519531 C 20.625 -24.25 20.832031 -24.066406 21.105469 -23.96875 C 21.160156 -23.949219 21.207031 -23.9375 21.246094 -23.933594 C 21.21875 -23.933594 21.160156 -23.9375 21.066406 -23.9375 C 21.121094 -23.9375 21.191406 -23.953125 21.273438 -23.980469 C 21.535156 -24.078125 21.726562 -24.261719 21.84375 -24.535156 C 21.753906 -24.324219 21.617188 -24.128906 21.441406 -23.953125 C 21.261719 -23.773438 21.023438 -23.640625 20.726562 -23.558594 C 20.570312 -23.515625 20.375 -23.476562 20.136719 -23.449219 C 17.675781 -23.183594 15.222656 -22.777344 12.773438 -22.226562 C 10.324219 -21.679688 7.917969 -20.996094 5.5625 -20.183594 L 5.179688 -21.285156 L 5.632812 -20.210938 L 3.335938 -19.25 L 2.886719 -20.324219 L 3.503906 -19.335938 C 3.347656 -19.242188 3.148438 -19.109375 2.902344 -18.941406 C 2.714844 -18.8125 2.542969 -18.667969 2.394531 -18.511719 C 2.382812 -18.5 2.378906 -18.492188 2.375 -18.488281 C 2.375 -18.492188 2.378906 -18.496094 2.382812 -18.503906 C 2.398438 -18.539062 2.40625 -18.574219 2.40625 -18.617188 Z M 2.40625 -18.617188 "/></g></g></g><g fill="#122620" fill-opacity="1"><g transform="translate(21.478387, 27.80466)"><g><path d="M 1.25 -1.835938 C 1.222656 -1.828125 1.195312 -1.820312 1.175781 -1.808594 L 1.179688 -1.8125 C 1.234375 -1.863281 1.292969 -1.957031 1.363281 -2.082031 C 1.550781 -2.4375 1.6875 -2.855469 1.769531 -3.332031 C 1.855469 -3.828125 1.878906 -4.273438 1.835938 -4.675781 C 1.824219 -4.800781 1.804688 -4.890625 1.777344 -4.945312 C 1.789062 -4.925781 1.8125 -4.902344 1.851562 -4.875 L 2.511719 -5.832031 L 3.636719 -5.527344 C 3.5625 -5.257812 3.4375 -4.894531 3.253906 -4.433594 C 3.101562 -4.035156 2.949219 -3.597656 2.804688 -3.117188 C 2.671875 -2.683594 2.582031 -2.257812 2.539062 -1.847656 C 2.507812 -1.578125 2.53125 -1.363281 2.605469 -1.210938 L 1.550781 -0.714844 Z M 1.851562 0.410156 L 0.914062 0.660156 L 0.5 -0.21875 C 0.242188 -0.765625 0.148438 -1.390625 0.222656 -2.09375 C 0.285156 -2.652344 0.402344 -3.222656 0.578125 -3.800781 C 0.742188 -4.335938 0.910156 -4.828125 1.089844 -5.277344 C 1.238281 -5.664062 1.339844 -5.953125 1.390625 -6.140625 L 1.824219 -7.726562 L 3.175781 -6.789062 C 3.738281 -6.398438 4.0625 -5.773438 4.152344 -4.910156 C 4.214844 -4.300781 4.183594 -3.640625 4.0625 -2.9375 C 3.9375 -2.214844 3.722656 -1.5625 3.414062 -0.988281 C 3.007812 -0.226562 2.488281 0.242188 1.851562 0.410156 Z M -1.164062 -1.769531 C -1.164062 -2.121094 -1.097656 -2.601562 -0.964844 -3.207031 C -0.84375 -3.777344 -0.671875 -4.390625 -0.449219 -5.042969 C -0.230469 -5.695312 0.0195312 -6.316406 0.296875 -6.902344 C 0.601562 -7.546875 0.933594 -8.082031 1.300781 -8.511719 C 1.835938 -9.136719 2.433594 -9.449219 3.101562 -9.449219 C 3.433594 -9.449219 3.730469 -9.363281 3.996094 -9.191406 C 4.261719 -9.019531 4.464844 -8.78125 4.601562 -8.476562 C 4.804688 -8.015625 4.839844 -7.582031 4.703125 -7.171875 L 4.691406 -7.140625 L 4.679688 -7.105469 C 4.570312 -6.839844 4.394531 -6.59375 4.148438 -6.367188 C 4.105469 -6.328125 4.070312 -6.289062 4.039062 -6.242188 L 3.070312 -6.886719 L 4.191406 -7.207031 C 4.179688 -7.246094 4.167969 -7.273438 4.15625 -7.289062 C 4.171875 -7.269531 4.195312 -7.242188 4.230469 -7.203125 C 4.457031 -6.960938 4.675781 -6.65625 4.886719 -6.285156 C 5.136719 -5.855469 5.292969 -5.308594 5.363281 -4.652344 C 5.425781 -4.035156 5.363281 -3.265625 5.171875 -2.339844 C 4.902344 -1.050781 4.445312 -0.0585938 3.800781 0.632812 C 3.074219 1.421875 2.304688 1.816406 1.488281 1.816406 C 0.707031 1.816406 0.046875 1.457031 -0.484375 0.742188 C -0.9375 0.132812 -1.164062 -0.703125 -1.164062 -1.769531 Z M 1.164062 -1.769531 C 1.164062 -1.21875 1.238281 -0.84375 1.382812 -0.648438 C 1.4375 -0.574219 1.484375 -0.527344 1.519531 -0.503906 C 1.511719 -0.507812 1.503906 -0.511719 1.488281 -0.511719 C 1.527344 -0.511719 1.578125 -0.53125 1.648438 -0.566406 C 1.78125 -0.640625 1.929688 -0.765625 2.09375 -0.945312 C 2.445312 -1.324219 2.710938 -1.945312 2.894531 -2.808594 C 3.035156 -3.5 3.085938 -4.03125 3.046875 -4.410156 C 3.011719 -4.742188 2.953125 -4.984375 2.867188 -5.132812 C 2.75 -5.339844 2.636719 -5.5 2.535156 -5.609375 C 2.238281 -5.921875 2.046875 -6.242188 1.953125 -6.566406 L 1.804688 -7.085938 L 2.105469 -7.535156 C 2.238281 -7.738281 2.398438 -7.921875 2.582031 -8.089844 C 2.585938 -8.09375 2.589844 -8.097656 2.589844 -8.097656 C 2.585938 -8.09375 2.582031 -8.089844 2.578125 -8.082031 C 2.554688 -8.050781 2.535156 -8.015625 2.519531 -7.972656 L 3.597656 -7.539062 L 2.496094 -7.90625 C 2.460938 -7.800781 2.449219 -7.695312 2.460938 -7.59375 C 2.464844 -7.570312 2.46875 -7.550781 2.472656 -7.535156 L 2.472656 -7.53125 C 2.527344 -7.414062 2.613281 -7.316406 2.738281 -7.234375 C 2.855469 -7.160156 2.976562 -7.121094 3.101562 -7.121094 C 3.15625 -7.121094 3.195312 -7.128906 3.222656 -7.144531 C 3.1875 -7.125 3.136719 -7.074219 3.074219 -7 C 2.839844 -6.730469 2.617188 -6.363281 2.402344 -5.910156 C 2.164062 -5.402344 1.945312 -4.863281 1.753906 -4.296875 C 1.5625 -3.726562 1.414062 -3.203125 1.308594 -2.71875 C 1.210938 -2.269531 1.164062 -1.953125 1.164062 -1.769531 Z M 1.164062 -1.769531 "/></g></g></g><g fill="#122620" fill-opacity="1"><g transform="translate(26.938902, 27.80466)"><g><path d="M 0.433594 1.039062 C 0 1.039062 -0.363281 0.886719 -0.652344 0.585938 C -0.882812 0.34375 -1.027344 0.0390625 -1.085938 -0.328125 C -1.140625 -0.675781 -1.15625 -1.039062 -1.128906 -1.417969 C -1.109375 -1.679688 -1.101562 -1.828125 -1.101562 -1.863281 L 0.0625 -1.863281 L -1.101562 -1.796875 C -1.121094 -2.203125 -1.128906 -2.609375 -1.117188 -3.027344 C -1.105469 -3.378906 -1.113281 -3.734375 -1.132812 -4.097656 L -1.132812 -4.15625 C -1.132812 -4.3125 -1.128906 -4.597656 -1.117188 -5.007812 C -1.105469 -5.445312 -1.070312 -5.910156 -1.015625 -6.398438 C -0.957031 -6.925781 -0.863281 -7.390625 -0.738281 -7.792969 C -0.640625 -8.101562 -0.511719 -8.355469 -0.351562 -8.550781 C -0.0507812 -8.921875 0.324219 -9.105469 0.777344 -9.105469 C 1.207031 -9.105469 1.570312 -9.011719 1.867188 -8.824219 C 2.089844 -8.683594 2.261719 -8.503906 2.386719 -8.277344 C 2.5 -8.066406 2.566406 -7.835938 2.574219 -7.585938 C 2.585938 -7.261719 2.570312 -6.859375 2.523438 -6.375 L 2.515625 -6.320312 C 2.503906 -6.230469 2.496094 -6.125 2.496094 -6.003906 L 2.496094 -5.492188 C 2.496094 -5.160156 2.46875 -4.902344 2.40625 -4.71875 C 2.425781 -4.78125 2.4375 -4.824219 2.441406 -4.851562 C 2.4375 -4.8125 2.4375 -4.757812 2.4375 -4.683594 L 1.273438 -4.683594 L 0.585938 -5.625 C 0.742188 -5.738281 0.882812 -5.867188 1.007812 -6.015625 C 1.425781 -6.503906 2.054688 -6.75 2.886719 -6.75 C 3.011719 -6.75 3.1875 -6.753906 3.410156 -6.761719 C 3.664062 -6.773438 3.933594 -6.78125 4.21875 -6.78125 C 4.726562 -6.78125 5.199219 -6.75 5.644531 -6.691406 C 6.015625 -6.644531 6.328125 -6.535156 6.574219 -6.375 C 6.773438 -6.242188 6.933594 -6.078125 7.050781 -5.878906 C 7.179688 -5.65625 7.246094 -5.414062 7.246094 -5.152344 C 7.246094 -4.773438 7.132812 -4.445312 6.90625 -4.164062 C 6.695312 -3.90625 6.417969 -3.726562 6.074219 -3.628906 C 5.753906 -3.535156 5.382812 -3.492188 4.964844 -3.492188 C 4.738281 -3.492188 4.507812 -3.496094 4.273438 -3.507812 C 4.074219 -3.515625 3.902344 -3.523438 3.753906 -3.523438 C 3.292969 -3.523438 3.023438 -3.507812 2.941406 -3.484375 C 3.007812 -3.503906 3.066406 -3.53125 3.117188 -3.566406 C 3.125 -3.574219 3.132812 -3.578125 3.136719 -3.582031 C 3.132812 -3.582031 3.132812 -3.578125 3.125 -3.574219 C 3.070312 -3.511719 3.003906 -3.417969 2.921875 -3.28125 L 1.921875 -3.878906 L 2.949219 -3.328125 C 2.820312 -3.085938 2.695312 -2.828125 2.574219 -2.546875 C 2.476562 -2.324219 2.402344 -2.074219 2.359375 -1.792969 L 2.34375 -1.722656 C 2.304688 -1.554688 2.289062 -1.375 2.296875 -1.191406 C 2.3125 -0.746094 2.257812 -0.355469 2.132812 -0.015625 C 1.988281 0.375 1.726562 0.664062 1.34375 0.847656 C 1.082031 0.976562 0.777344 1.039062 0.433594 1.039062 Z M 0.433594 -1.289062 C 0.445312 -1.289062 0.453125 -1.289062 0.457031 -1.289062 C 0.457031 -1.289062 0.453125 -1.289062 0.449219 -1.285156 C 0.410156 -1.28125 0.367188 -1.265625 0.324219 -1.242188 C 0.144531 -1.15625 0.0195312 -1.015625 -0.0507812 -0.820312 C -0.03125 -0.875 -0.0273438 -0.96875 -0.03125 -1.105469 C -0.0429688 -1.5 -0.0078125 -1.878906 0.078125 -2.246094 L 1.210938 -1.984375 L 0.0625 -2.175781 C 0.140625 -2.644531 0.265625 -3.074219 0.4375 -3.472656 C 0.585938 -3.8125 0.738281 -4.132812 0.898438 -4.429688 L 0.910156 -4.453125 L 0.925781 -4.476562 C 1.324219 -5.144531 1.761719 -5.550781 2.242188 -5.703125 C 2.550781 -5.800781 3.054688 -5.847656 3.753906 -5.847656 C 3.9375 -5.847656 4.148438 -5.84375 4.382812 -5.832031 C 4.582031 -5.824219 4.777344 -5.816406 4.964844 -5.816406 C 5.164062 -5.816406 5.324219 -5.832031 5.4375 -5.867188 C 5.308594 -5.828125 5.195312 -5.75 5.09375 -5.625 C 4.976562 -5.480469 4.917969 -5.320312 4.917969 -5.152344 C 4.917969 -4.992188 4.957031 -4.84375 5.039062 -4.703125 C 5.105469 -4.589844 5.191406 -4.496094 5.292969 -4.429688 C 5.339844 -4.402344 5.375 -4.382812 5.40625 -4.371094 C 5.398438 -4.375 5.375 -4.378906 5.339844 -4.382812 C 4.996094 -4.429688 4.625 -4.453125 4.21875 -4.453125 C 3.96875 -4.453125 3.730469 -4.449219 3.511719 -4.4375 C 3.253906 -4.425781 3.046875 -4.421875 2.886719 -4.421875 C 2.773438 -4.421875 2.691406 -4.414062 2.644531 -4.398438 C 2.683594 -4.410156 2.726562 -4.445312 2.777344 -4.5 C 2.53125 -4.214844 2.257812 -3.964844 1.957031 -3.742188 L 0.109375 -2.398438 L 0.109375 -4.683594 C 0.109375 -5.019531 0.140625 -5.273438 0.199219 -5.457031 C 0.179688 -5.398438 0.167969 -5.351562 0.167969 -5.324219 C 0.167969 -5.363281 0.171875 -5.417969 0.171875 -5.492188 L 0.171875 -6.003906 C 0.171875 -6.234375 0.183594 -6.449219 0.214844 -6.648438 L 1.363281 -6.484375 L 0.207031 -6.59375 C 0.242188 -6.976562 0.257812 -7.277344 0.25 -7.496094 C 0.253906 -7.378906 0.285156 -7.265625 0.347656 -7.152344 C 0.414062 -7.03125 0.507812 -6.933594 0.621094 -6.859375 C 0.6875 -6.820312 0.746094 -6.792969 0.804688 -6.78125 C 0.808594 -6.777344 0.8125 -6.777344 0.8125 -6.777344 C 0.804688 -6.777344 0.792969 -6.78125 0.777344 -6.78125 C 0.933594 -6.78125 1.082031 -6.816406 1.21875 -6.894531 C 1.3125 -6.945312 1.390625 -7.007812 1.453125 -7.085938 C 1.476562 -7.113281 1.496094 -7.140625 1.503906 -7.160156 C 1.5 -7.148438 1.492188 -7.128906 1.484375 -7.097656 C 1.402344 -6.839844 1.339844 -6.519531 1.296875 -6.136719 C 1.246094 -5.714844 1.21875 -5.320312 1.210938 -4.949219 C 1.199219 -4.554688 1.195312 -4.292969 1.195312 -4.15625 L 0.03125 -4.15625 L 1.191406 -4.21875 C 1.214844 -3.792969 1.222656 -3.375 1.210938 -2.960938 C 1.199219 -2.613281 1.203125 -2.265625 1.222656 -1.925781 L 1.226562 -1.894531 L 1.226562 -1.863281 C 1.226562 -1.773438 1.214844 -1.570312 1.191406 -1.25 C 1.175781 -1.050781 1.183594 -0.867188 1.210938 -0.695312 C 1.191406 -0.804688 1.132812 -0.917969 1.027344 -1.027344 C 0.859375 -1.199219 0.660156 -1.289062 0.433594 -1.289062 Z M 0.433594 -1.289062 "/></g></g></g><g fill="#122620" fill-opacity="1"><g transform="translate(31.996083, 27.80466)"><g><path d="M 0.433594 1.039062 C 0 1.039062 -0.363281 0.886719 -0.652344 0.585938 C -0.882812 0.34375 -1.027344 0.0390625 -1.085938 -0.328125 C -1.140625 -0.675781 -1.15625 -1.039062 -1.128906 -1.417969 C -1.109375 -1.679688 -1.101562 -1.828125 -1.101562 -1.863281 L 0.0625 -1.863281 L -1.101562 -1.796875 C -1.121094 -2.203125 -1.128906 -2.609375 -1.117188 -3.027344 C -1.105469 -3.378906 -1.113281 -3.734375 -1.132812 -4.097656 L -1.132812 -4.15625 C -1.132812 -4.3125 -1.128906 -4.597656 -1.117188 -5.007812 C -1.105469 -5.445312 -1.070312 -5.910156 -1.015625 -6.398438 C -0.957031 -6.925781 -0.863281 -7.390625 -0.738281 -7.792969 C -0.640625 -8.101562 -0.511719 -8.355469 -0.351562 -8.550781 C -0.0507812 -8.921875 0.324219 -9.105469 0.777344 -9.105469 C 1.207031 -9.105469 1.570312 -9.011719 1.867188 -8.824219 C 2.089844 -8.683594 2.261719 -8.503906 2.386719 -8.277344 C 2.5 -8.066406 2.566406 -7.835938 2.574219 -7.585938 C 2.585938 -7.261719 2.570312 -6.859375 2.523438 -6.375 L 2.515625 -6.320312 C 2.503906 -6.230469 2.496094 -6.125 2.496094 -6.003906 L 2.496094 -5.492188 C 2.496094 -5.160156 2.46875 -4.902344 2.40625 -4.71875 C 2.425781 -4.78125 2.4375 -4.824219 2.441406 -4.851562 C 2.4375 -4.8125 2.4375 -4.757812 2.4375 -4.683594 L 1.273438 -4.683594 L 0.585938 -5.625 C 0.742188 -5.738281 0.882812 -5.867188 1.007812 -6.015625 C 1.425781 -6.503906 2.054688 -6.75 2.886719 -6.75 C 3.011719 -6.75 3.1875 -6.753906 3.410156 -6.761719 C 3.664062 -6.773438 3.933594 -6.78125 4.21875 -6.78125 C 4.726562 -6.78125 5.199219 -6.75 5.644531 -6.691406 C 6.015625 -6.644531 6.328125 -6.535156 6.574219 -6.375 C 6.773438 -6.242188 6.933594 -6.078125 7.050781 -5.878906 C 7.179688 -5.65625 7.246094 -5.414062 7.246094 -5.152344 C 7.246094 -4.773438 7.132812 -4.445312 6.90625 -4.164062 C 6.695312 -3.90625 6.417969 -3.726562 6.074219 -3.628906 C 5.753906 -3.535156 5.382812 -3.492188 4.964844 -3.492188 C 4.738281 -3.492188 4.507812 -3.496094 4.273438 -3.507812 C 4.074219 -3.515625 3.902344 -3.523438 3.753906 -3.523438 C 3.292969 -3.523438 3.023438 -3.507812 2.941406 -3.484375 C 3.007812 -3.503906 3.066406 -3.53125 3.117188 -3.566406 C 3.125 -3.574219 3.132812 -3.578125 3.136719 -3.582031 C 3.132812 -3.582031 3.132812 -3.578125 3.125 -3.574219 C 3.070312 -3.511719 3.003906 -3.417969 2.921875 -3.28125 L 1.921875 -3.878906 L 2.949219 -3.328125 C 2.820312 -3.085938 2.695312 -2.828125 2.574219 -2.546875 C 2.476562 -2.324219 2.402344 -2.074219 2.359375 -1.792969 L 2.34375 -1.722656 C 2.304688 -1.554688 2.289062 -1.375 2.296875 -1.191406 C 2.3125 -0.746094 2.257812 -0.355469 2.132812 -0.015625 C 1.988281 0.375 1.726562 0.664062 1.34375 0.847656 C 1.082031 0.976562 0.777344 1.039062 0.433594 1.039062 Z M 0.433594 -1.289062 C 0.445312 -1.289062 0.453125 -1.289062 0.457031 -1.289062 C 0.457031 -1.289062 0.453125 -1.289062 0.449219 -1.285156 C 0.410156 -1.28125 0.367188 -1.265625 0.324219 -1.242188 C 0.144531 -1.15625 0.0195312 -1.015625 -0.0507812 -0.820312 C -0.03125 -0.875 -0.0273438 -0.96875 -0.03125 -1.105469 C -0.0429688 -1.5 -0.0078125 -1.878906 0.078125 -2.246094 L 1.210938 -1.984375 L 0.0625 -2.175781 C 0.140625 -2.644531 0.265625 -3.074219 0.4375 -3.472656 C 0.585938 -3.8125 0.738281 -4.132812 0.898438 -4.429688 L 0.910156 -4.453125 L 0.925781 -4.476562 C 1.324219 -5.144531 1.761719 -5.550781 2.242188 -5.703125 C 2.550781 -5.800781 3.054688 -5.847656 3.753906 -5.847656 C 3.9375 -5.847656 4.148438 -5.84375 4.382812 -5.832031 C 4.582031 -5.824219 4.777344 -5.816406 4.964844 -5.816406 C 5.164062 -5.816406 5.324219 -5.832031 5.4375 -5.867188 C 5.308594 -5.828125 5.195312 -5.75 5.09375 -5.625 C 4.976562 -5.480469 4.917969 -5.320312 4.917969 -5.152344 C 4.917969 -4.992188 4.957031 -4.84375 5.039062 -4.703125 C 5.105469 -4.589844 5.191406 -4.496094 5.292969 -4.429688 C 5.339844 -4.402344 5.375 -4.382812 5.40625 -4.371094 C 5.398438 -4.375 5.375 -4.378906 5.339844 -4.382812 C 4.996094 -4.429688 4.625 -4.453125 4.21875 -4.453125 C 3.96875 -4.453125 3.730469 -4.449219 3.511719 -4.4375 C 3.253906 -4.425781 3.046875 -4.421875 2.886719 -4.421875 C 2.773438 -4.421875 2.691406 -4.414062 2.644531 -4.398438 C 2.683594 -4.410156 2.726562 -4.445312 2.777344 -4.5 C 2.53125 -4.214844 2.257812 -3.964844 1.957031 -3.742188 L 0.109375 -2.398438 L 0.109375 -4.683594 C 0.109375 -5.019531 0.140625 -5.273438 0.199219 -5.457031 C 0.179688 -5.398438 0.167969 -5.351562 0.167969 -5.324219 C 0.167969 -5.363281 0.171875 -5.417969 0.171875 -5.492188 L 0.171875 -6.003906 C 0.171875 -6.234375 0.183594 -6.449219 0.214844 -6.648438 L 1.363281 -6.484375 L 0.207031 -6.59375 C 0.242188 -6.976562 0.257812 -7.277344 0.25 -7.496094 C 0.253906 -7.378906 0.285156 -7.265625 0.347656 -7.152344 C 0.414062 -7.03125 0.507812 -6.933594 0.621094 -6.859375 C 0.6875 -6.820312 0.746094 -6.792969 0.804688 -6.78125 C 0.808594 -6.777344 0.8125 -6.777344 0.8125 -6.777344 C 0.804688 -6.777344 0.792969 -6.78125 0.777344 -6.78125 C 0.933594 -6.78125 1.082031 -6.816406 1.21875 -6.894531 C 1.3125 -6.945312 1.390625 -7.007812 1.453125 -7.085938 C 1.476562 -7.113281 1.496094 -7.140625 1.503906 -7.160156 C 1.5 -7.148438 1.492188 -7.128906 1.484375 -7.097656 C 1.402344 -6.839844 1.339844 -6.519531 1.296875 -6.136719 C 1.246094 -5.714844 1.21875 -5.320312 1.210938 -4.949219 C 1.199219 -4.554688 1.195312 -4.292969 1.195312 -4.15625 L 0.03125 -4.15625 L 1.191406 -4.21875 C 1.214844 -3.792969 1.222656 -3.375 1.210938 -2.960938 C 1.199219 -2.613281 1.203125 -2.265625 1.222656 -1.925781 L 1.226562 -1.894531 L 1.226562 -1.863281 C 1.226562 -1.773438 1.214844 -1.570312 1.191406 -1.25 C 1.175781 -1.050781 1.183594 -0.867188 1.210938 -0.695312 C 1.191406 -0.804688 1.132812 -0.917969 1.027344 -1.027344 C 0.859375 -1.199219 0.660156 -1.289062 0.433594 -1.289062 Z M 0.433594 -1.289062 "/></g></g></g><g fill="#122620" fill-opacity="1"><g transform="translate(37.053264, 27.80466)"><g><path d="M 0.886719 -6.644531 C 1.222656 -6.824219 1.601562 -7.070312 2.027344 -7.394531 C 2.226562 -7.546875 2.332031 -7.699219 2.347656 -7.851562 L 3.507812 -7.757812 L 3.683594 -6.605469 C 3.625 -6.597656 3.53125 -6.539062 3.394531 -6.425781 C 3.175781 -6.246094 2.988281 -6.042969 2.832031 -5.816406 C 2.683594 -5.605469 2.585938 -5.425781 2.539062 -5.273438 L 1.425781 -5.617188 Z M 1.96875 -4.585938 L -0.507812 -3.28125 L 0.316406 -5.957031 C 0.433594 -6.34375 0.636719 -6.742188 0.925781 -7.152344 C 1.203125 -7.546875 1.53125 -7.902344 1.910156 -8.21875 C 2.375 -8.601562 2.847656 -8.832031 3.328125 -8.90625 L 4.789062 -9.132812 L 4.664062 -7.660156 C 4.59375 -6.820312 4.183594 -6.113281 3.433594 -5.542969 C 2.90625 -5.140625 2.417969 -4.824219 1.96875 -4.585938 Z M -1.132812 -4.871094 C -1.132812 -5.59375 -0.910156 -6.34375 -0.46875 -7.121094 C -0.0585938 -7.84375 0.453125 -8.460938 1.070312 -8.976562 C 1.792969 -9.578125 2.542969 -9.882812 3.320312 -9.882812 C 3.914062 -9.882812 4.398438 -9.742188 4.78125 -9.46875 C 5.257812 -9.121094 5.515625 -8.636719 5.550781 -8.011719 C 5.601562 -7.199219 5.296875 -6.375 4.636719 -5.542969 L 4.609375 -5.511719 L 4.578125 -5.476562 C 4.273438 -5.148438 3.839844 -4.785156 3.277344 -4.386719 C 2.609375 -3.914062 1.933594 -3.648438 1.25 -3.589844 L 1.148438 -4.746094 L 2.3125 -4.746094 C 2.3125 -4.445312 2.320312 -4.183594 2.339844 -3.957031 C 2.335938 -3.992188 2.332031 -4.015625 2.324219 -4.03125 C 2.34375 -3.996094 2.378906 -3.949219 2.4375 -3.894531 C 2.476562 -3.851562 2.542969 -3.832031 2.636719 -3.832031 C 2.964844 -3.832031 3.324219 -3.949219 3.722656 -4.183594 C 4.269531 -4.503906 4.679688 -4.765625 4.957031 -4.972656 L 5.648438 -4.035156 L 4.902344 -4.925781 C 5.023438 -5.027344 5.117188 -5.105469 5.183594 -5.164062 C 5.265625 -5.234375 5.363281 -5.316406 5.476562 -5.40625 L 5.488281 -5.417969 L 5.5 -5.425781 C 5.84375 -5.6875 6.042969 -5.851562 6.089844 -5.917969 C 6.292969 -6.191406 6.496094 -6.394531 6.707031 -6.523438 C 6.976562 -6.695312 7.378906 -6.78125 7.910156 -6.78125 L 8.882812 -6.78125 L 9.058594 -5.824219 C 9.121094 -5.480469 9.136719 -5.207031 9.113281 -5.007812 C 9.074219 -4.6875 8.902344 -4.355469 8.601562 -4.011719 L 8.546875 -3.957031 C 8.152344 -3.558594 7.65625 -3.113281 7.058594 -2.613281 C 6.429688 -2.085938 5.757812 -1.628906 5.035156 -1.242188 C 4.210938 -0.796875 3.382812 -0.574219 2.542969 -0.574219 C 2.070312 -0.574219 1.617188 -0.65625 1.183594 -0.820312 C 0.730469 -0.992188 0.308594 -1.273438 -0.078125 -1.660156 C -0.636719 -2.21875 -0.957031 -2.824219 -1.046875 -3.476562 C -1.101562 -3.921875 -1.132812 -4.386719 -1.132812 -4.871094 Z M 1.195312 -4.871094 C 1.195312 -4.488281 1.21875 -4.125 1.261719 -3.78125 C 1.28125 -3.648438 1.382812 -3.492188 1.566406 -3.304688 C 1.71875 -3.152344 1.867188 -3.050781 2.011719 -2.996094 C 2.175781 -2.933594 2.355469 -2.902344 2.542969 -2.902344 C 2.988281 -2.902344 3.453125 -3.03125 3.929688 -3.289062 C 4.511719 -3.601562 5.058594 -3.972656 5.566406 -4.398438 C 6.109375 -4.851562 6.554688 -5.253906 6.902344 -5.601562 L 7.726562 -4.777344 L 6.851562 -5.542969 C 6.882812 -5.582031 6.898438 -5.601562 6.90625 -5.613281 C 6.855469 -5.527344 6.820312 -5.421875 6.804688 -5.292969 C 6.800781 -5.257812 6.796875 -5.226562 6.796875 -5.199219 C 6.796875 -5.203125 6.796875 -5.207031 6.796875 -5.214844 C 6.792969 -5.257812 6.78125 -5.324219 6.765625 -5.40625 L 7.910156 -5.617188 L 7.910156 -4.453125 C 7.808594 -4.453125 7.730469 -4.449219 7.683594 -4.441406 C 7.753906 -4.453125 7.835938 -4.488281 7.9375 -4.550781 C 7.980469 -4.578125 8.011719 -4.601562 8.03125 -4.621094 C 8.015625 -4.605469 7.992188 -4.578125 7.964844 -4.539062 C 7.785156 -4.292969 7.433594 -3.972656 6.910156 -3.574219 L 6.207031 -4.5 L 6.933594 -3.589844 C 6.839844 -3.515625 6.761719 -3.453125 6.699219 -3.398438 C 6.621094 -3.332031 6.519531 -3.246094 6.390625 -3.140625 L 6.335938 -3.09375 C 5.992188 -2.84375 5.515625 -2.539062 4.902344 -2.179688 C 4.140625 -1.730469 3.386719 -1.503906 2.636719 -1.503906 C 1.902344 -1.503906 1.285156 -1.753906 0.789062 -2.25 C 0.320312 -2.71875 0.0625 -3.226562 0.0195312 -3.769531 C -0.00390625 -4.058594 -0.015625 -4.386719 -0.015625 -4.746094 L -0.015625 -5.8125 L 1.046875 -5.90625 C 1.3125 -5.929688 1.609375 -6.054688 1.933594 -6.285156 C 2.363281 -6.589844 2.675781 -6.847656 2.867188 -7.058594 L 3.722656 -6.265625 L 2.8125 -6.992188 C 3.101562 -7.359375 3.242188 -7.652344 3.230469 -7.875 C 3.230469 -7.84375 3.242188 -7.808594 3.265625 -7.761719 C 3.300781 -7.6875 3.351562 -7.628906 3.417969 -7.582031 C 3.449219 -7.558594 3.472656 -7.546875 3.488281 -7.539062 C 3.453125 -7.550781 3.394531 -7.554688 3.320312 -7.554688 C 3.105469 -7.554688 2.851562 -7.433594 2.5625 -7.191406 C 2.164062 -6.855469 1.828125 -6.449219 1.554688 -5.972656 C 1.316406 -5.550781 1.195312 -5.183594 1.195312 -4.871094 Z M 1.195312 -4.871094 "/></g></g></g><g fill="#122620" fill-opacity="1"><g transform="translate(43.78583, 27.80466)"><g><path d="M -1.101562 -2.390625 C -1.101562 -3.464844 -1.039062 -4.621094 -0.910156 -5.859375 C -0.78125 -7.085938 -0.613281 -8.304688 -0.402344 -9.507812 C -0.1875 -10.71875 0.046875 -11.816406 0.300781 -12.796875 L 0.3125 -12.835938 L 0.324219 -12.871094 C 0.417969 -13.160156 0.515625 -13.484375 0.613281 -13.847656 C 0.746094 -14.332031 0.921875 -14.757812 1.140625 -15.128906 C 1.316406 -15.425781 1.535156 -15.660156 1.796875 -15.828125 C 2.097656 -16.023438 2.429688 -16.117188 2.792969 -16.117188 C 3.132812 -16.117188 3.433594 -16.039062 3.695312 -15.882812 C 4.015625 -15.6875 4.238281 -15.410156 4.363281 -15.042969 C 4.488281 -14.660156 4.507812 -14.242188 4.414062 -13.78125 C 4.351562 -13.457031 4.265625 -13.160156 4.160156 -12.878906 C 4.09375 -12.707031 4.054688 -12.601562 4.046875 -12.5625 C 3.882812 -11.953125 3.695312 -11.125 3.484375 -10.085938 C 3.269531 -9.035156 3.066406 -7.890625 2.871094 -6.648438 C 2.679688 -5.414062 2.53125 -4.1875 2.433594 -2.976562 C 2.332031 -1.789062 2.3125 -0.722656 2.371094 0.222656 C 2.421875 1.070312 2.550781 1.6875 2.746094 2.085938 L 1.707031 2.605469 L 1.160156 1.578125 C 1.324219 1.492188 1.464844 1.351562 1.582031 1.160156 C 1.789062 0.824219 1.964844 0.5 2.113281 0.1875 L 2.121094 0.164062 L 2.132812 0.144531 C 2.597656 -0.746094 3.054688 -1.6875 3.5 -2.679688 C 3.96875 -3.722656 4.460938 -4.707031 4.972656 -5.625 L 5.988281 -5.058594 L 4.949219 -5.578125 C 5.328125 -6.335938 5.851562 -6.71875 6.515625 -6.71875 C 6.753906 -6.71875 6.972656 -6.660156 7.179688 -6.550781 C 7.371094 -6.449219 7.535156 -6.304688 7.664062 -6.121094 C 7.859375 -5.847656 7.957031 -5.542969 7.957031 -5.210938 C 7.957031 -5.023438 7.90625 -4.808594 7.804688 -4.566406 C 7.753906 -4.445312 7.679688 -4.289062 7.585938 -4.101562 L 7.074219 -3.078125 C 6.886719 -2.699219 6.753906 -2.445312 6.675781 -2.316406 L 5.679688 -2.917969 L 6.726562 -2.417969 C 6.527344 -1.992188 6.296875 -1.492188 6.042969 -0.921875 L 5.28125 0.785156 C 5.019531 1.378906 4.761719 1.890625 4.511719 2.320312 L 4.503906 2.339844 L 4.074219 3.023438 C 3.851562 3.378906 3.605469 3.6875 3.335938 3.957031 C 2.902344 4.390625 2.390625 4.609375 1.800781 4.609375 C 1.367188 4.609375 0.972656 4.496094 0.621094 4.269531 C 0.296875 4.066406 0.0273438 3.777344 -0.1875 3.402344 C -0.492188 2.867188 -0.710938 2.222656 -0.835938 1.464844 C -0.949219 0.796875 -1.019531 0.109375 -1.054688 -0.597656 C -1.085938 -1.277344 -1.101562 -1.875 -1.101562 -2.390625 Z M 1.226562 -2.390625 C 1.226562 -1.910156 1.242188 -1.351562 1.269531 -0.707031 C 1.300781 -0.0898438 1.363281 0.503906 1.457031 1.082031 C 1.539062 1.5625 1.664062 1.949219 1.832031 2.242188 C 1.847656 2.273438 1.863281 2.296875 1.878906 2.3125 C 1.878906 2.316406 1.882812 2.316406 1.882812 2.316406 C 1.878906 2.3125 1.875 2.308594 1.867188 2.304688 C 1.839844 2.289062 1.816406 2.28125 1.800781 2.28125 C 1.746094 2.28125 1.710938 2.289062 1.691406 2.3125 C 1.835938 2.164062 1.972656 1.992188 2.101562 1.785156 L 2.519531 1.117188 L 3.507812 1.738281 L 2.5 1.15625 C 2.707031 0.796875 2.925781 0.359375 3.15625 -0.164062 L 3.917969 -1.871094 C 4.179688 -2.457031 4.417969 -2.972656 4.628906 -3.417969 L 4.652344 -3.46875 L 4.679688 -3.515625 C 4.726562 -3.59375 4.832031 -3.792969 4.992188 -4.121094 L 5.507812 -5.144531 C 5.578125 -5.285156 5.628906 -5.394531 5.660156 -5.46875 C 5.664062 -5.480469 5.667969 -5.492188 5.671875 -5.5 L 5.671875 -5.496094 C 5.644531 -5.414062 5.632812 -5.316406 5.632812 -5.210938 C 5.632812 -5.046875 5.675781 -4.898438 5.769531 -4.769531 C 5.847656 -4.660156 5.953125 -4.570312 6.078125 -4.503906 C 6.214844 -4.425781 6.363281 -4.390625 6.515625 -4.390625 C 6.730469 -4.390625 6.90625 -4.453125 7.042969 -4.582031 C 7.058594 -4.597656 7.070312 -4.609375 7.074219 -4.617188 C 7.0625 -4.597656 7.046875 -4.570312 7.027344 -4.535156 L 7.015625 -4.511719 L 7.003906 -4.492188 C 6.523438 -3.628906 6.0625 -2.710938 5.621094 -1.726562 C 5.15625 -0.691406 4.683594 0.289062 4.195312 1.222656 L 3.164062 0.683594 L 4.21875 1.179688 C 4.035156 1.566406 3.816406 1.96875 3.566406 2.375 C 3.230469 2.929688 2.789062 3.347656 2.25 3.632812 L 1.199219 4.191406 L 0.664062 3.125 C 0.328125 2.449219 0.121094 1.527344 0.046875 0.367188 C -0.015625 -0.691406 0.00390625 -1.871094 0.113281 -3.167969 C 0.21875 -4.4375 0.371094 -5.714844 0.574219 -7.003906 C 0.773438 -8.285156 0.980469 -9.464844 1.203125 -10.550781 C 1.425781 -11.636719 1.621094 -12.496094 1.789062 -13.128906 C 1.820312 -13.253906 1.886719 -13.449219 1.984375 -13.710938 C 2.042969 -13.867188 2.09375 -14.042969 2.132812 -14.238281 C 2.140625 -14.28125 2.144531 -14.316406 2.144531 -14.34375 C 2.144531 -14.335938 2.148438 -14.324219 2.152344 -14.308594 C 2.214844 -14.128906 2.328125 -13.988281 2.496094 -13.886719 C 2.601562 -13.824219 2.703125 -13.792969 2.792969 -13.792969 C 2.886719 -13.792969 2.972656 -13.816406 3.058594 -13.871094 C 3.101562 -13.902344 3.132812 -13.925781 3.140625 -13.941406 C 3.03125 -13.753906 2.9375 -13.519531 2.859375 -13.238281 C 2.75 -12.835938 2.640625 -12.46875 2.53125 -12.136719 L 1.425781 -12.503906 L 2.554688 -12.210938 C 2.3125 -11.289062 2.09375 -10.253906 1.890625 -9.105469 C 1.6875 -7.953125 1.527344 -6.792969 1.40625 -5.621094 C 1.285156 -4.460938 1.226562 -3.382812 1.226562 -2.390625 Z M 1.226562 -2.390625 "/></g></g></g><g fill="#122620" fill-opacity="1"><g transform="translate(49.246347, 27.80466)"><g><path d="M -1.101562 -2.390625 C -1.101562 -3.464844 -1.039062 -4.621094 -0.910156 -5.859375 C -0.78125 -7.085938 -0.613281 -8.304688 -0.402344 -9.507812 C -0.1875 -10.71875 0.046875 -11.816406 0.300781 -12.796875 L 0.3125 -12.835938 L 0.324219 -12.871094 C 0.417969 -13.160156 0.515625 -13.484375 0.613281 -13.847656 C 0.746094 -14.332031 0.921875 -14.757812 1.140625 -15.128906 C 1.316406 -15.425781 1.535156 -15.660156 1.796875 -15.828125 C 2.097656 -16.023438 2.429688 -16.117188 2.792969 -16.117188 C 3.132812 -16.117188 3.433594 -16.039062 3.695312 -15.882812 C 4.015625 -15.6875 4.238281 -15.410156 4.363281 -15.042969 C 4.488281 -14.660156 4.507812 -14.242188 4.414062 -13.78125 C 4.351562 -13.457031 4.265625 -13.160156 4.160156 -12.878906 C 4.09375 -12.707031 4.054688 -12.601562 4.046875 -12.5625 C 3.882812 -11.953125 3.695312 -11.125 3.484375 -10.085938 C 3.269531 -9.035156 3.066406 -7.890625 2.871094 -6.648438 C 2.679688 -5.414062 2.53125 -4.1875 2.433594 -2.976562 C 2.332031 -1.789062 2.3125 -0.722656 2.371094 0.222656 C 2.421875 1.070312 2.550781 1.6875 2.746094 2.085938 L 1.707031 2.605469 L 1.160156 1.578125 C 1.324219 1.492188 1.464844 1.351562 1.582031 1.160156 C 1.789062 0.824219 1.964844 0.5 2.113281 0.1875 L 2.121094 0.164062 L 2.132812 0.144531 C 2.597656 -0.746094 3.054688 -1.6875 3.5 -2.679688 C 3.96875 -3.722656 4.460938 -4.707031 4.972656 -5.625 L 5.988281 -5.058594 L 4.949219 -5.578125 C 5.328125 -6.335938 5.851562 -6.71875 6.515625 -6.71875 C 6.753906 -6.71875 6.972656 -6.660156 7.179688 -6.550781 C 7.371094 -6.449219 7.535156 -6.304688 7.664062 -6.121094 C 7.859375 -5.847656 7.957031 -5.542969 7.957031 -5.210938 C 7.957031 -5.023438 7.90625 -4.808594 7.804688 -4.566406 C 7.753906 -4.445312 7.679688 -4.289062 7.585938 -4.101562 L 7.074219 -3.078125 C 6.886719 -2.699219 6.753906 -2.445312 6.675781 -2.316406 L 5.679688 -2.917969 L 6.726562 -2.417969 C 6.527344 -1.992188 6.296875 -1.492188 6.042969 -0.921875 L 5.28125 0.785156 C 5.019531 1.378906 4.761719 1.890625 4.511719 2.320312 L 4.503906 2.339844 L 4.074219 3.023438 C 3.851562 3.378906 3.605469 3.6875 3.335938 3.957031 C 2.902344 4.390625 2.390625 4.609375 1.800781 4.609375 C 1.367188 4.609375 0.972656 4.496094 0.621094 4.269531 C 0.296875 4.066406 0.0273438 3.777344 -0.1875 3.402344 C -0.492188 2.867188 -0.710938 2.222656 -0.835938 1.464844 C -0.949219 0.796875 -1.019531 0.109375 -1.054688 -0.597656 C -1.085938 -1.277344 -1.101562 -1.875 -1.101562 -2.390625 Z M 1.226562 -2.390625 C 1.226562 -1.910156 1.242188 -1.351562 1.269531 -0.707031 C 1.300781 -0.0898438 1.363281 0.503906 1.457031 1.082031 C 1.539062 1.5625 1.664062 1.949219 1.832031 2.242188 C 1.847656 2.273438 1.863281 2.296875 1.878906 2.3125 C 1.878906 2.316406 1.882812 2.316406 1.882812 2.316406 C 1.878906 2.3125 1.875 2.308594 1.867188 2.304688 C 1.839844 2.289062 1.816406 2.28125 1.800781 2.28125 C 1.746094 2.28125 1.710938 2.289062 1.691406 2.3125 C 1.835938 2.164062 1.972656 1.992188 2.101562 1.785156 L 2.519531 1.117188 L 3.507812 1.738281 L 2.5 1.15625 C 2.707031 0.796875 2.925781 0.359375 3.15625 -0.164062 L 3.917969 -1.871094 C 4.179688 -2.457031 4.417969 -2.972656 4.628906 -3.417969 L 4.652344 -3.46875 L 4.679688 -3.515625 C 4.726562 -3.59375 4.832031 -3.792969 4.992188 -4.121094 L 5.507812 -5.144531 C 5.578125 -5.285156 5.628906 -5.394531 5.660156 -5.46875 C 5.664062 -5.480469 5.667969 -5.492188 5.671875 -5.5 L 5.671875 -5.496094 C 5.644531 -5.414062 5.632812 -5.316406 5.632812 -5.210938 C 5.632812 -5.046875 5.675781 -4.898438 5.769531 -4.769531 C 5.847656 -4.660156 5.953125 -4.570312 6.078125 -4.503906 C 6.214844 -4.425781 6.363281 -4.390625 6.515625 -4.390625 C 6.730469 -4.390625 6.90625 -4.453125 7.042969 -4.582031 C 7.058594 -4.597656 7.070312 -4.609375 7.074219 -4.617188 C 7.0625 -4.597656 7.046875 -4.570312 7.027344 -4.535156 L 7.015625 -4.511719 L 7.003906 -4.492188 C 6.523438 -3.628906 6.0625 -2.710938 5.621094 -1.726562 C 5.15625 -0.691406 4.683594 0.289062 4.195312 1.222656 L 3.164062 0.683594 L 4.21875 1.179688 C 4.035156 1.566406 3.816406 1.96875 3.566406 2.375 C 3.230469 2.929688 2.789062 3.347656 2.25 3.632812 L 1.199219 4.191406 L 0.664062 3.125 C 0.328125 2.449219 0.121094 1.527344 0.046875 0.367188 C -0.015625 -0.691406 0.00390625 -1.871094 0.113281 -3.167969 C 0.21875 -4.4375 0.371094 -5.714844 0.574219 -7.003906 C 0.773438 -8.285156 0.980469 -9.464844 1.203125 -10.550781 C 1.425781 -11.636719 1.621094 -12.496094 1.789062 -13.128906 C 1.820312 -13.253906 1.886719 -13.449219 1.984375 -13.710938 C 2.042969 -13.867188 2.09375 -14.042969 2.132812 -14.238281 C 2.140625 -14.28125 2.144531 -14.316406 2.144531 -14.34375 C 2.144531 -14.335938 2.148438 -14.324219 2.152344 -14.308594 C 2.214844 -14.128906 2.328125 -13.988281 2.496094 -13.886719 C 2.601562 -13.824219 2.703125 -13.792969 2.792969 -13.792969 C 2.886719 -13.792969 2.972656 -13.816406 3.058594 -13.871094 C 3.101562 -13.902344 3.132812 -13.925781 3.140625 -13.941406 C 3.03125 -13.753906 2.9375 -13.519531 2.859375 -13.238281 C 2.75 -12.835938 2.640625 -12.46875 2.53125 -12.136719 L 1.425781 -12.503906 L 2.554688 -12.210938 C 2.3125 -11.289062 2.09375 -10.253906 1.890625 -9.105469 C 1.6875 -7.953125 1.527344 -6.792969 1.40625 -5.621094 C 1.285156 -4.460938 1.226562 -3.382812 1.226562 -2.390625 Z M 1.226562 -2.390625 "/></g></g></g><g fill="#122620" fill-opacity="1"><g transform="translate(54.70686, 27.80466)"><g><path d="M 0.886719 -6.644531 C 1.222656 -6.824219 1.601562 -7.070312 2.027344 -7.394531 C 2.226562 -7.546875 2.332031 -7.699219 2.347656 -7.851562 L 3.507812 -7.757812 L 3.683594 -6.605469 C 3.625 -6.597656 3.53125 -6.539062 3.394531 -6.425781 C 3.175781 -6.246094 2.988281 -6.042969 2.832031 -5.816406 C 2.683594 -5.605469 2.585938 -5.425781 2.539062 -5.273438 L 1.425781 -5.617188 Z M 1.96875 -4.585938 L -0.507812 -3.28125 L 0.316406 -5.957031 C 0.433594 -6.34375 0.636719 -6.742188 0.925781 -7.152344 C 1.203125 -7.546875 1.53125 -7.902344 1.910156 -8.21875 C 2.375 -8.601562 2.847656 -8.832031 3.328125 -8.90625 L 4.789062 -9.132812 L 4.664062 -7.660156 C 4.59375 -6.820312 4.183594 -6.113281 3.433594 -5.542969 C 2.90625 -5.140625 2.417969 -4.824219 1.96875 -4.585938 Z M -1.132812 -4.871094 C -1.132812 -5.59375 -0.910156 -6.34375 -0.46875 -7.121094 C -0.0585938 -7.84375 0.453125 -8.460938 1.070312 -8.976562 C 1.792969 -9.578125 2.542969 -9.882812 3.320312 -9.882812 C 3.914062 -9.882812 4.398438 -9.742188 4.78125 -9.46875 C 5.257812 -9.121094 5.515625 -8.636719 5.550781 -8.011719 C 5.601562 -7.199219 5.296875 -6.375 4.636719 -5.542969 L 4.609375 -5.511719 L 4.578125 -5.476562 C 4.273438 -5.148438 3.839844 -4.785156 3.277344 -4.386719 C 2.609375 -3.914062 1.933594 -3.648438 1.25 -3.589844 L 1.148438 -4.746094 L 2.3125 -4.746094 C 2.3125 -4.445312 2.320312 -4.183594 2.339844 -3.957031 C 2.335938 -3.992188 2.332031 -4.015625 2.324219 -4.03125 C 2.34375 -3.996094 2.378906 -3.949219 2.4375 -3.894531 C 2.476562 -3.851562 2.542969 -3.832031 2.636719 -3.832031 C 2.964844 -3.832031 3.324219 -3.949219 3.722656 -4.183594 C 4.269531 -4.503906 4.679688 -4.765625 4.957031 -4.972656 L 5.648438 -4.035156 L 4.902344 -4.925781 C 5.023438 -5.027344 5.117188 -5.105469 5.183594 -5.164062 C 5.265625 -5.234375 5.363281 -5.316406 5.476562 -5.40625 L 5.488281 -5.417969 L 5.5 -5.425781 C 5.84375 -5.6875 6.042969 -5.851562 6.089844 -5.917969 C 6.292969 -6.191406 6.496094 -6.394531 6.707031 -6.523438 C 6.976562 -6.695312 7.378906 -6.78125 7.910156 -6.78125 L 8.882812 -6.78125 L 9.058594 -5.824219 C 9.121094 -5.480469 9.136719 -5.207031 9.113281 -5.007812 C 9.074219 -4.6875 8.902344 -4.355469 8.601562 -4.011719 L 8.546875 -3.957031 C 8.152344 -3.558594 7.65625 -3.113281 7.058594 -2.613281 C 6.429688 -2.085938 5.757812 -1.628906 5.035156 -1.242188 C 4.210938 -0.796875 3.382812 -0.574219 2.542969 -0.574219 C 2.070312 -0.574219 1.617188 -0.65625 1.183594 -0.820312 C 0.730469 -0.992188 0.308594 -1.273438 -0.078125 -1.660156 C -0.636719 -2.21875 -0.957031 -2.824219 -1.046875 -3.476562 C -1.101562 -3.921875 -1.132812 -4.386719 -1.132812 -4.871094 Z M 1.195312 -4.871094 C 1.195312 -4.488281 1.21875 -4.125 1.261719 -3.78125 C 1.28125 -3.648438 1.382812 -3.492188 1.566406 -3.304688 C 1.71875 -3.152344 1.867188 -3.050781 2.011719 -2.996094 C 2.175781 -2.933594 2.355469 -2.902344 2.542969 -2.902344 C 2.988281 -2.902344 3.453125 -3.03125 3.929688 -3.289062 C 4.511719 -3.601562 5.058594 -3.972656 5.566406 -4.398438 C 6.109375 -4.851562 6.554688 -5.253906 6.902344 -5.601562 L 7.726562 -4.777344 L 6.851562 -5.542969 C 6.882812 -5.582031 6.898438 -5.601562 6.90625 -5.613281 C 6.855469 -5.527344 6.820312 -5.421875 6.804688 -5.292969 C 6.800781 -5.257812 6.796875 -5.226562 6.796875 -5.199219 C 6.796875 -5.203125 6.796875 -5.207031 6.796875 -5.214844 C 6.792969 -5.257812 6.78125 -5.324219 6.765625 -5.40625 L 7.910156 -5.617188 L 7.910156 -4.453125 C 7.808594 -4.453125 7.730469 -4.449219 7.683594 -4.441406 C 7.753906 -4.453125 7.835938 -4.488281 7.9375 -4.550781 C 7.980469 -4.578125 8.011719 -4.601562 8.03125 -4.621094 C 8.015625 -4.605469 7.992188 -4.578125 7.964844 -4.539062 C 7.785156 -4.292969 7.433594 -3.972656 6.910156 -3.574219 L 6.207031 -4.5 L 6.933594 -3.589844 C 6.839844 -3.515625 6.761719 -3.453125 6.699219 -3.398438 C 6.621094 -3.332031 6.519531 -3.246094 6.390625 -3.140625 L 6.335938 -3.09375 C 5.992188 -2.84375 5.515625 -2.539062 4.902344 -2.179688 C 4.140625 -1.730469 3.386719 -1.503906 2.636719 -1.503906 C 1.902344 -1.503906 1.285156 -1.753906 0.789062 -2.25 C 0.320312 -2.71875 0.0625 -3.226562 0.0195312 -3.769531 C -0.00390625 -4.058594 -0.015625 -4.386719 -0.015625 -4.746094 L -0.015625 -5.8125 L 1.046875 -5.90625 C 1.3125 -5.929688 1.609375 -6.054688 1.933594 -6.285156 C 2.363281 -6.589844 2.675781 -6.847656 2.867188 -7.058594 L 3.722656 -6.265625 L 2.8125 -6.992188 C 3.101562 -7.359375 3.242188 -7.652344 3.230469 -7.875 C 3.230469 -7.84375 3.242188 -7.808594 3.265625 -7.761719 C 3.300781 -7.6875 3.351562 -7.628906 3.417969 -7.582031 C 3.449219 -7.558594 3.472656 -7.546875 3.488281 -7.539062 C 3.453125 -7.550781 3.394531 -7.554688 3.320312 -7.554688 C 3.105469 -7.554688 2.851562 -7.433594 2.5625 -7.191406 C 2.164062 -6.855469 1.828125 -6.449219 1.554688 -5.972656 C 1.316406 -5.550781 1.195312 -5.183594 1.195312 -4.871094 Z M 1.195312 -4.871094 "/></g></g></g><g clip-path="url(#5bd65bd806)"><g fill="#122620" fill-opacity="1"><g transform="translate(61.439428, 27.80466)"><g><path d="M 1.535156 5.121094 C 1.535156 5.140625 1.535156 5.15625 1.539062 5.167969 L 1.535156 5.167969 C 1.527344 5.117188 1.5 5.058594 1.460938 4.996094 C 1.386719 4.875 1.28125 4.777344 1.152344 4.707031 C 1.027344 4.640625 0.902344 4.609375 0.777344 4.609375 C 0.722656 4.609375 0.675781 4.613281 0.632812 4.628906 C 0.625 4.632812 0.617188 4.632812 0.613281 4.636719 C 0.613281 4.636719 0.617188 4.632812 0.625 4.628906 C 0.75 4.550781 0.847656 4.484375 0.917969 4.429688 L 0.933594 4.417969 L 0.945312 4.40625 C 1.214844 4.203125 1.46875 3.867188 1.707031 3.398438 C 1.996094 2.835938 2.199219 2.332031 2.324219 1.890625 C 2.402344 1.625 2.445312 1.359375 2.453125 1.097656 C 2.460938 0.75 2.464844 0.359375 2.464844 -0.0625 L 3.628906 -0.0625 L 4.214844 0.941406 C 4.074219 1.023438 3.886719 1.199219 3.648438 1.46875 C 3.335938 1.820312 3.09375 2.101562 2.917969 2.320312 C 2.585938 2.722656 2.257812 3.214844 1.929688 3.796875 C 1.667969 4.261719 1.535156 4.703125 1.535156 5.121094 Z M -0.792969 5.121094 C -0.792969 4.296875 -0.558594 3.472656 -0.0976562 2.65625 C 0.296875 1.957031 0.703125 1.351562 1.117188 0.84375 C 1.3125 0.605469 1.574219 0.300781 1.90625 -0.0742188 C 2.308594 -0.527344 2.6875 -0.859375 3.042969 -1.066406 L 4.792969 -2.085938 L 4.792969 -0.0625 C 4.792969 0.382812 4.789062 0.792969 4.777344 1.164062 C 4.765625 1.628906 4.695312 2.078125 4.5625 2.515625 C 4.398438 3.109375 4.136719 3.753906 3.78125 4.453125 C 3.378906 5.242188 2.902344 5.847656 2.34375 6.265625 L 1.644531 5.335938 L 2.371094 6.246094 C 2.234375 6.355469 2.0625 6.476562 1.859375 6.601562 C 1.503906 6.824219 1.144531 6.933594 0.777344 6.933594 C 0.511719 6.933594 0.269531 6.875 0.046875 6.753906 C -0.183594 6.628906 -0.375 6.453125 -0.515625 6.21875 C -0.699219 5.925781 -0.792969 5.558594 -0.792969 5.121094 Z M -1.070312 -5.027344 C -1.070312 -5.804688 -0.859375 -6.503906 -0.433594 -7.125 C -0.0546875 -7.679688 0.402344 -8.128906 0.9375 -8.472656 C 1.535156 -8.855469 2.089844 -9.042969 2.605469 -9.042969 C 2.898438 -9.042969 3.167969 -8.984375 3.414062 -8.867188 C 3.683594 -8.734375 3.902344 -8.542969 4.078125 -8.292969 C 4.390625 -7.832031 4.453125 -7.234375 4.257812 -6.5 L 4.082031 -5.832031 L 3.414062 -5.667969 C 3.113281 -5.589844 2.882812 -5.542969 2.722656 -5.527344 C 2.855469 -5.542969 2.980469 -5.597656 3.101562 -5.699219 C 3.085938 -5.683594 3.011719 -5.605469 2.886719 -5.464844 C 2.742188 -5.304688 2.644531 -5.175781 2.59375 -5.082031 L 2.589844 -5.082031 C 2.605469 -5.132812 2.605469 -5.195312 2.597656 -5.261719 C 2.59375 -5.304688 2.585938 -5.335938 2.570312 -5.359375 C 2.582031 -5.339844 2.613281 -5.308594 2.664062 -5.269531 L 3.777344 -4.386719 C 4.320312 -3.957031 4.824219 -3.390625 5.285156 -2.683594 L 4.3125 -2.046875 L 3.65625 -3.007812 C 4.074219 -3.292969 4.503906 -3.628906 4.945312 -4.011719 L 4.992188 -4.050781 L 7.929688 -6.105469 C 8.28125 -6.347656 8.601562 -6.523438 8.890625 -6.628906 C 9.214844 -6.75 9.519531 -6.808594 9.804688 -6.808594 C 10.25 -6.808594 10.613281 -6.671875 10.890625 -6.390625 C 11.082031 -6.199219 11.207031 -5.96875 11.257812 -5.699219 C 11.296875 -5.507812 11.296875 -5.3125 11.253906 -5.109375 C 11.144531 -4.5625 10.765625 -4.097656 10.113281 -3.714844 L 9.523438 -4.714844 L 10.1875 -3.757812 L 8.007812 -2.253906 L 7.9375 -2.21875 C 7.910156 -2.203125 7.789062 -2.121094 7.574219 -1.960938 L 6.695312 -1.3125 C 6.40625 -1.097656 6.164062 -0.902344 5.964844 -0.722656 C 5.875 -0.640625 5.8125 -0.578125 5.773438 -0.539062 C 5.769531 -0.53125 5.765625 -0.53125 5.765625 -0.527344 C 5.769531 -0.535156 5.773438 -0.539062 5.78125 -0.550781 C 5.835938 -0.621094 5.878906 -0.710938 5.914062 -0.8125 L 4.808594 -1.179688 L 5.949219 -0.949219 C 5.96875 -1.035156 5.972656 -1.097656 5.964844 -1.136719 C 5.972656 -1.082031 5.992188 -1.007812 6.019531 -0.910156 C 6.125 -0.539062 6.199219 -0.0820312 6.234375 0.464844 C 6.273438 1.046875 6.203125 1.726562 6.019531 2.511719 C 5.839844 3.296875 5.460938 4.1875 4.882812 5.175781 C 4.335938 6.097656 3.722656 6.789062 3.039062 7.25 C 2.304688 7.742188 1.582031 7.988281 0.867188 7.988281 C 0.105469 7.988281 -0.53125 7.726562 -1.039062 7.199219 C -1.535156 6.683594 -1.785156 5.992188 -1.785156 5.121094 C -1.785156 4.226562 -1.570312 3.367188 -1.144531 2.539062 C -0.761719 1.796875 -0.300781 1.113281 0.230469 0.488281 C 0.726562 -0.09375 1.1875 -0.597656 1.613281 -1.023438 C 1.960938 -1.375 2.175781 -1.609375 2.257812 -1.730469 L 3.226562 -1.085938 L 2.214844 -0.507812 C 2.027344 -0.835938 1.804688 -1.121094 1.542969 -1.359375 C 1.210938 -1.660156 0.886719 -1.9375 0.566406 -2.1875 C 0.148438 -2.519531 -0.207031 -2.875 -0.492188 -3.253906 C -0.878906 -3.761719 -1.070312 -4.351562 -1.070312 -5.027344 Z M 1.257812 -5.027344 C 1.257812 -4.875 1.292969 -4.75 1.363281 -4.660156 C 1.527344 -4.4375 1.746094 -4.222656 2.007812 -4.015625 C 2.371094 -3.730469 2.738281 -3.417969 3.109375 -3.078125 C 3.554688 -2.675781 3.929688 -2.203125 4.238281 -1.664062 L 4.59375 -1.039062 L 4.195312 -0.441406 C 4.027344 -0.191406 3.714844 0.164062 3.257812 0.621094 C 2.875 1.003906 2.457031 1.460938 2.003906 1.996094 C 1.585938 2.484375 1.226562 3.023438 0.925781 3.605469 C 0.671875 4.097656 0.542969 4.605469 0.542969 5.121094 C 0.542969 5.363281 0.574219 5.519531 0.636719 5.582031 C 0.6875 5.636719 0.765625 5.664062 0.867188 5.664062 C 1.109375 5.664062 1.398438 5.546875 1.738281 5.316406 C 2.132812 5.054688 2.511719 4.617188 2.871094 4.007812 C 3.332031 3.21875 3.625 2.546875 3.753906 1.988281 C 3.882812 1.425781 3.933594 0.972656 3.910156 0.621094 C 3.886719 0.238281 3.84375 -0.0585938 3.785156 -0.269531 C 3.648438 -0.742188 3.609375 -1.121094 3.667969 -1.40625 L 3.683594 -1.476562 L 3.707031 -1.546875 C 3.769531 -1.734375 3.886719 -1.925781 4.0625 -2.117188 C 4.148438 -2.207031 4.261719 -2.316406 4.398438 -2.441406 C 4.65625 -2.675781 4.960938 -2.921875 5.3125 -3.1875 L 6.203125 -3.839844 C 6.523438 -4.074219 6.753906 -4.226562 6.894531 -4.296875 L 7.414062 -3.257812 L 6.753906 -4.214844 L 8.898438 -5.699219 L 8.933594 -5.71875 C 9.015625 -5.765625 9.070312 -5.804688 9.09375 -5.828125 C 9.035156 -5.769531 8.996094 -5.679688 8.972656 -5.566406 C 8.953125 -5.464844 8.953125 -5.359375 8.976562 -5.246094 C 9.015625 -5.050781 9.105469 -4.886719 9.246094 -4.746094 C 9.359375 -4.632812 9.488281 -4.554688 9.636719 -4.511719 C 9.699219 -4.492188 9.753906 -4.484375 9.804688 -4.484375 L 9.808594 -4.480469 C 9.777344 -4.476562 9.742188 -4.464844 9.695312 -4.445312 C 9.589844 -4.40625 9.445312 -4.324219 9.261719 -4.195312 L 6.375 -2.179688 L 5.707031 -3.132812 L 6.472656 -2.253906 C 5.960938 -1.8125 5.460938 -1.421875 4.96875 -1.085938 L 3.988281 -0.417969 L 3.339844 -1.410156 C 3.015625 -1.90625 2.679688 -2.289062 2.332031 -2.5625 L 1.214844 -3.449219 C 0.664062 -3.886719 0.351562 -4.40625 0.285156 -5.007812 C 0.214844 -5.632812 0.503906 -6.300781 1.148438 -7.007812 C 1.351562 -7.238281 1.507812 -7.398438 1.613281 -7.488281 C 1.859375 -7.691406 2.148438 -7.808594 2.492188 -7.84375 C 2.539062 -7.847656 2.65625 -7.875 2.851562 -7.921875 L 3.132812 -6.792969 L 2.007812 -7.089844 C 2.03125 -7.183594 2.042969 -7.246094 2.042969 -7.277344 C 2.046875 -7.183594 2.085938 -7.082031 2.160156 -6.972656 C 2.21875 -6.886719 2.296875 -6.820312 2.398438 -6.773438 C 2.472656 -6.734375 2.542969 -6.71875 2.605469 -6.71875 L 2.609375 -6.714844 C 2.589844 -6.710938 2.566406 -6.703125 2.535156 -6.695312 C 2.441406 -6.65625 2.328125 -6.597656 2.195312 -6.511719 C 1.925781 -6.339844 1.6875 -6.105469 1.488281 -5.8125 C 1.332031 -5.585938 1.257812 -5.324219 1.257812 -5.027344 Z M 1.257812 -5.027344 "/></g></g></g></g><g fill="#fffef9" fill-opacity="1"><g transform="translate(1.001461, 27.80466)"><g><path d="M 16.359375 1.296875 L 16.6875 -1.921875 C 16.9375 -3.890625 17.175781 -5.734375 17.40625 -7.453125 C 17.632812 -9.179688 17.878906 -10.875 18.140625 -12.53125 C 18.398438 -14.1875 18.695312 -15.882812 19.03125 -17.625 C 19.375 -19.363281 19.773438 -21.238281 20.234375 -23.25 C 19.859375 -23.25 19.347656 -23.195312 18.703125 -23.09375 C 18.066406 -22.988281 17.359375 -22.863281 16.578125 -22.71875 C 15.804688 -22.570312 15.03125 -22.410156 14.25 -22.234375 C 13.476562 -22.054688 12.769531 -21.894531 12.125 -21.75 C 11.488281 -21.601562 10.992188 -21.488281 10.640625 -21.40625 C 9.878906 -21.195312 9.132812 -20.992188 8.40625 -20.796875 C 7.6875 -20.609375 6.953125 -20.398438 6.203125 -20.171875 C 5.847656 -20.066406 5.390625 -19.921875 4.828125 -19.734375 C 4.273438 -19.546875 3.753906 -19.335938 3.265625 -19.109375 C 2.785156 -18.890625 2.460938 -18.65625 2.296875 -18.40625 C 2.378906 -18.132812 2.535156 -17.925781 2.765625 -17.78125 C 2.992188 -17.632812 3.207031 -17.476562 3.40625 -17.3125 L 7.046875 -14.671875 C 8.722656 -13.410156 10.195312 -12.019531 11.46875 -10.5 C 12.738281 -8.976562 13.753906 -7.238281 14.515625 -5.28125 C 15.035156 -3.988281 15.390625 -2.960938 15.578125 -2.203125 C 15.765625 -1.441406 15.894531 -0.8125 15.96875 -0.3125 C 16.039062 0.1875 16.148438 0.671875 16.296875 1.140625 Z M 1.234375 -18.625 C 1.234375 -18.863281 1.335938 -19.09375 1.546875 -19.3125 C 1.753906 -19.53125 1.988281 -19.726562 2.25 -19.90625 C 2.507812 -20.082031 2.722656 -20.222656 2.890625 -20.328125 L 5.1875 -21.28125 C 7.582031 -22.113281 10.023438 -22.804688 12.515625 -23.359375 C 15.015625 -23.921875 17.515625 -24.335938 20.015625 -24.609375 C 20.347656 -24.648438 20.550781 -24.707031 20.625 -24.78125 C 20.695312 -24.851562 20.75 -24.925781 20.78125 -25 C 20.8125 -25.070312 20.90625 -25.109375 21.0625 -25.109375 C 21.351562 -25.109375 21.507812 -25.085938 21.53125 -25.046875 C 21.550781 -25.003906 21.578125 -24.957031 21.609375 -24.90625 C 21.640625 -24.851562 21.800781 -24.816406 22.09375 -24.796875 C 22.175781 -24.796875 22.257812 -24.796875 22.34375 -24.796875 C 22.425781 -24.796875 22.507812 -24.796875 22.59375 -24.796875 C 22.925781 -24.796875 23.285156 -24.800781 23.671875 -24.8125 C 24.066406 -24.820312 24.441406 -24.828125 24.796875 -24.828125 C 24.898438 -24.828125 25 -24.828125 25.09375 -24.828125 C 25.1875 -24.828125 25.273438 -24.828125 25.359375 -24.828125 C 25.554688 -24.804688 25.953125 -24.765625 26.546875 -24.703125 C 27.140625 -24.640625 27.835938 -24.554688 28.640625 -24.453125 C 29.453125 -24.347656 30.28125 -24.226562 31.125 -24.09375 C 31.96875 -23.957031 32.753906 -23.804688 33.484375 -23.640625 C 34.222656 -23.472656 34.820312 -23.296875 35.28125 -23.109375 C 35.738281 -22.929688 35.96875 -22.726562 35.96875 -22.5 C 35.96875 -22.144531 35.851562 -21.96875 35.625 -21.96875 C 35.476562 -21.96875 35.296875 -22 35.078125 -22.0625 C 34.859375 -22.125 34.585938 -22.195312 34.265625 -22.28125 C 33.640625 -22.425781 32.90625 -22.578125 32.0625 -22.734375 C 31.226562 -22.890625 30.351562 -23.023438 29.4375 -23.140625 C 28.53125 -23.265625 27.660156 -23.363281 26.828125 -23.4375 C 26.003906 -23.507812 25.304688 -23.546875 24.734375 -23.546875 C 24.191406 -23.546875 23.707031 -23.523438 23.28125 -23.484375 C 22.863281 -23.441406 22.363281 -23.421875 21.78125 -23.421875 C 21.757812 -23.359375 21.703125 -23.109375 21.609375 -22.671875 C 21.515625 -22.242188 21.410156 -21.75 21.296875 -21.1875 C 21.179688 -20.632812 21.082031 -20.125 21 -19.65625 C 20.925781 -19.1875 20.878906 -18.882812 20.859375 -18.75 L 19.171875 -9.28125 C 18.910156 -7.5625 18.679688 -5.898438 18.484375 -4.296875 C 18.285156 -2.691406 18.070312 -1.0625 17.84375 0.59375 C 17.78125 1.039062 17.734375 1.460938 17.703125 1.859375 C 17.671875 2.253906 17.625 2.691406 17.5625 3.171875 L 16.546875 13.25 C 16.523438 13.457031 16.503906 13.710938 16.484375 14.015625 C 16.460938 14.328125 16.40625 14.609375 16.3125 14.859375 C 16.21875 15.109375 16.054688 15.234375 15.828125 15.234375 C 15.703125 15.234375 15.609375 15.195312 15.546875 15.125 C 15.484375 15.050781 15.398438 14.984375 15.296875 14.921875 L 15.828125 6.109375 C 15.828125 5.222656 15.769531 4.269531 15.65625 3.25 C 15.539062 2.238281 15.382812 1.234375 15.1875 0.234375 C 14.988281 -0.765625 14.773438 -1.671875 14.546875 -2.484375 C 14.242188 -3.640625 13.882812 -4.664062 13.46875 -5.5625 C 13.050781 -6.46875 12.578125 -7.320312 12.046875 -8.125 C 11.523438 -8.9375 10.929688 -9.753906 10.265625 -10.578125 C 9.835938 -11.140625 9.3125 -11.679688 8.6875 -12.203125 C 8.0625 -12.734375 7.414062 -13.242188 6.75 -13.734375 C 6.09375 -14.234375 5.5 -14.679688 4.96875 -15.078125 L 2.140625 -17.09375 C 1.910156 -17.257812 1.703125 -17.457031 1.515625 -17.6875 C 1.328125 -17.914062 1.234375 -18.226562 1.234375 -18.625 Z M 1.234375 -18.625 "/></g></g></g><g fill="#fffef9" fill-opacity="1"><g transform="translate(21.478387, 27.80466)"><g><path d="M 1.546875 -0.71875 C 1.859375 -0.800781 2.140625 -1.070312 2.390625 -1.53125 C 2.640625 -2 2.816406 -2.53125 2.921875 -3.125 C 3.023438 -3.726562 3.050781 -4.28125 3 -4.78125 C 2.945312 -5.289062 2.785156 -5.640625 2.515625 -5.828125 C 2.453125 -5.609375 2.335938 -5.285156 2.171875 -4.859375 C 2.003906 -4.429688 1.84375 -3.960938 1.6875 -3.453125 C 1.53125 -2.953125 1.425781 -2.457031 1.375 -1.96875 C 1.320312 -1.476562 1.378906 -1.0625 1.546875 -0.71875 Z M 0 -1.765625 C 0 -2.035156 0.0546875 -2.429688 0.171875 -2.953125 C 0.285156 -3.484375 0.445312 -4.050781 0.65625 -4.65625 C 0.863281 -5.269531 1.09375 -5.851562 1.34375 -6.40625 C 1.601562 -6.957031 1.882812 -7.40625 2.1875 -7.75 C 2.488281 -8.101562 2.796875 -8.28125 3.109375 -8.28125 C 3.304688 -8.28125 3.445312 -8.1875 3.53125 -8 C 3.613281 -7.820312 3.632812 -7.671875 3.59375 -7.546875 C 3.550781 -7.441406 3.472656 -7.335938 3.359375 -7.234375 C 3.253906 -7.128906 3.160156 -7.015625 3.078125 -6.890625 C 3.117188 -6.742188 3.21875 -6.582031 3.375 -6.40625 C 3.539062 -6.226562 3.707031 -5.992188 3.875 -5.703125 C 4.039062 -5.421875 4.148438 -5.03125 4.203125 -4.53125 C 4.253906 -4.03125 4.195312 -3.378906 4.03125 -2.578125 C 3.800781 -1.503906 3.4375 -0.695312 2.9375 -0.15625 C 2.445312 0.382812 1.960938 0.65625 1.484375 0.65625 C 1.097656 0.65625 0.753906 0.453125 0.453125 0.046875 C 0.148438 -0.359375 0 -0.960938 0 -1.765625 Z M 0 -1.765625 "/></g></g></g><g fill="#fffef9" fill-opacity="1"><g transform="translate(26.938902, 27.80466)"><g><path d="M 0.4375 -0.125 C 0.226562 -0.125 0.101562 -0.253906 0.0625 -0.515625 C 0.0195312 -0.773438 0.0078125 -1.046875 0.03125 -1.328125 C 0.0507812 -1.617188 0.0625 -1.796875 0.0625 -1.859375 C 0.0390625 -2.234375 0.0351562 -2.609375 0.046875 -2.984375 C 0.0546875 -3.367188 0.0507812 -3.757812 0.03125 -4.15625 C 0.03125 -4.300781 0.0351562 -4.570312 0.046875 -4.96875 C 0.0546875 -5.375 0.0859375 -5.804688 0.140625 -6.265625 C 0.191406 -6.722656 0.269531 -7.113281 0.375 -7.4375 C 0.476562 -7.769531 0.613281 -7.9375 0.78125 -7.9375 C 1.1875 -7.9375 1.394531 -7.800781 1.40625 -7.53125 C 1.414062 -7.269531 1.398438 -6.921875 1.359375 -6.484375 C 1.335938 -6.335938 1.328125 -6.175781 1.328125 -6 C 1.328125 -5.820312 1.328125 -5.65625 1.328125 -5.5 C 1.328125 -5.289062 1.316406 -5.15625 1.296875 -5.09375 C 1.273438 -5.03125 1.265625 -4.894531 1.265625 -4.6875 C 1.492188 -4.851562 1.703125 -5.039062 1.890625 -5.25 C 2.078125 -5.46875 2.410156 -5.578125 2.890625 -5.578125 C 3.035156 -5.578125 3.222656 -5.582031 3.453125 -5.59375 C 3.691406 -5.601562 3.945312 -5.609375 4.21875 -5.609375 C 4.675781 -5.609375 5.097656 -5.582031 5.484375 -5.53125 C 5.878906 -5.488281 6.078125 -5.363281 6.078125 -5.15625 C 6.078125 -4.945312 5.96875 -4.8125 5.75 -4.75 C 5.539062 -4.6875 5.28125 -4.65625 4.96875 -4.65625 C 4.757812 -4.65625 4.546875 -4.660156 4.328125 -4.671875 C 4.109375 -4.679688 3.914062 -4.6875 3.75 -4.6875 C 3.175781 -4.6875 2.789062 -4.65625 2.59375 -4.59375 C 2.394531 -4.53125 2.171875 -4.289062 1.921875 -3.875 C 1.773438 -3.601562 1.632812 -3.3125 1.5 -3 C 1.363281 -2.695312 1.265625 -2.359375 1.203125 -1.984375 C 1.140625 -1.710938 1.113281 -1.429688 1.125 -1.140625 C 1.132812 -0.859375 1.101562 -0.617188 1.03125 -0.421875 C 0.96875 -0.222656 0.769531 -0.125 0.4375 -0.125 Z M 0.4375 -0.125 "/></g></g></g><g fill="#fffef9" fill-opacity="1"><g transform="translate(31.996083, 27.80466)"><g><path d="M 0.4375 -0.125 C 0.226562 -0.125 0.101562 -0.253906 0.0625 -0.515625 C 0.0195312 -0.773438 0.0078125 -1.046875 0.03125 -1.328125 C 0.0507812 -1.617188 0.0625 -1.796875 0.0625 -1.859375 C 0.0390625 -2.234375 0.0351562 -2.609375 0.046875 -2.984375 C 0.0546875 -3.367188 0.0507812 -3.757812 0.03125 -4.15625 C 0.03125 -4.300781 0.0351562 -4.570312 0.046875 -4.96875 C 0.0546875 -5.375 0.0859375 -5.804688 0.140625 -6.265625 C 0.191406 -6.722656 0.269531 -7.113281 0.375 -7.4375 C 0.476562 -7.769531 0.613281 -7.9375 0.78125 -7.9375 C 1.1875 -7.9375 1.394531 -7.800781 1.40625 -7.53125 C 1.414062 -7.269531 1.398438 -6.921875 1.359375 -6.484375 C 1.335938 -6.335938 1.328125 -6.175781 1.328125 -6 C 1.328125 -5.820312 1.328125 -5.65625 1.328125 -5.5 C 1.328125 -5.289062 1.316406 -5.15625 1.296875 -5.09375 C 1.273438 -5.03125 1.265625 -4.894531 1.265625 -4.6875 C 1.492188 -4.851562 1.703125 -5.039062 1.890625 -5.25 C 2.078125 -5.46875 2.410156 -5.578125 2.890625 -5.578125 C 3.035156 -5.578125 3.222656 -5.582031 3.453125 -5.59375 C 3.691406 -5.601562 3.945312 -5.609375 4.21875 -5.609375 C 4.675781 -5.609375 5.097656 -5.582031 5.484375 -5.53125 C 5.878906 -5.488281 6.078125 -5.363281 6.078125 -5.15625 C 6.078125 -4.945312 5.96875 -4.8125 5.75 -4.75 C 5.539062 -4.6875 5.28125 -4.65625 4.96875 -4.65625 C 4.757812 -4.65625 4.546875 -4.660156 4.328125 -4.671875 C 4.109375 -4.679688 3.914062 -4.6875 3.75 -4.6875 C 3.175781 -4.6875 2.789062 -4.65625 2.59375 -4.59375 C 2.394531 -4.53125 2.171875 -4.289062 1.921875 -3.875 C 1.773438 -3.601562 1.632812 -3.3125 1.5 -3 C 1.363281 -2.695312 1.265625 -2.359375 1.203125 -1.984375 C 1.140625 -1.710938 1.113281 -1.429688 1.125 -1.140625 C 1.132812 -0.859375 1.101562 -0.617188 1.03125 -0.421875 C 0.96875 -0.222656 0.769531 -0.125 0.4375 -0.125 Z M 0.4375 -0.125 "/></g></g></g><g fill="#fffef9" fill-opacity="1"><g transform="translate(37.053264, 27.80466)"><g><path d="M 1.421875 -5.609375 C 1.816406 -5.816406 2.25 -6.101562 2.71875 -6.46875 C 3.195312 -6.832031 3.457031 -7.257812 3.5 -7.75 C 3.238281 -7.71875 2.957031 -7.578125 2.65625 -7.328125 C 2.351562 -7.078125 2.09375 -6.796875 1.875 -6.484375 C 1.65625 -6.171875 1.503906 -5.878906 1.421875 -5.609375 Z M 0.03125 -4.875 C 0.03125 -5.382812 0.203125 -5.941406 0.546875 -6.546875 C 0.890625 -7.148438 1.3125 -7.660156 1.8125 -8.078125 C 2.320312 -8.503906 2.828125 -8.71875 3.328125 -8.71875 C 4.003906 -8.71875 4.359375 -8.457031 4.390625 -7.9375 C 4.421875 -7.425781 4.195312 -6.867188 3.71875 -6.265625 C 3.46875 -5.992188 3.09375 -5.679688 2.59375 -5.328125 C 2.101562 -4.984375 1.617188 -4.789062 1.140625 -4.75 C 1.140625 -4.414062 1.148438 -4.117188 1.171875 -3.859375 C 1.191406 -3.597656 1.335938 -3.335938 1.609375 -3.078125 C 1.878906 -2.804688 2.222656 -2.671875 2.640625 -2.671875 C 3.171875 -2.671875 3.726562 -2.835938 4.3125 -3.171875 C 4.894531 -3.515625 5.335938 -3.800781 5.640625 -4.03125 C 5.765625 -4.132812 5.863281 -4.21875 5.9375 -4.28125 C 6.007812 -4.34375 6.097656 -4.414062 6.203125 -4.5 C 6.640625 -4.832031 6.914062 -5.078125 7.03125 -5.234375 C 7.144531 -5.390625 7.242188 -5.488281 7.328125 -5.53125 C 7.410156 -5.582031 7.601562 -5.609375 7.90625 -5.609375 C 7.945312 -5.390625 7.960938 -5.238281 7.953125 -5.15625 C 7.941406 -5.070312 7.867188 -4.945312 7.734375 -4.78125 C 7.359375 -4.40625 6.882812 -3.976562 6.3125 -3.5 C 5.75 -3.03125 5.140625 -2.617188 4.484375 -2.265625 C 3.828125 -1.910156 3.179688 -1.734375 2.546875 -1.734375 C 2.210938 -1.734375 1.894531 -1.789062 1.59375 -1.90625 C 1.289062 -2.019531 1.007812 -2.210938 0.75 -2.484375 C 0.375 -2.859375 0.160156 -3.238281 0.109375 -3.625 C 0.0546875 -4.019531 0.03125 -4.4375 0.03125 -4.875 Z M 0.03125 -4.875 "/></g></g></g><g fill="#fffef9" fill-opacity="1"><g transform="translate(43.78583, 27.80466)"><g><path d="M 0.0625 -2.390625 C 0.0625 -3.421875 0.125 -4.535156 0.25 -5.734375 C 0.375 -6.941406 0.539062 -8.132812 0.75 -9.3125 C 0.957031 -10.488281 1.179688 -11.550781 1.421875 -12.5 C 1.523438 -12.8125 1.628906 -13.160156 1.734375 -13.546875 C 1.835938 -13.929688 1.972656 -14.257812 2.140625 -14.53125 C 2.304688 -14.8125 2.523438 -14.953125 2.796875 -14.953125 C 3.046875 -14.953125 3.195312 -14.859375 3.25 -14.671875 C 3.3125 -14.492188 3.316406 -14.273438 3.265625 -14.015625 C 3.222656 -13.753906 3.160156 -13.515625 3.078125 -13.296875 C 2.992188 -13.078125 2.941406 -12.925781 2.921875 -12.84375 C 2.753906 -12.226562 2.5625 -11.382812 2.34375 -10.3125 C 2.125 -9.25 1.914062 -8.085938 1.71875 -6.828125 C 1.519531 -5.566406 1.367188 -4.3125 1.265625 -3.0625 C 1.160156 -1.820312 1.140625 -0.703125 1.203125 0.296875 C 1.265625 1.296875 1.429688 2.066406 1.703125 2.609375 C 2.054688 2.421875 2.347656 2.140625 2.578125 1.765625 C 2.804688 1.390625 3.003906 1.03125 3.171875 0.6875 C 3.640625 -0.226562 4.101562 -1.191406 4.5625 -2.203125 C 5.019531 -3.210938 5.492188 -4.164062 5.984375 -5.0625 C 6.148438 -5.382812 6.328125 -5.546875 6.515625 -5.546875 C 6.597656 -5.546875 6.664062 -5.507812 6.71875 -5.4375 C 6.769531 -5.375 6.796875 -5.300781 6.796875 -5.21875 C 6.796875 -5.15625 6.710938 -4.957031 6.546875 -4.625 C 6.378906 -4.289062 6.207031 -3.945312 6.03125 -3.59375 C 5.851562 -3.25 5.734375 -3.023438 5.671875 -2.921875 C 5.472656 -2.484375 5.242188 -1.972656 4.984375 -1.390625 C 4.722656 -0.816406 4.46875 -0.253906 4.21875 0.296875 C 3.96875 0.859375 3.726562 1.335938 3.5 1.734375 C 3.394531 1.898438 3.253906 2.125 3.078125 2.40625 C 2.910156 2.6875 2.722656 2.925781 2.515625 3.125 C 2.304688 3.332031 2.066406 3.4375 1.796875 3.4375 C 1.378906 3.4375 1.050781 3.226562 0.8125 2.8125 C 0.582031 2.40625 0.414062 1.890625 0.3125 1.265625 C 0.207031 0.648438 0.140625 0.015625 0.109375 -0.640625 C 0.078125 -1.304688 0.0625 -1.890625 0.0625 -2.390625 Z M 0.0625 -2.390625 "/></g></g></g><g fill="#fffef9" fill-opacity="1"><g transform="translate(49.246347, 27.80466)"><g><path d="M 0.0625 -2.390625 C 0.0625 -3.421875 0.125 -4.535156 0.25 -5.734375 C 0.375 -6.941406 0.539062 -8.132812 0.75 -9.3125 C 0.957031 -10.488281 1.179688 -11.550781 1.421875 -12.5 C 1.523438 -12.8125 1.628906 -13.160156 1.734375 -13.546875 C 1.835938 -13.929688 1.972656 -14.257812 2.140625 -14.53125 C 2.304688 -14.8125 2.523438 -14.953125 2.796875 -14.953125 C 3.046875 -14.953125 3.195312 -14.859375 3.25 -14.671875 C 3.3125 -14.492188 3.316406 -14.273438 3.265625 -14.015625 C 3.222656 -13.753906 3.160156 -13.515625 3.078125 -13.296875 C 2.992188 -13.078125 2.941406 -12.925781 2.921875 -12.84375 C 2.753906 -12.226562 2.5625 -11.382812 2.34375 -10.3125 C 2.125 -9.25 1.914062 -8.085938 1.71875 -6.828125 C 1.519531 -5.566406 1.367188 -4.3125 1.265625 -3.0625 C 1.160156 -1.820312 1.140625 -0.703125 1.203125 0.296875 C 1.265625 1.296875 1.429688 2.066406 1.703125 2.609375 C 2.054688 2.421875 2.347656 2.140625 2.578125 1.765625 C 2.804688 1.390625 3.003906 1.03125 3.171875 0.6875 C 3.640625 -0.226562 4.101562 -1.191406 4.5625 -2.203125 C 5.019531 -3.210938 5.492188 -4.164062 5.984375 -5.0625 C 6.148438 -5.382812 6.328125 -5.546875 6.515625 -5.546875 C 6.597656 -5.546875 6.664062 -5.507812 6.71875 -5.4375 C 6.769531 -5.375 6.796875 -5.300781 6.796875 -5.21875 C 6.796875 -5.15625 6.710938 -4.957031 6.546875 -4.625 C 6.378906 -4.289062 6.207031 -3.945312 6.03125 -3.59375 C 5.851562 -3.25 5.734375 -3.023438 5.671875 -2.921875 C 5.472656 -2.484375 5.242188 -1.972656 4.984375 -1.390625 C 4.722656 -0.816406 4.46875 -0.253906 4.21875 0.296875 C 3.96875 0.859375 3.726562 1.335938 3.5 1.734375 C 3.394531 1.898438 3.253906 2.125 3.078125 2.40625 C 2.910156 2.6875 2.722656 2.925781 2.515625 3.125 C 2.304688 3.332031 2.066406 3.4375 1.796875 3.4375 C 1.378906 3.4375 1.050781 3.226562 0.8125 2.8125 C 0.582031 2.40625 0.414062 1.890625 0.3125 1.265625 C 0.207031 0.648438 0.140625 0.015625 0.109375 -0.640625 C 0.078125 -1.304688 0.0625 -1.890625 0.0625 -2.390625 Z M 0.0625 -2.390625 "/></g></g></g><g fill="#fffef9" fill-opacity="1"><g transform="translate(54.70686, 27.80466)"><g><path d="M 1.421875 -5.609375 C 1.816406 -5.816406 2.25 -6.101562 2.71875 -6.46875 C 3.195312 -6.832031 3.457031 -7.257812 3.5 -7.75 C 3.238281 -7.71875 2.957031 -7.578125 2.65625 -7.328125 C 2.351562 -7.078125 2.09375 -6.796875 1.875 -6.484375 C 1.65625 -6.171875 1.503906 -5.878906 1.421875 -5.609375 Z M 0.03125 -4.875 C 0.03125 -5.382812 0.203125 -5.941406 0.546875 -6.546875 C 0.890625 -7.148438 1.3125 -7.660156 1.8125 -8.078125 C 2.320312 -8.503906 2.828125 -8.71875 3.328125 -8.71875 C 4.003906 -8.71875 4.359375 -8.457031 4.390625 -7.9375 C 4.421875 -7.425781 4.195312 -6.867188 3.71875 -6.265625 C 3.46875 -5.992188 3.09375 -5.679688 2.59375 -5.328125 C 2.101562 -4.984375 1.617188 -4.789062 1.140625 -4.75 C 1.140625 -4.414062 1.148438 -4.117188 1.171875 -3.859375 C 1.191406 -3.597656 1.335938 -3.335938 1.609375 -3.078125 C 1.878906 -2.804688 2.222656 -2.671875 2.640625 -2.671875 C 3.171875 -2.671875 3.726562 -2.835938 4.3125 -3.171875 C 4.894531 -3.515625 5.335938 -3.800781 5.640625 -4.03125 C 5.765625 -4.132812 5.863281 -4.21875 5.9375 -4.28125 C 6.007812 -4.34375 6.097656 -4.414062 6.203125 -4.5 C 6.640625 -4.832031 6.914062 -5.078125 7.03125 -5.234375 C 7.144531 -5.390625 7.242188 -5.488281 7.328125 -5.53125 C 7.410156 -5.582031 7.601562 -5.609375 7.90625 -5.609375 C 7.945312 -5.390625 7.960938 -5.238281 7.953125 -5.15625 C 7.941406 -5.070312 7.867188 -4.945312 7.734375 -4.78125 C 7.359375 -4.40625 6.882812 -3.976562 6.3125 -3.5 C 5.75 -3.03125 5.140625 -2.617188 4.484375 -2.265625 C 3.828125 -1.910156 3.179688 -1.734375 2.546875 -1.734375 C 2.210938 -1.734375 1.894531 -1.789062 1.59375 -1.90625 C 1.289062 -2.019531 1.007812 -2.210938 0.75 -2.484375 C 0.375 -2.859375 0.160156 -3.238281 0.109375 -3.625 C 0.0546875 -4.019531 0.03125 -4.4375 0.03125 -4.875 Z M 0.03125 -4.875 "/></g></g></g><g fill="#fffef9" fill-opacity="1"><g transform="translate(61.439428, 27.80466)"><g><path d="M 0.375 5.125 C 0.375 5.550781 0.507812 5.765625 0.78125 5.765625 C 0.925781 5.765625 1.078125 5.710938 1.234375 5.609375 C 1.398438 5.515625 1.535156 5.425781 1.640625 5.34375 C 2.054688 5.03125 2.425781 4.554688 2.75 3.921875 C 3.070312 3.296875 3.300781 2.722656 3.4375 2.203125 C 3.539062 1.847656 3.597656 1.488281 3.609375 1.125 C 3.617188 0.769531 3.625 0.375 3.625 -0.0625 C 3.382812 0.0820312 3.101562 0.332031 2.78125 0.6875 C 2.457031 1.050781 2.203125 1.347656 2.015625 1.578125 C 1.640625 2.035156 1.269531 2.582031 0.90625 3.21875 C 0.550781 3.863281 0.375 4.5 0.375 5.125 Z M 0.09375 -5.03125 C 0.09375 -5.5625 0.238281 -6.039062 0.53125 -6.46875 C 0.820312 -6.894531 1.164062 -7.234375 1.5625 -7.484375 C 1.96875 -7.742188 2.316406 -7.875 2.609375 -7.875 C 2.835938 -7.875 3.007812 -7.789062 3.125 -7.625 C 3.238281 -7.46875 3.242188 -7.191406 3.140625 -6.796875 C 2.890625 -6.734375 2.710938 -6.695312 2.609375 -6.6875 C 2.503906 -6.675781 2.421875 -6.644531 2.359375 -6.59375 C 2.296875 -6.539062 2.179688 -6.421875 2.015625 -6.234375 C 1.597656 -5.773438 1.40625 -5.40625 1.4375 -5.125 C 1.46875 -4.851562 1.632812 -4.597656 1.9375 -4.359375 C 2.238281 -4.117188 2.609375 -3.820312 3.046875 -3.46875 C 3.492188 -3.125 3.914062 -2.648438 4.3125 -2.046875 C 4.769531 -2.359375 5.234375 -2.722656 5.703125 -3.140625 L 8.59375 -5.15625 C 8.863281 -5.34375 9.097656 -5.46875 9.296875 -5.53125 C 9.492188 -5.601562 9.664062 -5.640625 9.8125 -5.640625 C 10.050781 -5.640625 10.148438 -5.535156 10.109375 -5.328125 C 10.066406 -5.128906 9.875 -4.925781 9.53125 -4.71875 L 7.421875 -3.265625 C 7.335938 -3.222656 7.160156 -3.101562 6.890625 -2.90625 C 6.617188 -2.707031 6.320312 -2.488281 6 -2.25 C 5.6875 -2.007812 5.414062 -1.785156 5.1875 -1.578125 C 4.957031 -1.367188 4.832031 -1.234375 4.8125 -1.171875 C 4.789062 -1.078125 4.820312 -0.882812 4.90625 -0.59375 C 4.988281 -0.300781 5.046875 0.0703125 5.078125 0.53125 C 5.109375 1 5.046875 1.570312 4.890625 2.25 C 4.734375 2.925781 4.394531 3.707031 3.875 4.59375 C 3.425781 5.351562 2.929688 5.914062 2.390625 6.28125 C 1.847656 6.644531 1.34375 6.828125 0.875 6.828125 C 0.4375 6.828125 0.078125 6.679688 -0.203125 6.390625 C -0.484375 6.097656 -0.625 5.675781 -0.625 5.125 C -0.625 4.414062 -0.453125 3.726562 -0.109375 3.0625 C 0.234375 2.40625 0.640625 1.796875 1.109375 1.234375 C 1.585938 0.679688 2.03125 0.203125 2.4375 -0.203125 C 2.84375 -0.609375 3.109375 -0.90625 3.234375 -1.09375 C 2.984375 -1.519531 2.679688 -1.894531 2.328125 -2.21875 C 1.972656 -2.539062 1.625 -2.832031 1.28125 -3.09375 C 0.945312 -3.363281 0.664062 -3.648438 0.4375 -3.953125 C 0.207031 -4.253906 0.09375 -4.613281 0.09375 -5.03125 Z M 0.09375 -5.03125 "/></g></g></g></g></g><g transform="matrix(1, 0, 0, 1, 21, 36)"><g clip-path="url(#4f2f977866)"><g clip-path="url(#9ad43286f0)"><path fill="#191a1b" d="M 41.386719 4.382812 C 40.804688 5.148438 40.183594 5.878906 39.515625 6.574219 C 38.851562 7.269531 38.148438 7.921875 37.40625 8.535156 C 36.667969 9.152344 35.894531 9.71875 35.085938 10.246094 C 34.28125 10.769531 33.445312 11.25 32.585938 11.679688 C 31.726562 12.109375 30.84375 12.488281 29.9375 12.816406 C 29.035156 13.144531 28.113281 13.417969 27.175781 13.640625 C 26.242188 13.863281 25.296875 14.03125 24.339844 14.148438 C 23.382812 14.261719 22.425781 14.320312 21.464844 14.324219 C 20.5 14.328125 19.542969 14.277344 18.585938 14.171875 C 17.628906 14.066406 16.683594 13.90625 15.746094 13.691406 C 14.804688 13.476562 13.882812 13.210938 12.976562 12.890625 C 12.070312 12.570312 11.183594 12.199219 10.320312 11.777344 C 9.453125 11.355469 8.617188 10.886719 7.804688 10.367188 C 6.996094 9.847656 6.214844 9.285156 5.46875 8.679688 C 4.722656 8.070312 4.015625 7.421875 3.34375 6.734375 C 2.671875 6.046875 2.039062 5.320312 1.453125 4.558594 L 5.886719 1.128906 C 6.34375 1.722656 6.832031 2.285156 7.355469 2.820312 C 7.875 3.355469 8.429688 3.859375 9.007812 4.332031 C 9.585938 4.804688 10.191406 5.242188 10.824219 5.644531 C 11.453125 6.046875 12.105469 6.410156 12.777344 6.738281 C 13.449219 7.066406 14.136719 7.355469 14.84375 7.605469 C 15.546875 7.855469 16.265625 8.0625 16.992188 8.230469 C 17.722656 8.394531 18.457031 8.519531 19.203125 8.601562 C 19.945312 8.683594 20.691406 8.722656 21.4375 8.71875 C 22.1875 8.71875 22.933594 8.671875 23.675781 8.582031 C 24.417969 8.492188 25.152344 8.363281 25.878906 8.191406 C 26.605469 8.015625 27.324219 7.800781 28.023438 7.546875 C 28.726562 7.292969 29.414062 6.996094 30.082031 6.664062 C 30.753906 6.328125 31.402344 5.957031 32.027344 5.550781 C 32.652344 5.140625 33.253906 4.699219 33.832031 4.222656 C 34.40625 3.746094 34.953125 3.234375 35.46875 2.695312 C 35.988281 2.15625 36.472656 1.589844 36.925781 0.992188 Z M 41.386719 4.382812 " fill-opacity="1" fill-rule="nonzero"/></g><g fill="#fffef9" fill-opacity="1"><g transform="translate(3.113858, 4.397652)"><g><path d="M 2.21875 -1.609375 L 2.984375 -0.8125 C 3.265625 -0.519531 3.398438 -0.191406 3.390625 0.171875 C 3.390625 0.546875 3.242188 0.867188 2.953125 1.140625 C 2.671875 1.410156 2.347656 1.535156 1.984375 1.515625 C 1.617188 1.503906 1.289062 1.347656 1 1.046875 L 0.25 0.265625 Z M 2.21875 -1 L 0.859375 0.3125 L 1.328125 0.796875 C 1.503906 0.984375 1.710938 1.078125 1.953125 1.078125 C 2.203125 1.085938 2.425781 0.992188 2.625 0.796875 C 2.832031 0.609375 2.9375 0.382812 2.9375 0.125 C 2.9375 -0.125 2.84375 -0.347656 2.65625 -0.546875 Z M 2.21875 -1 "/></g></g></g><g fill="#fffef9" fill-opacity="1"><g transform="translate(6.853996, 7.949384)"><g><path d="M 3.1875 -0.59375 L 1.96875 -1.4375 L 1.546875 -0.84375 L 2.640625 -0.09375 L 2.421875 0.25 L 1.328125 -0.5 L 0.90625 0.125 L 2.171875 1 L 1.9375 1.328125 L 0.296875 0.203125 L 1.828125 -2.046875 L 3.421875 -0.953125 Z M 3.1875 -0.59375 "/></g></g></g><g fill="#fffef9" fill-opacity="1"><g transform="translate(10.841976, 10.416179)"><g><path d="M 1.4375 0.609375 L 1.015625 0.421875 L 1.0625 -2.5 L 1.515625 -2.3125 L 1.421875 0.046875 L 3.0625 -1.65625 L 3.5 -1.46875 Z M 1.4375 0.609375 "/></g></g></g><g fill="#fffef9" fill-opacity="1"><g transform="translate(15.368633, 12.072502)"><g><path d="M 2.703125 -1.796875 L 1.25 -2.09375 L 1.09375 -1.375 L 2.390625 -1.109375 L 2.3125 -0.71875 L 1.015625 -0.984375 L 0.875 -0.25 L 2.375 0.046875 L 2.296875 0.453125 L 0.359375 0.0625 L 0.890625 -2.609375 L 2.78125 -2.21875 Z M 2.703125 -1.796875 "/></g></g></g><g fill="#fffef9" fill-opacity="1"><g transform="translate(19.988197, 12.760101)"><g><path d="M 0.8125 -0.421875 L 1.984375 -0.40625 L 1.984375 0.015625 L 0.359375 0 L 0.375 -2.71875 L 0.828125 -2.71875 Z M 0.8125 -0.421875 "/></g></g></g><g fill="#fffef9" fill-opacity="1"><g transform="translate(24.205982, 12.62846)"><g><path d="M 0.078125 -2.390625 C 0.304688 -2.703125 0.613281 -2.894531 1 -2.96875 C 1.394531 -3.050781 1.753906 -2.988281 2.078125 -2.78125 C 2.398438 -2.582031 2.597656 -2.289062 2.671875 -1.90625 C 2.742188 -1.53125 2.671875 -1.1875 2.453125 -0.875 C 2.234375 -0.5625 1.925781 -0.363281 1.53125 -0.28125 C 1.144531 -0.207031 0.785156 -0.273438 0.453125 -0.484375 C 0.128906 -0.691406 -0.0664062 -0.984375 -0.140625 -1.359375 C -0.210938 -1.742188 -0.140625 -2.085938 0.078125 -2.390625 Z M 1.09375 -2.5625 C 0.832031 -2.507812 0.625 -2.375 0.46875 -2.15625 C 0.3125 -1.945312 0.257812 -1.707031 0.3125 -1.4375 C 0.363281 -1.175781 0.503906 -0.972656 0.734375 -0.828125 C 0.960938 -0.679688 1.207031 -0.632812 1.46875 -0.6875 C 1.726562 -0.738281 1.929688 -0.875 2.078125 -1.09375 C 2.222656 -1.3125 2.269531 -1.550781 2.21875 -1.8125 C 2.164062 -2.082031 2.03125 -2.285156 1.8125 -2.421875 C 1.59375 -2.566406 1.351562 -2.613281 1.09375 -2.5625 Z M 1.09375 -2.5625 "/></g></g></g><g fill="#fffef9" fill-opacity="1"><g transform="translate(29.348607, 11.353065)"><g><path d="M -0.75 -2.640625 L 0.234375 -3.0625 C 0.554688 -3.207031 0.832031 -3.238281 1.0625 -3.15625 C 1.300781 -3.082031 1.484375 -2.910156 1.609375 -2.640625 C 1.722656 -2.359375 1.726562 -2.101562 1.625 -1.875 C 1.519531 -1.644531 1.304688 -1.457031 0.984375 -1.3125 L 0.421875 -1.078125 L 0.75 -0.328125 L 0.328125 -0.140625 Z M -0.15625 -2.4375 L 0.265625 -1.46875 L 0.828125 -1.703125 C 1.222656 -1.878906 1.347656 -2.132812 1.203125 -2.46875 C 1.066406 -2.78125 0.800781 -2.847656 0.40625 -2.671875 Z M -0.15625 -2.4375 "/></g></g></g><g fill="#fffef9" fill-opacity="1"><g transform="translate(33.620759, 9.270737)"><g><path d="M 0.578125 -3.203125 L -0.640625 -2.359375 L -0.21875 -1.75 L 0.859375 -2.5 L 1.09375 -2.171875 L 0.015625 -1.421875 L 0.4375 -0.796875 L 1.6875 -1.671875 L 1.921875 -1.34375 L 0.296875 -0.203125 L -1.25 -2.4375 L 0.34375 -3.546875 Z M 0.578125 -3.203125 "/></g></g></g><g fill="#fffef9" fill-opacity="1"><g transform="translate(37.352067, 6.424328)"><g><path d="M 1.421875 -1.515625 L 0.484375 -1.703125 C 0.472656 -1.691406 0.445312 -1.664062 0.40625 -1.625 L -0.03125 -1.15625 L 0.5625 -0.59375 L 0.25 -0.265625 L -1.71875 -2.140625 L -0.96875 -2.9375 C -0.726562 -3.175781 -0.484375 -3.304688 -0.234375 -3.328125 C 0.00390625 -3.359375 0.234375 -3.269531 0.453125 -3.0625 C 0.609375 -2.914062 0.707031 -2.757812 0.75 -2.59375 C 0.800781 -2.425781 0.785156 -2.25 0.703125 -2.0625 L 1.78125 -1.875 Z M -0.328125 -1.4375 L 0.109375 -1.90625 C 0.410156 -2.21875 0.425781 -2.5 0.15625 -2.75 C -0.09375 -2.988281 -0.367188 -2.953125 -0.671875 -2.640625 L -1.109375 -2.171875 Z M -0.328125 -1.4375 "/></g></g></g></g></g></svg>