<svg xmlns="http://www.w3.org/2000/svg" xmlns:xlink="http://www.w3.org/1999/xlink" width="512" zoomAndPan="magnify" viewBox="0 0 384 383.999986" height="512" preserveAspectRatio="xMidYMid meet" version="1.0"><defs><g/><clipPath id="5ea5e300e9"><path d="M 88.371094 62.25 L 339.621094 62.25 L 339.621094 313.5 L 88.371094 313.5 Z M 88.371094 62.25 " clip-rule="nonzero"/></clipPath><clipPath id="7d99fd0664"><rect x="0" width="381" y="0" height="278"/></clipPath><clipPath id="4ea4f509d5"><path d="M 0.121094 0.761719 L 218 0.761719 L 218 75 L 0.121094 75 Z M 0.121094 0.761719 " clip-rule="nonzero"/></clipPath><clipPath id="de95ebc8ab"><rect x="0" width="219" y="0" height="76"/></clipPath></defs><g clip-path="url(#5ea5e300e9)"><path fill="#fffef9" d="M 213.96875 313.441406 C 144.578125 313.441406 88.371094 256.847656 88.371094 187.847656 C 88.371094 118.847656 144.578125 62.25 213.96875 62.25 C 283.355469 62.25 339.5625 118.457031 339.5625 187.847656 C 339.5625 257.234375 282.96875 313.441406 213.96875 313.441406 Z M 213.96875 70.003906 C 148.84375 70.003906 96.125 122.722656 96.125 187.847656 C 96.125 252.96875 148.84375 305.6875 213.96875 305.6875 C 279.089844 305.6875 331.8125 252.96875 331.8125 187.847656 C 331.8125 122.722656 278.703125 70.003906 213.96875 70.003906 Z M 213.96875 70.003906 " fill-opacity="1" fill-rule="nonzero"/></g><g transform="matrix(1, 0, 0, 1, 3, 34)"><g clip-path="url(#7d99fd0664)"><g fill="#fffef9" fill-opacity="1"><g transform="translate(1.940845, 159.78448)"><g><path d="M 80.035156 6.21875 L 81.839844 -10.847656 L 85.609375 -40.089844 C 86.816406 -49.246094 88.101562 -58.207031 89.472656 -66.972656 C 90.847656 -75.769531 92.441406 -84.78125 94.253906 -94.011719 C 96.0625 -103.222656 98.171875 -113.140625 100.582031 -123.769531 L 106.558594 -122.414062 L 106.558594 -116.285156 C 104.925781 -116.285156 102.582031 -116.039062 99.527344 -115.546875 C 96.199219 -115.007812 92.515625 -114.363281 88.480469 -113.609375 C 84.472656 -112.863281 80.464844 -112.03125 76.453125 -111.125 L 65.257812 -108.589844 L 57.425781 -106.796875 L 56.058594 -112.769531 L 57.660156 -106.855469 L 45.894531 -103.667969 C 42.144531 -102.648438 38.339844 -101.550781 34.476562 -100.371094 C 32.65625 -99.835938 30.308594 -99.089844 27.433594 -98.128906 C 24.71875 -97.226562 22.1875 -96.222656 19.839844 -95.125 C 18.917969 -94.695312 18.1875 -94.28125 17.648438 -93.886719 C 17.46875 -93.753906 17.324219 -93.636719 17.21875 -93.53125 L 17.195312 -93.515625 L 12.09375 -96.917969 L 17.953125 -98.71875 L 17.9375 -98.714844 C 17.898438 -98.765625 17.867188 -98.800781 17.835938 -98.820312 C 19.222656 -97.9375 20.542969 -96.992188 21.808594 -95.984375 L 17.976562 -91.195312 L 21.582031 -96.15625 L 40.703125 -82.261719 C 49.957031 -75.292969 58.089844 -67.625 65.089844 -59.257812 C 72.222656 -50.734375 77.925781 -40.984375 82.199219 -30.007812 C 85.015625 -23.023438 86.949219 -17.371094 88 -13.050781 C 89.027344 -8.835938 89.742188 -5.324219 90.152344 -2.519531 C 90.488281 -0.207031 90.996094 2.050781 91.667969 4.261719 L 85.804688 6.046875 L 91.496094 3.769531 L 91.820312 4.589844 L 86.128906 6.863281 Z M 92.226562 7.507812 L 80.441406 9.140625 L 80.015625 8.082031 L 79.941406 7.832031 C 79.085938 5.03125 78.449219 2.171875 78.023438 -0.75 C 77.667969 -3.175781 77.023438 -6.308594 76.089844 -10.15625 C 75.179688 -13.898438 73.40625 -19.035156 70.777344 -25.558594 C 66.988281 -35.285156 61.960938 -43.894531 55.6875 -51.390625 C 49.289062 -59.039062 41.890625 -66.023438 33.496094 -72.347656 L 14.261719 -86.320312 L 14.148438 -86.410156 C 13.230469 -87.144531 12.265625 -87.832031 11.253906 -88.476562 C 8.789062 -90.046875 7.113281 -92.261719 6.234375 -95.113281 L 5.378906 -97.894531 L 6.996094 -100.316406 C 8.5 -102.574219 11.050781 -104.542969 14.644531 -106.226562 C 17.417969 -107.527344 20.390625 -108.703125 23.558594 -109.757812 C 26.570312 -110.761719 29.015625 -111.542969 30.894531 -112.09375 C 34.878906 -113.3125 38.8125 -114.445312 42.6875 -115.5 L 54.570312 -118.71875 L 62.550781 -120.546875 L 73.742188 -123.078125 C 77.90625 -124.023438 82.070312 -124.882812 86.230469 -125.660156 C 90.367188 -126.433594 94.148438 -127.09375 97.574219 -127.648438 C 101.277344 -128.242188 104.269531 -128.542969 106.558594 -128.542969 L 114.234375 -128.542969 L 112.539062 -121.058594 C 110.152344 -110.546875 108.066406 -100.742188 106.28125 -91.648438 C 104.5 -82.574219 102.933594 -73.71875 101.582031 -65.082031 C 100.230469 -56.414062 98.957031 -47.5625 97.765625 -38.523438 L 94.007812 -9.351562 L 87.929688 -10.132812 L 94.023438 -9.488281 Z M 0.410156 -98.0625 C 0.410156 -101.003906 1.515625 -103.636719 3.734375 -105.964844 C 5.125 -107.425781 6.679688 -108.742188 8.402344 -109.914062 C 9.828125 -110.882812 11.011719 -111.660156 11.949219 -112.246094 L 12.371094 -112.511719 L 25.109375 -117.847656 L 25.296875 -117.910156 C 38.152344 -122.34375 51.253906 -126.054688 64.605469 -129.046875 C 77.960938 -132.039062 91.347656 -134.257812 104.761719 -135.699219 C 105.257812 -135.761719 105.621094 -135.824219 105.855469 -135.890625 C 105.363281 -135.75 104.832031 -135.398438 104.269531 -134.835938 C 104.09375 -134.660156 103.933594 -134.402344 103.785156 -134.0625 C 104.5625 -135.867188 105.902344 -137.125 107.8125 -137.828125 C 108.753906 -138.175781 109.808594 -138.347656 110.972656 -138.347656 C 112.007812 -138.347656 112.863281 -138.304688 113.539062 -138.210938 C 116.09375 -137.871094 117.882812 -136.679688 118.90625 -134.632812 C 118.945312 -134.554688 119.003906 -134.449219 119.089844 -134.308594 C 118.480469 -135.324219 117.664062 -136.066406 116.640625 -136.539062 C 116.378906 -136.65625 116.144531 -136.742188 115.9375 -136.789062 C 116.058594 -136.761719 116.347656 -136.730469 116.804688 -136.699219 L 116.367188 -130.585938 L 116.367188 -136.714844 L 118.980469 -136.714844 C 120.671875 -136.714844 122.523438 -136.742188 124.539062 -136.792969 C 126.664062 -136.847656 128.679688 -136.878906 130.585938 -136.878906 L 133.84375 -136.878906 L 140.453125 -136.191406 C 143.609375 -135.859375 147.335938 -135.417969 151.628906 -134.867188 C 155.941406 -134.3125 160.359375 -133.679688 164.886719 -132.960938 C 169.484375 -132.230469 173.78125 -131.417969 177.777344 -130.515625 C 181.976562 -129.570312 185.433594 -128.542969 188.148438 -127.433594 C 193.082031 -125.414062 195.550781 -122.433594 195.550781 -118.492188 C 195.550781 -116.359375 195.074219 -114.554688 194.117188 -113.078125 C 193.375 -111.933594 192.410156 -111.050781 191.21875 -110.4375 C 190.113281 -109.867188 188.914062 -109.582031 187.625 -109.582031 C 186.289062 -109.582031 184.773438 -109.824219 183.078125 -110.308594 C 182 -110.617188 180.625 -110.980469 178.945312 -111.402344 C 175.832031 -112.125 172.113281 -112.890625 167.792969 -113.691406 C 163.476562 -114.488281 158.96875 -115.210938 154.273438 -115.851562 C 149.574219 -116.492188 145.097656 -116.996094 140.835938 -117.371094 C 136.65625 -117.734375 133.128906 -117.917969 130.257812 -117.917969 C 127.625 -117.917969 125.289062 -117.820312 123.253906 -117.621094 C 120.820312 -117.382812 117.980469 -117.265625 114.730469 -117.265625 L 114.730469 -123.394531 L 120.546875 -121.457031 C 120.507812 -121.34375 120.269531 -120.253906 119.824219 -118.1875 C 119.339844 -115.917969 118.800781 -113.324219 118.203125 -110.402344 C 117.613281 -107.511719 117.105469 -104.863281 116.679688 -102.464844 C 116.257812 -100.082031 115.996094 -98.542969 115.894531 -97.847656 L 115.882812 -97.746094 L 107.039062 -47.796875 C 105.644531 -38.902344 104.4375 -30.265625 103.410156 -21.890625 C 102.371094 -13.414062 101.25 -4.804688 100.046875 3.941406 C 99.738281 6.21875 99.503906 8.332031 99.351562 10.289062 C 99.179688 12.460938 98.921875 14.855469 98.582031 17.464844 L 92.503906 16.671875 L 98.601562 17.289062 L 93.207031 70.40625 C 93.105469 71.421875 93.003906 72.714844 92.898438 74.28125 C 92.75 76.515625 92.324219 78.566406 91.625 80.4375 C 90.972656 82.175781 89.976562 83.566406 88.636719 84.601562 C 87.109375 85.785156 85.347656 86.375 83.351562 86.375 C 80.820312 86.375 78.777344 85.472656 77.226562 83.664062 C 77.304688 83.753906 77.375 83.824219 77.445312 83.878906 L 77.421875 83.867188 L 74.234375 81.957031 L 77.234375 31.832031 L 83.351562 32.195312 L 77.222656 32.195312 C 77.222656 27.738281 76.9375 22.957031 76.363281 17.84375 C 75.78125 12.671875 74.988281 7.523438 73.988281 2.402344 C 72.984375 -2.71875 71.90625 -7.320312 70.753906 -11.410156 C 69.195312 -17.230469 67.398438 -22.351562 65.363281 -26.777344 C 63.308594 -31.242188 60.976562 -35.46875 58.363281 -39.464844 C 55.695312 -43.550781 52.675781 -47.695312 49.3125 -51.902344 C 47.246094 -54.554688 44.742188 -57.136719 41.792969 -59.640625 C 38.617188 -62.339844 35.339844 -64.957031 31.953125 -67.5 C 28.484375 -70.097656 25.347656 -72.425781 22.535156 -74.480469 L 7.714844 -85.066406 C 6.0625 -86.265625 4.578125 -87.671875 3.265625 -89.277344 C 1.359375 -91.605469 0.410156 -94.53125 0.410156 -98.0625 Z M 12.667969 -98.0625 C 12.667969 -97.625 12.703125 -97.285156 12.777344 -97.042969 L 12.75 -97.039062 C 13.398438 -96.25 14.09375 -95.582031 14.839844 -95.039062 L 29.765625 -84.378906 C 32.621094 -82.292969 35.800781 -79.933594 39.304688 -77.304688 C 42.894531 -74.617188 46.367188 -71.839844 49.730469 -68.980469 C 53.320312 -65.929688 56.371094 -62.789062 58.882812 -59.558594 C 62.492188 -55.050781 65.738281 -50.585938 68.625 -46.175781 C 71.570312 -41.671875 74.195312 -36.910156 76.5 -31.898438 C 78.824219 -26.84375 80.839844 -21.121094 82.550781 -14.738281 C 83.792969 -10.328125 84.949219 -5.398438 86.015625 0.046875 C 87.082031 5.496094 87.925781 10.972656 88.542969 16.476562 C 89.167969 22.042969 89.480469 27.28125 89.480469 32.195312 L 89.480469 32.378906 L 86.691406 78.980469 L 80.574219 78.613281 L 83.726562 73.355469 C 84.839844 74.023438 85.777344 74.800781 86.535156 75.6875 C 85.636719 74.640625 84.578125 74.117188 83.351562 74.117188 C 82.554688 74.117188 81.816406 74.382812 81.132812 74.910156 C 80.636719 75.292969 80.308594 75.703125 80.148438 76.132812 C 80.425781 75.390625 80.601562 74.5 80.667969 73.464844 C 80.78125 71.761719 80.898438 70.332031 81.011719 69.167969 L 86.414062 15.964844 L 86.425781 15.878906 C 86.742188 13.476562 86.976562 11.289062 87.128906 9.324219 C 87.300781 7.136719 87.558594 4.785156 87.902344 2.269531 C 89.097656 -6.417969 90.210938 -14.96875 91.242188 -23.382812 C 92.285156 -31.894531 93.527344 -40.746094 94.96875 -49.9375 L 103.792969 -99.785156 L 109.828125 -98.714844 L 103.761719 -99.582031 C 103.878906 -100.414062 104.164062 -102.089844 104.613281 -104.609375 C 105.054688 -107.109375 105.582031 -109.859375 106.191406 -112.851562 C 106.796875 -115.8125 107.34375 -118.445312 107.839844 -120.753906 C 108.378906 -123.265625 108.738281 -124.789062 108.917969 -125.332031 L 110.3125 -129.523438 L 114.730469 -129.523438 C 117.582031 -129.523438 120.027344 -129.621094 122.0625 -129.820312 C 124.496094 -130.058594 127.226562 -130.175781 130.257812 -130.175781 C 133.488281 -130.175781 137.371094 -129.976562 141.90625 -129.582031 C 146.363281 -129.191406 151.035156 -128.664062 155.929688 -127.996094 C 160.820312 -127.328125 165.519531 -126.578125 170.027344 -125.742188 C 174.53125 -124.910156 178.496094 -124.09375 181.917969 -123.292969 C 183.730469 -122.839844 185.238281 -122.441406 186.449219 -122.097656 C 187.042969 -121.925781 187.433594 -121.839844 187.625 -121.839844 C 186.933594 -121.839844 186.257812 -121.671875 185.605469 -121.335938 C 184.859375 -120.953125 184.269531 -120.417969 183.828125 -119.738281 C 183.570312 -119.339844 183.402344 -118.949219 183.316406 -118.566406 C 183.304688 -118.5 183.292969 -118.445312 183.289062 -118.402344 C 183.292969 -118.417969 183.292969 -118.449219 183.292969 -118.492188 C 183.292969 -117.785156 183.449219 -117.128906 183.769531 -116.523438 C 183.953125 -116.171875 184.164062 -115.886719 184.398438 -115.671875 C 184.433594 -115.640625 184.457031 -115.621094 184.472656 -115.609375 C 184.441406 -115.632812 184.398438 -115.660156 184.339844 -115.691406 C 184.128906 -115.8125 183.851562 -115.945312 183.503906 -116.085938 C 181.425781 -116.9375 178.617188 -117.761719 175.082031 -118.558594 C 171.339844 -119.402344 167.304688 -120.167969 162.964844 -120.855469 C 158.558594 -121.554688 154.261719 -122.171875 150.070312 -122.707031 C 145.867188 -123.246094 142.238281 -123.675781 139.1875 -124 L 132.894531 -124.652344 L 133.527344 -130.75 L 133.527344 -124.621094 L 130.585938 -124.621094 C 128.785156 -124.621094 126.878906 -124.59375 124.863281 -124.539062 C 122.738281 -124.484375 120.777344 -124.457031 118.980469 -124.457031 L 116.148438 -124.457031 L 115.929688 -124.472656 C 114.859375 -124.546875 113.960938 -124.667969 113.238281 -124.832031 C 111.113281 -125.3125 109.558594 -126.367188 108.578125 -128.003906 C 108.332031 -128.410156 108.121094 -128.792969 107.941406 -129.152344 C 108.652344 -127.730469 109.730469 -126.765625 111.167969 -126.253906 C 111.453125 -126.15625 111.703125 -126.089844 111.917969 -126.0625 C 111.78125 -126.082031 111.464844 -126.089844 110.972656 -126.089844 C 111.265625 -126.089844 111.625 -126.167969 112.050781 -126.324219 C 113.441406 -126.835938 114.441406 -127.808594 115.054688 -129.234375 C 114.582031 -128.128906 113.875 -127.105469 112.9375 -126.167969 C 111.992188 -125.226562 110.742188 -124.53125 109.183594 -124.09375 C 108.355469 -123.859375 107.320312 -123.664062 106.070312 -123.511719 C 93.117188 -122.117188 80.1875 -119.976562 67.285156 -117.085938 C 54.378906 -114.195312 41.714844 -110.605469 29.292969 -106.324219 L 27.292969 -112.117188 L 29.660156 -106.464844 L 17.566406 -101.398438 L 15.199219 -107.050781 L 18.449219 -101.851562 C 17.644531 -101.351562 16.59375 -100.65625 15.296875 -99.777344 C 14.292969 -99.09375 13.398438 -98.339844 12.609375 -97.511719 C 12.558594 -97.457031 12.523438 -97.417969 12.503906 -97.386719 C 12.515625 -97.402344 12.527344 -97.429688 12.546875 -97.472656 C 12.625 -97.652344 12.667969 -97.847656 12.667969 -98.0625 Z M 12.667969 -98.0625 "/></g></g></g><g fill="#fffef9" fill-opacity="1"><g transform="translate(109.804928, 159.78448)"><g><path d="M 6.59375 -9.679688 C 6.4375 -9.640625 6.304688 -9.585938 6.191406 -9.519531 L 6.207031 -9.542969 C 6.496094 -9.824219 6.816406 -10.300781 7.175781 -10.972656 C 8.175781 -12.84375 8.890625 -15.035156 9.324219 -17.546875 C 9.773438 -20.15625 9.890625 -22.515625 9.675781 -24.628906 C 9.605469 -25.28125 9.507812 -25.757812 9.371094 -26.046875 C 9.417969 -25.949219 9.542969 -25.828125 9.75 -25.6875 L 13.238281 -30.726562 L 19.152344 -29.113281 C 18.765625 -27.707031 18.101562 -25.785156 17.148438 -23.347656 C 16.335938 -21.257812 15.539062 -18.953125 14.769531 -16.429688 C 14.066406 -14.132812 13.597656 -11.902344 13.367188 -9.730469 C 13.214844 -8.304688 13.332031 -7.1875 13.71875 -6.367188 L 8.171875 -3.757812 Z M 9.75 2.164062 L 4.804688 3.480469 L 2.625 -1.148438 C 1.265625 -4.035156 0.785156 -7.328125 1.179688 -11.027344 C 1.492188 -13.976562 2.113281 -16.972656 3.046875 -20.015625 C 3.910156 -22.832031 4.804688 -25.429688 5.730469 -27.804688 C 6.523438 -29.835938 7.054688 -31.347656 7.324219 -32.339844 L 9.605469 -40.695312 L 16.726562 -35.765625 C 19.691406 -33.710938 21.40625 -30.414062 21.867188 -25.871094 C 22.199219 -22.644531 22.042969 -19.175781 21.402344 -15.464844 C 20.746094 -11.65625 19.609375 -8.238281 17.992188 -5.207031 C 15.847656 -1.1875 13.101562 1.269531 9.75 2.164062 Z M -6.128906 -9.316406 C -6.128906 -11.167969 -5.785156 -13.695312 -5.09375 -16.898438 C -4.445312 -19.90625 -3.539062 -23.128906 -2.371094 -26.566406 C -1.207031 -30 0.105469 -33.265625 1.566406 -36.363281 C 3.160156 -39.746094 4.925781 -42.570312 6.859375 -44.835938 C 9.664062 -48.121094 12.824219 -49.765625 16.34375 -49.765625 C 18.089844 -49.765625 19.65625 -49.320312 21.046875 -48.425781 C 22.457031 -47.519531 23.519531 -46.261719 24.230469 -44.65625 C 25.3125 -42.226562 25.492188 -39.933594 24.773438 -37.777344 L 24.714844 -37.605469 L 24.648438 -37.4375 C 24.082031 -36.019531 23.152344 -34.722656 21.855469 -33.546875 C 21.628906 -33.339844 21.4375 -33.117188 21.28125 -32.882812 L 16.179688 -36.28125 L 22.074219 -37.964844 C 22.015625 -38.167969 21.957031 -38.3125 21.902344 -38.398438 C 21.972656 -38.292969 22.097656 -38.140625 22.277344 -37.949219 C 23.480469 -36.671875 24.640625 -35.058594 25.75 -33.113281 C 27.050781 -30.839844 27.878906 -27.96875 28.242188 -24.496094 C 28.578125 -21.253906 28.25 -17.199219 27.25 -12.332031 C 25.8125 -5.542969 23.40625 -0.320312 20.03125 3.339844 C 16.203125 7.488281 12.140625 9.5625 7.84375 9.5625 C 3.722656 9.5625 0.257812 7.675781 -2.546875 3.902344 C -4.933594 0.691406 -6.128906 -3.714844 -6.128906 -9.316406 Z M 6.128906 -9.316406 C 6.128906 -6.417969 6.515625 -4.453125 7.289062 -3.410156 C 7.578125 -3.023438 7.816406 -2.773438 8.007812 -2.660156 C 7.964844 -2.683594 7.914062 -2.695312 7.84375 -2.695312 C 8.042969 -2.695312 8.320312 -2.796875 8.679688 -2.992188 C 9.382812 -3.382812 10.164062 -4.042969 11.023438 -4.972656 C 12.875 -6.980469 14.28125 -10.253906 15.242188 -14.796875 C 15.988281 -18.429688 16.257812 -21.238281 16.050781 -23.226562 C 15.867188 -24.984375 15.550781 -26.253906 15.109375 -27.03125 C 14.476562 -28.136719 13.890625 -28.976562 13.351562 -29.546875 C 11.800781 -31.199219 10.777344 -32.882812 10.285156 -34.597656 L 9.507812 -37.324219 L 11.082031 -39.683594 C 11.796875 -40.753906 12.636719 -41.734375 13.609375 -42.617188 C 13.628906 -42.632812 13.640625 -42.644531 13.648438 -42.652344 C 13.628906 -42.632812 13.609375 -42.605469 13.585938 -42.574219 C 13.464844 -42.414062 13.359375 -42.21875 13.269531 -41.992188 L 18.957031 -39.714844 L 13.144531 -41.652344 C 12.953125 -41.082031 12.894531 -40.535156 12.964844 -40.007812 C 12.980469 -39.882812 13.003906 -39.777344 13.03125 -39.683594 L 13.03125 -39.675781 C 13.308594 -39.050781 13.773438 -38.53125 14.417969 -38.113281 C 15.046875 -37.710938 15.6875 -37.507812 16.34375 -37.507812 C 16.621094 -37.507812 16.828125 -37.550781 16.972656 -37.632812 C 16.78125 -37.519531 16.519531 -37.269531 16.183594 -36.882812 C 14.960938 -35.445312 13.78125 -33.527344 12.652344 -31.132812 C 11.390625 -28.457031 10.25 -25.621094 9.238281 -22.628906 C 8.222656 -19.636719 7.441406 -16.867188 6.890625 -14.316406 C 6.382812 -11.964844 6.128906 -10.296875 6.128906 -9.316406 Z M 6.128906 -9.316406 "/></g></g></g><g fill="#fffef9" fill-opacity="1"><g transform="translate(138.568692, 159.78448)"><g><path d="M 2.289062 5.476562 C 0 5.476562 -1.90625 4.675781 -3.441406 3.078125 C -4.652344 1.816406 -5.414062 0.214844 -5.726562 -1.726562 C -6.019531 -3.554688 -6.09375 -5.46875 -5.949219 -7.464844 C -5.851562 -8.84375 -5.800781 -9.625 -5.800781 -9.804688 L 0.328125 -9.804688 L -5.792969 -9.464844 C -5.910156 -11.597656 -5.941406 -13.753906 -5.882812 -15.9375 C -5.832031 -17.789062 -5.855469 -19.671875 -5.957031 -21.578125 L -5.964844 -21.738281 L -5.964844 -21.898438 C -5.964844 -22.714844 -5.9375 -24.210938 -5.882812 -26.386719 C -5.824219 -28.691406 -5.648438 -31.132812 -5.355469 -33.707031 C -5.039062 -36.488281 -4.550781 -38.9375 -3.890625 -41.050781 C -3.382812 -42.671875 -2.703125 -44.007812 -1.855469 -45.050781 C -0.273438 -46.996094 1.707031 -47.96875 4.085938 -47.96875 C 6.363281 -47.96875 8.28125 -47.472656 9.839844 -46.484375 C 11.003906 -45.746094 11.910156 -44.785156 12.5625 -43.601562 C 13.175781 -42.488281 13.511719 -41.273438 13.5625 -39.949219 C 13.625 -38.261719 13.535156 -36.136719 13.292969 -33.578125 L 13.277344 -33.433594 L 13.257812 -33.292969 C 13.191406 -32.816406 13.15625 -32.261719 13.15625 -31.625 L 13.15625 -28.929688 C 13.15625 -27.175781 12.996094 -25.820312 12.679688 -24.867188 C 12.785156 -25.179688 12.839844 -25.410156 12.851562 -25.558594 C 12.835938 -25.359375 12.828125 -25.066406 12.828125 -24.679688 L 6.699219 -24.679688 L 3.097656 -29.636719 C 3.90625 -30.226562 4.648438 -30.910156 5.316406 -31.691406 C 7.519531 -34.261719 10.8125 -35.546875 15.199219 -35.546875 C 15.875 -35.546875 16.792969 -35.574219 17.957031 -35.625 C 19.296875 -35.683594 20.722656 -35.710938 22.226562 -35.710938 C 24.890625 -35.710938 27.390625 -35.558594 29.726562 -35.25 C 31.691406 -34.992188 33.324219 -34.433594 34.625 -33.578125 C 35.683594 -32.882812 36.519531 -32.011719 37.128906 -30.964844 C 37.820312 -29.789062 38.164062 -28.507812 38.164062 -27.128906 C 38.164062 -25.140625 37.566406 -23.410156 36.371094 -21.929688 C 35.273438 -20.570312 33.816406 -19.632812 32 -19.113281 C 30.308594 -18.628906 28.355469 -18.386719 26.148438 -18.386719 C 24.960938 -18.386719 23.75 -18.414062 22.507812 -18.476562 C 21.460938 -18.523438 20.550781 -18.550781 19.777344 -18.550781 C 17.355469 -18.550781 15.925781 -18.480469 15.492188 -18.34375 C 15.855469 -18.457031 16.160156 -18.605469 16.414062 -18.785156 C 16.457031 -18.820312 16.496094 -18.847656 16.519531 -18.871094 C 16.511719 -18.863281 16.492188 -18.84375 16.46875 -18.816406 C 16.179688 -18.507812 15.820312 -17.992188 15.386719 -17.277344 L 10.132812 -20.429688 L 15.53125 -17.523438 C 14.847656 -16.261719 14.1875 -14.890625 13.550781 -13.417969 C 13.042969 -12.242188 12.664062 -10.917969 12.417969 -9.453125 L 12.386719 -9.265625 L 12.347656 -9.082031 C 12.140625 -8.191406 12.054688 -7.253906 12.089844 -6.265625 C 12.171875 -3.9375 11.886719 -1.878906 11.226562 -0.0859375 C 10.46875 1.972656 9.085938 3.488281 7.078125 4.46875 C 5.699219 5.140625 4.101562 5.476562 2.289062 5.476562 Z M 2.289062 -6.78125 C 2.339844 -6.78125 2.378906 -6.785156 2.40625 -6.785156 C 2.398438 -6.785156 2.382812 -6.78125 2.355469 -6.777344 C 2.160156 -6.742188 1.941406 -6.667969 1.707031 -6.550781 C 0.761719 -6.089844 0.101562 -5.347656 -0.277344 -4.324219 C -0.171875 -4.605469 -0.132812 -5.105469 -0.160156 -5.828125 C -0.234375 -7.894531 -0.046875 -9.894531 0.402344 -11.839844 L 6.375 -10.460938 L 0.328125 -11.46875 C 0.738281 -13.921875 1.394531 -16.195312 2.304688 -18.289062 C 3.082031 -20.085938 3.890625 -21.765625 4.738281 -23.335938 L 4.804688 -23.460938 L 4.878906 -23.582031 C 6.980469 -27.089844 9.289062 -29.238281 11.800781 -30.03125 C 13.4375 -30.550781 16.09375 -30.808594 19.777344 -30.808594 C 20.746094 -30.808594 21.847656 -30.777344 23.089844 -30.71875 C 24.136719 -30.667969 25.15625 -30.644531 26.148438 -30.644531 C 27.210938 -30.644531 28.039062 -30.730469 28.632812 -30.898438 C 27.960938 -30.707031 27.363281 -30.285156 26.835938 -29.632812 C 26.214844 -28.863281 25.90625 -28.03125 25.90625 -27.128906 C 25.90625 -26.296875 26.117188 -25.511719 26.546875 -24.777344 C 26.902344 -24.171875 27.347656 -23.691406 27.886719 -23.339844 C 28.117188 -23.1875 28.316406 -23.085938 28.488281 -23.035156 C 28.425781 -23.050781 28.308594 -23.074219 28.128906 -23.097656 C 26.324219 -23.335938 24.355469 -23.453125 22.226562 -23.453125 C 20.898438 -23.453125 19.652344 -23.425781 18.488281 -23.375 C 17.148438 -23.320312 16.050781 -23.289062 15.199219 -23.289062 C 14.601562 -23.289062 14.175781 -23.25 13.921875 -23.164062 C 14.136719 -23.234375 14.371094 -23.417969 14.625 -23.714844 C 13.332031 -22.207031 11.890625 -20.875 10.304688 -19.722656 L 0.570312 -12.644531 L 0.570312 -24.679688 C 0.570312 -26.429688 0.730469 -27.785156 1.050781 -28.742188 C 0.945312 -28.429688 0.886719 -28.195312 0.875 -28.050781 C 0.890625 -28.246094 0.898438 -28.539062 0.898438 -28.929688 L 0.898438 -31.625 C 0.898438 -32.839844 0.972656 -33.976562 1.125 -35.023438 L 7.191406 -34.15625 L 1.089844 -34.738281 C 1.28125 -36.753906 1.355469 -38.335938 1.3125 -39.480469 C 1.335938 -38.867188 1.507812 -38.269531 1.828125 -37.683594 C 2.1875 -37.035156 2.671875 -36.515625 3.277344 -36.132812 C 3.613281 -35.917969 3.933594 -35.777344 4.234375 -35.714844 C 4.265625 -35.707031 4.285156 -35.703125 4.289062 -35.703125 C 4.238281 -35.707031 4.167969 -35.710938 4.085938 -35.710938 C 4.921875 -35.710938 5.699219 -35.910156 6.421875 -36.308594 C 6.921875 -36.585938 7.332031 -36.921875 7.65625 -37.320312 C 7.785156 -37.476562 7.875 -37.609375 7.925781 -37.71875 C 7.898438 -37.660156 7.859375 -37.550781 7.8125 -37.394531 C 7.382812 -36.023438 7.054688 -34.332031 6.824219 -32.320312 C 6.574219 -30.101562 6.421875 -28.019531 6.371094 -26.074219 C 6.320312 -24.003906 6.292969 -22.609375 6.292969 -21.898438 L 0.164062 -21.898438 L 6.285156 -22.222656 C 6.402344 -19.988281 6.429688 -17.785156 6.371094 -15.605469 C 6.320312 -13.757812 6.347656 -11.9375 6.445312 -10.144531 L 6.457031 -9.976562 L 6.457031 -9.804688 C 6.457031 -9.332031 6.394531 -8.261719 6.277344 -6.589844 C 6.203125 -5.535156 6.234375 -4.5625 6.378906 -3.664062 C 6.285156 -4.246094 5.960938 -4.828125 5.402344 -5.410156 C 4.523438 -6.324219 3.484375 -6.78125 2.289062 -6.78125 Z M 2.289062 -6.78125 "/></g></g></g><g fill="#fffef9" fill-opacity="1"><g transform="translate(165.207849, 159.78448)"><g><path d="M 2.289062 5.476562 C 0 5.476562 -1.90625 4.675781 -3.441406 3.078125 C -4.652344 1.816406 -5.414062 0.214844 -5.726562 -1.726562 C -6.019531 -3.554688 -6.09375 -5.46875 -5.949219 -7.464844 C -5.851562 -8.84375 -5.800781 -9.625 -5.800781 -9.804688 L 0.328125 -9.804688 L -5.792969 -9.464844 C -5.910156 -11.597656 -5.941406 -13.753906 -5.882812 -15.9375 C -5.832031 -17.789062 -5.855469 -19.671875 -5.957031 -21.578125 L -5.964844 -21.738281 L -5.964844 -21.898438 C -5.964844 -22.714844 -5.9375 -24.210938 -5.882812 -26.386719 C -5.824219 -28.691406 -5.648438 -31.132812 -5.355469 -33.707031 C -5.039062 -36.488281 -4.550781 -38.9375 -3.890625 -41.050781 C -3.382812 -42.671875 -2.703125 -44.007812 -1.855469 -45.050781 C -0.273438 -46.996094 1.707031 -47.96875 4.085938 -47.96875 C 6.363281 -47.96875 8.28125 -47.472656 9.839844 -46.484375 C 11.003906 -45.746094 11.910156 -44.785156 12.5625 -43.601562 C 13.175781 -42.488281 13.511719 -41.273438 13.5625 -39.949219 C 13.625 -38.261719 13.535156 -36.136719 13.292969 -33.578125 L 13.277344 -33.433594 L 13.257812 -33.292969 C 13.191406 -32.816406 13.15625 -32.261719 13.15625 -31.625 L 13.15625 -28.929688 C 13.15625 -27.175781 12.996094 -25.820312 12.679688 -24.867188 C 12.785156 -25.179688 12.839844 -25.410156 12.851562 -25.558594 C 12.835938 -25.359375 12.828125 -25.066406 12.828125 -24.679688 L 6.699219 -24.679688 L 3.097656 -29.636719 C 3.90625 -30.226562 4.648438 -30.910156 5.316406 -31.691406 C 7.519531 -34.261719 10.8125 -35.546875 15.199219 -35.546875 C 15.875 -35.546875 16.792969 -35.574219 17.957031 -35.625 C 19.296875 -35.683594 20.722656 -35.710938 22.226562 -35.710938 C 24.890625 -35.710938 27.390625 -35.558594 29.726562 -35.25 C 31.691406 -34.992188 33.324219 -34.433594 34.625 -33.578125 C 35.683594 -32.882812 36.519531 -32.011719 37.128906 -30.964844 C 37.820312 -29.789062 38.164062 -28.507812 38.164062 -27.128906 C 38.164062 -25.140625 37.566406 -23.410156 36.371094 -21.929688 C 35.273438 -20.570312 33.816406 -19.632812 32 -19.113281 C 30.308594 -18.628906 28.355469 -18.386719 26.148438 -18.386719 C 24.960938 -18.386719 23.75 -18.414062 22.507812 -18.476562 C 21.460938 -18.523438 20.550781 -18.550781 19.777344 -18.550781 C 17.355469 -18.550781 15.925781 -18.480469 15.492188 -18.34375 C 15.855469 -18.457031 16.160156 -18.605469 16.414062 -18.785156 C 16.457031 -18.820312 16.496094 -18.847656 16.519531 -18.871094 C 16.511719 -18.863281 16.492188 -18.84375 16.46875 -18.816406 C 16.179688 -18.507812 15.820312 -17.992188 15.386719 -17.277344 L 10.132812 -20.429688 L 15.53125 -17.523438 C 14.847656 -16.261719 14.1875 -14.890625 13.550781 -13.417969 C 13.042969 -12.242188 12.664062 -10.917969 12.417969 -9.453125 L 12.386719 -9.265625 L 12.347656 -9.082031 C 12.140625 -8.191406 12.054688 -7.253906 12.089844 -6.265625 C 12.171875 -3.9375 11.886719 -1.878906 11.226562 -0.0859375 C 10.46875 1.972656 9.085938 3.488281 7.078125 4.46875 C 5.699219 5.140625 4.101562 5.476562 2.289062 5.476562 Z M 2.289062 -6.78125 C 2.339844 -6.78125 2.378906 -6.785156 2.40625 -6.785156 C 2.398438 -6.785156 2.382812 -6.78125 2.355469 -6.777344 C 2.160156 -6.742188 1.941406 -6.667969 1.707031 -6.550781 C 0.761719 -6.089844 0.101562 -5.347656 -0.277344 -4.324219 C -0.171875 -4.605469 -0.132812 -5.105469 -0.160156 -5.828125 C -0.234375 -7.894531 -0.046875 -9.894531 0.402344 -11.839844 L 6.375 -10.460938 L 0.328125 -11.46875 C 0.738281 -13.921875 1.394531 -16.195312 2.304688 -18.289062 C 3.082031 -20.085938 3.890625 -21.765625 4.738281 -23.335938 L 4.804688 -23.460938 L 4.878906 -23.582031 C 6.980469 -27.089844 9.289062 -29.238281 11.800781 -30.03125 C 13.4375 -30.550781 16.09375 -30.808594 19.777344 -30.808594 C 20.746094 -30.808594 21.847656 -30.777344 23.089844 -30.71875 C 24.136719 -30.667969 25.15625 -30.644531 26.148438 -30.644531 C 27.210938 -30.644531 28.039062 -30.730469 28.632812 -30.898438 C 27.960938 -30.707031 27.363281 -30.285156 26.835938 -29.632812 C 26.214844 -28.863281 25.90625 -28.03125 25.90625 -27.128906 C 25.90625 -26.296875 26.117188 -25.511719 26.546875 -24.777344 C 26.902344 -24.171875 27.347656 -23.691406 27.886719 -23.339844 C 28.117188 -23.1875 28.316406 -23.085938 28.488281 -23.035156 C 28.425781 -23.050781 28.308594 -23.074219 28.128906 -23.097656 C 26.324219 -23.335938 24.355469 -23.453125 22.226562 -23.453125 C 20.898438 -23.453125 19.652344 -23.425781 18.488281 -23.375 C 17.148438 -23.320312 16.050781 -23.289062 15.199219 -23.289062 C 14.601562 -23.289062 14.175781 -23.25 13.921875 -23.164062 C 14.136719 -23.234375 14.371094 -23.417969 14.625 -23.714844 C 13.332031 -22.207031 11.890625 -20.875 10.304688 -19.722656 L 0.570312 -12.644531 L 0.570312 -24.679688 C 0.570312 -26.429688 0.730469 -27.785156 1.050781 -28.742188 C 0.945312 -28.429688 0.886719 -28.195312 0.875 -28.050781 C 0.890625 -28.246094 0.898438 -28.539062 0.898438 -28.929688 L 0.898438 -31.625 C 0.898438 -32.839844 0.972656 -33.976562 1.125 -35.023438 L 7.191406 -34.15625 L 1.089844 -34.738281 C 1.28125 -36.753906 1.355469 -38.335938 1.3125 -39.480469 C 1.335938 -38.867188 1.507812 -38.269531 1.828125 -37.683594 C 2.1875 -37.035156 2.671875 -36.515625 3.277344 -36.132812 C 3.613281 -35.917969 3.933594 -35.777344 4.234375 -35.714844 C 4.265625 -35.707031 4.285156 -35.703125 4.289062 -35.703125 C 4.238281 -35.707031 4.167969 -35.710938 4.085938 -35.710938 C 4.921875 -35.710938 5.699219 -35.910156 6.421875 -36.308594 C 6.921875 -36.585938 7.332031 -36.921875 7.65625 -37.320312 C 7.785156 -37.476562 7.875 -37.609375 7.925781 -37.71875 C 7.898438 -37.660156 7.859375 -37.550781 7.8125 -37.394531 C 7.382812 -36.023438 7.054688 -34.332031 6.824219 -32.320312 C 6.574219 -30.101562 6.421875 -28.019531 6.371094 -26.074219 C 6.320312 -24.003906 6.292969 -22.609375 6.292969 -21.898438 L 0.164062 -21.898438 L 6.285156 -22.222656 C 6.402344 -19.988281 6.429688 -17.785156 6.371094 -15.605469 C 6.320312 -13.757812 6.347656 -11.9375 6.445312 -10.144531 L 6.457031 -9.976562 L 6.457031 -9.804688 C 6.457031 -9.332031 6.394531 -8.261719 6.277344 -6.589844 C 6.203125 -5.535156 6.234375 -4.5625 6.378906 -3.664062 C 6.285156 -4.246094 5.960938 -4.828125 5.402344 -5.410156 C 4.523438 -6.324219 3.484375 -6.78125 2.289062 -6.78125 Z M 2.289062 -6.78125 "/></g></g></g><g fill="#fffef9" fill-opacity="1"><g transform="translate(191.847006, 159.78448)"><g><path d="M 4.664062 -35.003906 C 6.433594 -35.9375 8.433594 -37.253906 10.671875 -38.953125 C 11.730469 -39.761719 12.292969 -40.566406 12.359375 -41.367188 L 18.46875 -40.859375 L 19.398438 -34.800781 C 19.097656 -34.753906 18.59375 -34.4375 17.882812 -33.847656 C 16.726562 -32.894531 15.734375 -31.824219 14.910156 -30.644531 C 14.132812 -29.535156 13.621094 -28.582031 13.375 -27.78125 L 7.519531 -29.582031 Z M 10.371094 -24.15625 L -2.675781 -17.289062 L 1.660156 -31.382812 C 2.285156 -33.414062 3.355469 -35.511719 4.867188 -37.671875 C 6.328125 -39.757812 8.0625 -41.632812 10.066406 -43.292969 C 12.515625 -45.320312 15.003906 -46.527344 17.535156 -46.917969 L 25.222656 -48.097656 L 24.574219 -40.351562 C 24.207031 -35.921875 22.046875 -32.207031 18.09375 -29.199219 C 15.316406 -27.085938 12.742188 -25.40625 10.371094 -24.15625 Z M -5.964844 -25.660156 C -5.964844 -29.464844 -4.800781 -33.417969 -2.46875 -37.515625 C -0.304688 -41.316406 2.394531 -44.570312 5.628906 -47.277344 C 9.433594 -50.460938 13.386719 -52.054688 17.488281 -52.054688 C 20.609375 -52.054688 23.179688 -51.324219 25.191406 -49.867188 C 27.695312 -48.050781 29.046875 -45.5 29.246094 -42.207031 C 29.5 -37.921875 27.890625 -33.589844 24.414062 -29.207031 L 24.273438 -29.027344 L 24.117188 -28.855469 C 22.519531 -27.125 20.234375 -25.210938 17.269531 -23.109375 C 13.753906 -20.617188 10.1875 -19.214844 6.578125 -18.898438 L 6.046875 -25.003906 L 12.175781 -25.003906 C 12.175781 -23.425781 12.222656 -22.035156 12.320312 -20.835938 C 12.304688 -21.027344 12.277344 -21.160156 12.238281 -21.234375 C 12.335938 -21.050781 12.535156 -20.808594 12.832031 -20.515625 C 13.050781 -20.292969 13.40625 -20.183594 13.890625 -20.183594 C 15.609375 -20.183594 17.515625 -20.800781 19.605469 -22.03125 C 22.480469 -23.726562 24.652344 -25.113281 26.121094 -26.1875 L 29.746094 -21.246094 L 25.820312 -25.953125 C 26.453125 -26.480469 26.949219 -26.898438 27.308594 -27.207031 C 27.742188 -27.578125 28.257812 -28.003906 28.859375 -28.484375 L 28.914062 -28.53125 L 28.972656 -28.574219 C 30.792969 -29.957031 31.824219 -30.820312 32.074219 -31.164062 C 33.140625 -32.613281 34.222656 -33.683594 35.324219 -34.371094 C 36.753906 -35.265625 38.871094 -35.710938 41.675781 -35.710938 L 46.792969 -35.710938 L 47.707031 -30.679688 C 48.035156 -28.863281 48.136719 -27.425781 48.003906 -26.371094 C 47.792969 -24.691406 46.894531 -22.945312 45.308594 -21.132812 L 45.171875 -20.980469 L 45.03125 -20.835938 C 42.941406 -18.746094 40.328125 -16.390625 37.191406 -13.765625 C 33.878906 -10.996094 30.324219 -8.585938 26.527344 -6.539062 C 22.1875 -4.195312 17.8125 -3.023438 13.402344 -3.023438 C 10.910156 -3.023438 8.523438 -3.457031 6.242188 -4.320312 C 3.84375 -5.230469 1.625 -6.703125 -0.410156 -8.742188 C -3.355469 -11.683594 -5.050781 -14.875 -5.503906 -18.324219 C -5.8125 -20.65625 -5.964844 -23.105469 -5.964844 -25.660156 Z M 6.292969 -25.660156 C 6.292969 -23.640625 6.410156 -21.726562 6.648438 -19.921875 C 6.738281 -19.226562 7.277344 -18.390625 8.257812 -17.410156 C 9.050781 -16.613281 9.832031 -16.070312 10.589844 -15.78125 C 11.46875 -15.449219 12.40625 -15.28125 13.402344 -15.28125 C 15.746094 -15.28125 18.183594 -15.960938 20.707031 -17.324219 C 23.773438 -18.980469 26.648438 -20.929688 29.328125 -23.167969 C 32.183594 -25.558594 34.527344 -27.671875 36.363281 -29.503906 L 40.695312 -25.167969 L 36.082031 -29.203125 C 36.25 -29.394531 36.347656 -29.511719 36.375 -29.5625 C 36.101562 -29.125 35.925781 -28.566406 35.839844 -27.890625 C 35.816406 -27.703125 35.804688 -27.539062 35.808594 -27.394531 L 35.808594 -27.378906 C 35.808594 -27.398438 35.804688 -27.425781 35.800781 -27.460938 C 35.777344 -27.707031 35.726562 -28.046875 35.644531 -28.484375 L 41.675781 -29.582031 L 41.675781 -23.453125 C 41.125 -23.453125 40.726562 -23.4375 40.472656 -23.402344 C 40.835938 -23.449219 41.285156 -23.640625 41.820312 -23.976562 C 42.039062 -24.113281 42.199219 -24.234375 42.300781 -24.339844 C 42.21875 -24.253906 42.105469 -24.113281 41.960938 -23.914062 C 41.011719 -22.621094 39.160156 -20.925781 36.402344 -18.824219 L 32.6875 -23.699219 L 36.515625 -18.914062 C 36.023438 -18.519531 35.617188 -18.183594 35.285156 -17.902344 C 34.882812 -17.554688 34.34375 -17.101562 33.667969 -16.539062 L 33.523438 -16.417969 L 33.371094 -16.304688 C 31.570312 -14.984375 29.054688 -13.375 25.828125 -11.472656 C 21.816406 -9.109375 17.839844 -7.925781 13.890625 -7.925781 C 10.019531 -7.925781 6.777344 -9.234375 4.164062 -11.847656 C 1.683594 -14.328125 0.328125 -16.996094 0.101562 -19.859375 C -0.0195312 -21.382812 -0.0820312 -23.097656 -0.0820312 -25.003906 L -0.0820312 -30.625 L 5.515625 -31.113281 C 6.917969 -31.234375 8.476562 -31.902344 10.1875 -33.113281 C 12.449219 -34.71875 14.09375 -36.070312 15.109375 -37.171875 L 19.613281 -33.015625 L 14.808594 -36.824219 C 16.34375 -38.757812 17.078125 -40.308594 17.007812 -41.472656 C 17.015625 -41.320312 17.082031 -41.125 17.199219 -40.886719 C 17.390625 -40.503906 17.65625 -40.1875 17.996094 -39.941406 C 18.167969 -39.816406 18.296875 -39.742188 18.382812 -39.722656 C 18.183594 -39.773438 17.886719 -39.796875 17.488281 -39.796875 C 16.355469 -39.796875 15.027344 -39.15625 13.492188 -37.875 C 11.390625 -36.113281 9.621094 -33.972656 8.1875 -31.453125 C 6.925781 -29.234375 6.292969 -27.300781 6.292969 -25.660156 Z M 6.292969 -25.660156 "/></g></g></g><g fill="#fffef9" fill-opacity="1"><g transform="translate(227.311407, 159.78448)"><g><path d="M -5.800781 -12.585938 C -5.800781 -18.242188 -5.464844 -24.335938 -4.789062 -30.867188 C -4.121094 -37.328125 -3.230469 -43.738281 -2.113281 -50.089844 C -0.996094 -56.464844 0.238281 -62.238281 1.585938 -67.410156 L 1.640625 -67.609375 L 1.703125 -67.800781 C 2.210938 -69.324219 2.722656 -71.035156 3.234375 -72.9375 C 3.925781 -75.492188 4.847656 -77.742188 6.003906 -79.695312 C 6.933594 -81.261719 8.089844 -82.488281 9.472656 -83.378906 C 11.054688 -84.398438 12.800781 -84.90625 14.710938 -84.90625 C 16.496094 -84.90625 18.078125 -84.492188 19.457031 -83.664062 C 21.160156 -82.640625 22.332031 -81.167969 22.976562 -79.242188 C 23.644531 -77.234375 23.738281 -75.015625 23.253906 -72.589844 C 22.914062 -70.894531 22.464844 -69.3125 21.90625 -67.851562 C 21.558594 -66.933594 21.359375 -66.375 21.308594 -66.175781 C 20.453125 -62.960938 19.464844 -58.609375 18.34375 -53.117188 C 17.21875 -47.601562 16.148438 -41.566406 15.125 -35.011719 C 14.113281 -28.511719 13.339844 -22.0625 12.808594 -15.671875 C 12.289062 -9.429688 12.183594 -3.8125 12.492188 1.175781 C 12.765625 5.628906 13.425781 8.898438 14.472656 10.988281 L 8.988281 13.730469 L 6.121094 8.3125 C 6.984375 7.855469 7.722656 7.125 8.335938 6.121094 C 9.417969 4.347656 10.347656 2.636719 11.125 0.984375 L 11.179688 0.871094 L 11.238281 0.757812 C 13.6875 -3.929688 16.085938 -8.886719 18.433594 -14.113281 C 20.902344 -19.617188 23.488281 -24.785156 26.191406 -29.628906 L 31.542969 -26.640625 L 26.0625 -29.382812 C 28.0625 -33.382812 30.816406 -35.382812 34.320312 -35.382812 C 35.570312 -35.382812 36.734375 -35.09375 37.820312 -34.507812 C 38.832031 -33.964844 39.683594 -33.207031 40.371094 -32.246094 C 41.40625 -30.796875 41.921875 -29.203125 41.921875 -27.457031 C 41.921875 -26.46875 41.652344 -25.335938 41.113281 -24.058594 C 40.84375 -23.417969 40.460938 -22.601562 39.96875 -21.609375 L 37.269531 -16.21875 C 36.273438 -14.226562 35.570312 -12.890625 35.164062 -12.210938 L 29.910156 -15.363281 L 35.441406 -12.726562 C 34.375 -10.484375 33.167969 -7.859375 31.828125 -4.855469 L 27.824219 4.128906 C 26.429688 7.265625 25.082031 9.964844 23.773438 12.222656 L 23.71875 12.320312 L 21.453125 15.925781 C 20.28125 17.789062 18.984375 19.425781 17.570312 20.839844 C 15.285156 23.128906 12.589844 24.269531 9.480469 24.269531 C 7.203125 24.269531 5.132812 23.679688 3.273438 22.5 C 1.566406 21.414062 0.144531 19.890625 -0.980469 17.929688 C -2.601562 15.109375 -3.746094 11.703125 -4.410156 7.707031 C -4.996094 4.199219 -5.375 0.582031 -5.550781 -3.144531 C -5.71875 -6.726562 -5.800781 -9.875 -5.800781 -12.585938 Z M 6.457031 -12.585938 C 6.457031 -10.066406 6.535156 -7.109375 6.695312 -3.71875 C 6.847656 -0.472656 7.175781 2.664062 7.679688 5.691406 C 8.105469 8.234375 8.757812 10.277344 9.644531 11.816406 C 9.738281 11.980469 9.820312 12.101562 9.894531 12.183594 C 9.902344 12.191406 9.90625 12.195312 9.910156 12.195312 C 9.890625 12.183594 9.871094 12.167969 9.84375 12.148438 C 9.699219 12.058594 9.578125 12.011719 9.480469 12.011719 C 9.203125 12.011719 9.011719 12.066406 8.90625 12.171875 C 9.667969 11.40625 10.390625 10.484375 11.070312 9.40625 L 13.277344 5.894531 L 18.46875 9.152344 L 13.164062 6.082031 C 14.253906 4.199219 15.40625 1.886719 16.628906 -0.859375 L 20.632812 -9.851562 C 22.015625 -12.949219 23.265625 -15.664062 24.375 -17.996094 L 24.5 -18.265625 L 24.652344 -18.515625 C 24.898438 -18.925781 25.449219 -19.988281 26.304688 -21.699219 L 29.003906 -27.09375 C 29.378906 -27.84375 29.652344 -28.417969 29.816406 -28.8125 C 29.84375 -28.878906 29.867188 -28.929688 29.882812 -28.972656 L 29.875 -28.945312 C 29.734375 -28.511719 29.664062 -28.011719 29.664062 -27.457031 C 29.664062 -26.582031 29.90625 -25.804688 30.394531 -25.121094 C 30.8125 -24.539062 31.347656 -24.070312 32.007812 -23.714844 C 32.738281 -23.324219 33.507812 -23.125 34.320312 -23.125 C 35.453125 -23.125 36.375 -23.464844 37.09375 -24.136719 C 37.179688 -24.21875 37.234375 -24.277344 37.257812 -24.3125 C 37.195312 -24.21875 37.117188 -24.082031 37.023438 -23.898438 L 36.960938 -23.773438 L 36.894531 -23.652344 C 34.367188 -19.125 31.941406 -14.269531 29.617188 -9.09375 C 27.167969 -3.644531 24.664062 1.53125 22.101562 6.433594 L 16.671875 3.59375 L 22.214844 6.207031 C 21.25 8.257812 20.109375 10.359375 18.796875 12.511719 C 17.011719 15.429688 14.699219 17.640625 11.855469 19.144531 L 6.3125 22.082031 L 3.507812 16.46875 C 1.71875 12.890625 0.636719 8.046875 0.257812 1.929688 C -0.0898438 -3.648438 0.0234375 -9.855469 0.59375 -16.6875 C 1.148438 -23.371094 1.957031 -30.109375 3.015625 -36.898438 C 4.0625 -43.640625 5.171875 -49.863281 6.332031 -55.566406 C 7.503906 -61.296875 8.53125 -65.824219 9.417969 -69.148438 C 9.585938 -69.820312 9.929688 -70.84375 10.453125 -72.214844 C 10.765625 -73.039062 11.027344 -73.964844 11.234375 -74.992188 C 11.28125 -75.230469 11.300781 -75.414062 11.300781 -75.546875 C 11.300781 -75.519531 11.316406 -75.460938 11.347656 -75.367188 C 11.660156 -74.421875 12.261719 -73.683594 13.148438 -73.152344 C 13.710938 -72.816406 14.230469 -72.648438 14.710938 -72.648438 C 15.199219 -72.648438 15.664062 -72.789062 16.101562 -73.070312 C 16.34375 -73.222656 16.492188 -73.347656 16.550781 -73.445312 C 15.960938 -72.453125 15.46875 -71.21875 15.070312 -69.742188 C 14.492188 -67.609375 13.914062 -65.671875 13.332031 -63.925781 L 7.519531 -65.863281 L 13.449219 -64.316406 C 12.183594 -59.464844 11.019531 -54.019531 9.960938 -47.972656 C 8.894531 -41.902344 8.042969 -35.78125 7.402344 -29.605469 C 6.773438 -23.496094 6.457031 -17.820312 6.457031 -12.585938 Z M 6.457031 -12.585938 "/></g></g></g><g fill="#fffef9" fill-opacity="1"><g transform="translate(256.075171, 159.78448)"><g><path d="M -5.800781 -12.585938 C -5.800781 -18.242188 -5.464844 -24.335938 -4.789062 -30.867188 C -4.121094 -37.328125 -3.230469 -43.738281 -2.113281 -50.089844 C -0.996094 -56.464844 0.238281 -62.238281 1.585938 -67.410156 L 1.640625 -67.609375 L 1.703125 -67.800781 C 2.210938 -69.324219 2.722656 -71.035156 3.234375 -72.9375 C 3.925781 -75.492188 4.847656 -77.742188 6.003906 -79.695312 C 6.933594 -81.261719 8.089844 -82.488281 9.472656 -83.378906 C 11.054688 -84.398438 12.800781 -84.90625 14.710938 -84.90625 C 16.496094 -84.90625 18.078125 -84.492188 19.457031 -83.664062 C 21.160156 -82.640625 22.332031 -81.167969 22.976562 -79.242188 C 23.644531 -77.234375 23.738281 -75.015625 23.253906 -72.589844 C 22.914062 -70.894531 22.464844 -69.3125 21.90625 -67.851562 C 21.558594 -66.933594 21.359375 -66.375 21.308594 -66.175781 C 20.453125 -62.960938 19.464844 -58.609375 18.34375 -53.117188 C 17.21875 -47.601562 16.148438 -41.566406 15.125 -35.011719 C 14.113281 -28.511719 13.339844 -22.0625 12.808594 -15.671875 C 12.289062 -9.429688 12.183594 -3.8125 12.492188 1.175781 C 12.765625 5.628906 13.425781 8.898438 14.472656 10.988281 L 8.988281 13.730469 L 6.121094 8.3125 C 6.984375 7.855469 7.722656 7.125 8.335938 6.121094 C 9.417969 4.347656 10.347656 2.636719 11.125 0.984375 L 11.179688 0.871094 L 11.238281 0.757812 C 13.6875 -3.929688 16.085938 -8.886719 18.433594 -14.113281 C 20.902344 -19.617188 23.488281 -24.785156 26.191406 -29.628906 L 31.542969 -26.640625 L 26.0625 -29.382812 C 28.0625 -33.382812 30.816406 -35.382812 34.320312 -35.382812 C 35.570312 -35.382812 36.734375 -35.09375 37.820312 -34.507812 C 38.832031 -33.964844 39.683594 -33.207031 40.371094 -32.246094 C 41.40625 -30.796875 41.921875 -29.203125 41.921875 -27.457031 C 41.921875 -26.46875 41.652344 -25.335938 41.113281 -24.058594 C 40.84375 -23.417969 40.460938 -22.601562 39.96875 -21.609375 L 37.269531 -16.21875 C 36.273438 -14.226562 35.570312 -12.890625 35.164062 -12.210938 L 29.910156 -15.363281 L 35.441406 -12.726562 C 34.375 -10.484375 33.167969 -7.859375 31.828125 -4.855469 L 27.824219 4.128906 C 26.429688 7.265625 25.082031 9.964844 23.773438 12.222656 L 23.71875 12.320312 L 21.453125 15.925781 C 20.28125 17.789062 18.984375 19.425781 17.570312 20.839844 C 15.285156 23.128906 12.589844 24.269531 9.480469 24.269531 C 7.203125 24.269531 5.132812 23.679688 3.273438 22.5 C 1.566406 21.414062 0.144531 19.890625 -0.980469 17.929688 C -2.601562 15.109375 -3.746094 11.703125 -4.410156 7.707031 C -4.996094 4.199219 -5.375 0.582031 -5.550781 -3.144531 C -5.71875 -6.726562 -5.800781 -9.875 -5.800781 -12.585938 Z M 6.457031 -12.585938 C 6.457031 -10.066406 6.535156 -7.109375 6.695312 -3.71875 C 6.847656 -0.472656 7.175781 2.664062 7.679688 5.691406 C 8.105469 8.234375 8.757812 10.277344 9.644531 11.816406 C 9.738281 11.980469 9.820312 12.101562 9.894531 12.183594 C 9.902344 12.191406 9.90625 12.195312 9.910156 12.195312 C 9.890625 12.183594 9.871094 12.167969 9.84375 12.148438 C 9.699219 12.058594 9.578125 12.011719 9.480469 12.011719 C 9.203125 12.011719 9.011719 12.066406 8.90625 12.171875 C 9.667969 11.40625 10.390625 10.484375 11.070312 9.40625 L 13.277344 5.894531 L 18.46875 9.152344 L 13.164062 6.082031 C 14.253906 4.199219 15.40625 1.886719 16.628906 -0.859375 L 20.632812 -9.851562 C 22.015625 -12.949219 23.265625 -15.664062 24.375 -17.996094 L 24.5 -18.265625 L 24.652344 -18.515625 C 24.898438 -18.925781 25.449219 -19.988281 26.304688 -21.699219 L 29.003906 -27.09375 C 29.378906 -27.84375 29.652344 -28.417969 29.816406 -28.8125 C 29.84375 -28.878906 29.867188 -28.929688 29.882812 -28.972656 L 29.875 -28.945312 C 29.734375 -28.511719 29.664062 -28.011719 29.664062 -27.457031 C 29.664062 -26.582031 29.90625 -25.804688 30.394531 -25.121094 C 30.8125 -24.539062 31.347656 -24.070312 32.007812 -23.714844 C 32.738281 -23.324219 33.507812 -23.125 34.320312 -23.125 C 35.453125 -23.125 36.375 -23.464844 37.09375 -24.136719 C 37.179688 -24.21875 37.234375 -24.277344 37.257812 -24.3125 C 37.195312 -24.21875 37.117188 -24.082031 37.023438 -23.898438 L 36.960938 -23.773438 L 36.894531 -23.652344 C 34.367188 -19.125 31.941406 -14.269531 29.617188 -9.09375 C 27.167969 -3.644531 24.664062 1.53125 22.101562 6.433594 L 16.671875 3.59375 L 22.214844 6.207031 C 21.25 8.257812 20.109375 10.359375 18.796875 12.511719 C 17.011719 15.429688 14.699219 17.640625 11.855469 19.144531 L 6.3125 22.082031 L 3.507812 16.46875 C 1.71875 12.890625 0.636719 8.046875 0.257812 1.929688 C -0.0898438 -3.648438 0.0234375 -9.855469 0.59375 -16.6875 C 1.148438 -23.371094 1.957031 -30.109375 3.015625 -36.898438 C 4.0625 -43.640625 5.171875 -49.863281 6.332031 -55.566406 C 7.503906 -61.296875 8.53125 -65.824219 9.417969 -69.148438 C 9.585938 -69.820312 9.929688 -70.84375 10.453125 -72.214844 C 10.765625 -73.039062 11.027344 -73.964844 11.234375 -74.992188 C 11.28125 -75.230469 11.300781 -75.414062 11.300781 -75.546875 C 11.300781 -75.519531 11.316406 -75.460938 11.347656 -75.367188 C 11.660156 -74.421875 12.261719 -73.683594 13.148438 -73.152344 C 13.710938 -72.816406 14.230469 -72.648438 14.710938 -72.648438 C 15.199219 -72.648438 15.664062 -72.789062 16.101562 -73.070312 C 16.34375 -73.222656 16.492188 -73.347656 16.550781 -73.445312 C 15.960938 -72.453125 15.46875 -71.21875 15.070312 -69.742188 C 14.492188 -67.609375 13.914062 -65.671875 13.332031 -63.925781 L 7.519531 -65.863281 L 13.449219 -64.316406 C 12.183594 -59.464844 11.019531 -54.019531 9.960938 -47.972656 C 8.894531 -41.902344 8.042969 -35.78125 7.402344 -29.605469 C 6.773438 -23.496094 6.457031 -17.820312 6.457031 -12.585938 Z M 6.457031 -12.585938 "/></g></g></g><g fill="#fffef9" fill-opacity="1"><g transform="translate(284.83895, 159.78448)"><g><path d="M 4.664062 -35.003906 C 6.433594 -35.9375 8.433594 -37.253906 10.671875 -38.953125 C 11.730469 -39.761719 12.292969 -40.566406 12.359375 -41.367188 L 18.46875 -40.859375 L 19.398438 -34.800781 C 19.097656 -34.753906 18.59375 -34.4375 17.882812 -33.847656 C 16.726562 -32.894531 15.734375 -31.824219 14.910156 -30.644531 C 14.132812 -29.535156 13.621094 -28.582031 13.375 -27.78125 L 7.519531 -29.582031 Z M 10.371094 -24.15625 L -2.675781 -17.289062 L 1.660156 -31.382812 C 2.285156 -33.414062 3.355469 -35.511719 4.867188 -37.671875 C 6.328125 -39.757812 8.0625 -41.632812 10.066406 -43.292969 C 12.515625 -45.320312 15.003906 -46.527344 17.535156 -46.917969 L 25.222656 -48.097656 L 24.574219 -40.351562 C 24.207031 -35.921875 22.046875 -32.207031 18.09375 -29.199219 C 15.316406 -27.085938 12.742188 -25.40625 10.371094 -24.15625 Z M -5.964844 -25.660156 C -5.964844 -29.464844 -4.800781 -33.417969 -2.46875 -37.515625 C -0.304688 -41.316406 2.394531 -44.570312 5.628906 -47.277344 C 9.433594 -50.460938 13.386719 -52.054688 17.488281 -52.054688 C 20.609375 -52.054688 23.179688 -51.324219 25.191406 -49.867188 C 27.695312 -48.050781 29.046875 -45.5 29.246094 -42.207031 C 29.5 -37.921875 27.890625 -33.589844 24.414062 -29.207031 L 24.273438 -29.027344 L 24.117188 -28.855469 C 22.519531 -27.125 20.234375 -25.210938 17.269531 -23.109375 C 13.753906 -20.617188 10.1875 -19.214844 6.578125 -18.898438 L 6.046875 -25.003906 L 12.175781 -25.003906 C 12.175781 -23.425781 12.222656 -22.035156 12.320312 -20.835938 C 12.304688 -21.027344 12.277344 -21.160156 12.238281 -21.234375 C 12.335938 -21.050781 12.535156 -20.808594 12.832031 -20.515625 C 13.050781 -20.292969 13.40625 -20.183594 13.890625 -20.183594 C 15.609375 -20.183594 17.515625 -20.800781 19.605469 -22.03125 C 22.480469 -23.726562 24.652344 -25.113281 26.121094 -26.1875 L 29.746094 -21.246094 L 25.820312 -25.953125 C 26.453125 -26.480469 26.949219 -26.898438 27.308594 -27.207031 C 27.742188 -27.578125 28.257812 -28.003906 28.859375 -28.484375 L 28.914062 -28.53125 L 28.972656 -28.574219 C 30.792969 -29.957031 31.824219 -30.820312 32.074219 -31.164062 C 33.140625 -32.613281 34.222656 -33.683594 35.324219 -34.371094 C 36.753906 -35.265625 38.871094 -35.710938 41.675781 -35.710938 L 46.792969 -35.710938 L 47.707031 -30.679688 C 48.035156 -28.863281 48.136719 -27.425781 48.003906 -26.371094 C 47.792969 -24.691406 46.894531 -22.945312 45.308594 -21.132812 L 45.171875 -20.980469 L 45.03125 -20.835938 C 42.941406 -18.746094 40.328125 -16.390625 37.191406 -13.765625 C 33.878906 -10.996094 30.324219 -8.585938 26.527344 -6.539062 C 22.1875 -4.195312 17.8125 -3.023438 13.402344 -3.023438 C 10.910156 -3.023438 8.523438 -3.457031 6.242188 -4.320312 C 3.84375 -5.230469 1.625 -6.703125 -0.410156 -8.742188 C -3.355469 -11.683594 -5.050781 -14.875 -5.503906 -18.324219 C -5.8125 -20.65625 -5.964844 -23.105469 -5.964844 -25.660156 Z M 6.292969 -25.660156 C 6.292969 -23.640625 6.410156 -21.726562 6.648438 -19.921875 C 6.738281 -19.226562 7.277344 -18.390625 8.257812 -17.410156 C 9.050781 -16.613281 9.832031 -16.070312 10.589844 -15.78125 C 11.46875 -15.449219 12.40625 -15.28125 13.402344 -15.28125 C 15.746094 -15.28125 18.183594 -15.960938 20.707031 -17.324219 C 23.773438 -18.980469 26.648438 -20.929688 29.328125 -23.167969 C 32.183594 -25.558594 34.527344 -27.671875 36.363281 -29.503906 L 40.695312 -25.167969 L 36.082031 -29.203125 C 36.25 -29.394531 36.347656 -29.511719 36.375 -29.5625 C 36.101562 -29.125 35.925781 -28.566406 35.839844 -27.890625 C 35.816406 -27.703125 35.804688 -27.539062 35.808594 -27.394531 L 35.808594 -27.378906 C 35.808594 -27.398438 35.804688 -27.425781 35.800781 -27.460938 C 35.777344 -27.707031 35.726562 -28.046875 35.644531 -28.484375 L 41.675781 -29.582031 L 41.675781 -23.453125 C 41.125 -23.453125 40.726562 -23.4375 40.472656 -23.402344 C 40.835938 -23.449219 41.285156 -23.640625 41.820312 -23.976562 C 42.039062 -24.113281 42.199219 -24.234375 42.300781 -24.339844 C 42.21875 -24.253906 42.105469 -24.113281 41.960938 -23.914062 C 41.011719 -22.621094 39.160156 -20.925781 36.402344 -18.824219 L 32.6875 -23.699219 L 36.515625 -18.914062 C 36.023438 -18.519531 35.617188 -18.183594 35.285156 -17.902344 C 34.882812 -17.554688 34.34375 -17.101562 33.667969 -16.539062 L 33.523438 -16.417969 L 33.371094 -16.304688 C 31.570312 -14.984375 29.054688 -13.375 25.828125 -11.472656 C 21.816406 -9.109375 17.839844 -7.925781 13.890625 -7.925781 C 10.019531 -7.925781 6.777344 -9.234375 4.164062 -11.847656 C 1.683594 -14.328125 0.328125 -16.996094 0.101562 -19.859375 C -0.0195312 -21.382812 -0.0820312 -23.097656 -0.0820312 -25.003906 L -0.0820312 -30.625 L 5.515625 -31.113281 C 6.917969 -31.234375 8.476562 -31.902344 10.1875 -33.113281 C 12.449219 -34.71875 14.09375 -36.070312 15.109375 -37.171875 L 19.613281 -33.015625 L 14.808594 -36.824219 C 16.34375 -38.757812 17.078125 -40.308594 17.007812 -41.472656 C 17.015625 -41.320312 17.082031 -41.125 17.199219 -40.886719 C 17.390625 -40.503906 17.65625 -40.1875 17.996094 -39.941406 C 18.167969 -39.816406 18.296875 -39.742188 18.382812 -39.722656 C 18.183594 -39.773438 17.886719 -39.796875 17.488281 -39.796875 C 16.355469 -39.796875 15.027344 -39.15625 13.492188 -37.875 C 11.390625 -36.113281 9.621094 -33.972656 8.1875 -31.453125 C 6.925781 -29.234375 6.292969 -27.300781 6.292969 -25.660156 Z M 6.292969 -25.660156 "/></g></g></g><g fill="#fffef9" fill-opacity="1"><g transform="translate(320.303337, 159.78448)"><g><path d="M 8.089844 26.96875 C 8.089844 27.074219 8.09375 27.160156 8.101562 27.230469 L 8.097656 27.230469 C 8.039062 26.949219 7.90625 26.644531 7.703125 26.316406 C 7.304688 25.671875 6.757812 25.164062 6.0625 24.789062 C 5.421875 24.441406 4.761719 24.269531 4.085938 24.269531 C 3.804688 24.269531 3.554688 24.308594 3.332031 24.378906 C 3.285156 24.394531 3.25 24.410156 3.222656 24.421875 C 3.238281 24.417969 3.257812 24.402344 3.289062 24.382812 C 3.960938 23.964844 4.472656 23.613281 4.832031 23.324219 L 4.90625 23.265625 L 4.984375 23.207031 C 6.402344 22.144531 7.742188 20.375 9 17.898438 C 10.503906 14.933594 11.585938 12.285156 12.238281 9.953125 C 12.648438 8.554688 12.875 7.167969 12.914062 5.789062 C 12.964844 3.941406 12.992188 1.902344 12.992188 -0.328125 L 19.121094 -0.328125 L 22.210938 4.96875 C 21.46875 5.398438 20.46875 6.324219 19.214844 7.742188 C 17.578125 9.589844 16.296875 11.078125 15.367188 12.214844 C 13.628906 14.339844 11.890625 16.9375 10.160156 20.011719 C 8.78125 22.453125 8.089844 24.773438 8.089844 26.96875 Z M -4.167969 26.96875 C -4.167969 22.625 -2.949219 18.296875 -0.515625 13.984375 C 1.5625 10.300781 3.695312 7.125 5.878906 4.453125 C 6.910156 3.195312 8.296875 1.582031 10.039062 -0.386719 C 12.164062 -2.785156 14.160156 -4.527344 16.035156 -5.621094 L 25.25 -10.996094 L 25.25 -0.328125 C 25.25 2.019531 25.222656 4.175781 25.167969 6.140625 C 25.097656 8.574219 24.722656 10.949219 24.042969 13.257812 C 23.171875 16.371094 21.800781 19.769531 19.929688 23.453125 C 17.808594 27.621094 15.277344 30.808594 12.339844 33.015625 L 8.660156 28.109375 L 12.492188 32.898438 C 11.761719 33.480469 10.859375 34.109375 9.785156 34.777344 C 7.921875 35.945312 6.019531 36.527344 4.085938 36.527344 C 2.703125 36.527344 1.421875 36.210938 0.25 35.582031 C -0.976562 34.921875 -1.964844 33.980469 -2.71875 32.765625 C -3.683594 31.207031 -4.167969 29.273438 -4.167969 26.96875 Z M -5.640625 -26.476562 C -5.640625 -30.570312 -4.519531 -34.257812 -2.28125 -37.53125 C -0.289062 -40.453125 2.121094 -42.820312 4.945312 -44.628906 C 8.078125 -46.636719 11.007812 -47.640625 13.730469 -47.640625 C 15.265625 -47.640625 16.683594 -47.328125 17.976562 -46.699219 C 19.398438 -46.011719 20.5625 -45.003906 21.476562 -43.675781 C 23.136719 -41.261719 23.457031 -38.113281 22.433594 -34.234375 L 21.511719 -30.726562 L 17.992188 -29.847656 C 16.398438 -29.449219 15.179688 -29.207031 14.339844 -29.121094 C 15.039062 -29.191406 15.710938 -29.492188 16.34375 -30.023438 C 16.253906 -29.945312 15.871094 -29.53125 15.203125 -28.777344 C 14.441406 -27.9375 13.929688 -27.269531 13.667969 -26.769531 L 13.644531 -26.761719 C 13.714844 -27.046875 13.730469 -27.367188 13.691406 -27.726562 C 13.667969 -27.9375 13.617188 -28.105469 13.539062 -28.226562 C 13.605469 -28.121094 13.769531 -27.96875 14.023438 -27.765625 L 19.902344 -23.109375 C 22.761719 -20.847656 25.410156 -17.859375 27.84375 -14.144531 L 22.71875 -10.785156 L 19.265625 -15.851562 C 21.464844 -17.351562 23.726562 -19.109375 26.050781 -21.132812 L 26.296875 -21.34375 L 41.761719 -32.152344 C 43.617188 -33.441406 45.308594 -34.363281 46.832031 -34.925781 C 48.550781 -35.558594 50.152344 -35.875 51.644531 -35.875 C 53.992188 -35.875 55.898438 -35.140625 57.367188 -33.671875 C 58.378906 -32.660156 59.027344 -31.445312 59.308594 -30.027344 C 59.511719 -29.023438 59.503906 -27.984375 59.289062 -26.910156 C 58.714844 -24.027344 56.710938 -21.578125 53.28125 -19.558594 L 50.175781 -24.84375 L 53.660156 -19.800781 L 42.191406 -11.871094 L 41.800781 -11.679688 C 41.671875 -11.613281 41.039062 -11.164062 39.898438 -10.332031 L 35.261719 -6.914062 C 33.746094 -5.792969 32.464844 -4.753906 31.417969 -3.800781 C 30.949219 -3.375 30.613281 -3.050781 30.40625 -2.828125 C 30.386719 -2.808594 30.375 -2.792969 30.367188 -2.785156 C 30.390625 -2.8125 30.417969 -2.847656 30.449219 -2.890625 C 30.738281 -3.28125 30.96875 -3.742188 31.148438 -4.273438 L 25.332031 -6.210938 L 31.34375 -5.007812 C 31.429688 -5.453125 31.460938 -5.777344 31.425781 -5.980469 C 31.46875 -5.710938 31.566406 -5.3125 31.714844 -4.789062 C 32.269531 -2.847656 32.644531 -0.433594 32.835938 2.453125 C 33.039062 5.507812 32.667969 9.097656 31.714844 13.226562 C 30.757812 17.371094 28.761719 22.050781 25.726562 27.269531 C 22.839844 32.125 19.601562 35.761719 16.007812 38.179688 C 12.140625 40.785156 8.328125 42.085938 4.578125 42.085938 C 0.550781 42.085938 -2.796875 40.695312 -5.472656 37.921875 C -8.089844 35.210938 -9.398438 31.558594 -9.398438 26.96875 C -9.398438 22.269531 -8.273438 17.738281 -6.019531 13.371094 C -4.007812 9.464844 -1.59375 5.863281 1.21875 2.5625 C 3.828125 -0.503906 6.253906 -3.15625 8.496094 -5.394531 C 10.335938 -7.234375 11.46875 -8.476562 11.898438 -9.121094 L 16.996094 -5.71875 L 11.675781 -2.679688 C 10.6875 -4.410156 9.503906 -5.902344 8.128906 -7.15625 C 6.382812 -8.746094 4.671875 -10.203125 2.988281 -11.527344 C 0.78125 -13.269531 -1.082031 -15.136719 -2.59375 -17.132812 C -4.625 -19.808594 -5.640625 -22.921875 -5.640625 -26.476562 Z M 6.621094 -26.476562 C 6.621094 -25.671875 6.804688 -25.027344 7.171875 -24.542969 C 8.054688 -23.378906 9.1875 -22.25 10.574219 -21.15625 C 12.488281 -19.648438 14.425781 -18.003906 16.386719 -16.214844 C 18.714844 -14.09375 20.691406 -11.609375 22.320312 -8.761719 L 24.199219 -5.472656 L 22.097656 -2.320312 C 21.21875 -1.003906 19.574219 0.859375 17.164062 3.273438 C 15.152344 5.28125 12.949219 7.695312 10.550781 10.511719 C 8.347656 13.09375 6.457031 15.921875 4.875 18.988281 C 3.53125 21.59375 2.859375 24.253906 2.859375 26.96875 C 2.859375 28.257812 3.023438 29.074219 3.351562 29.414062 C 3.617188 29.6875 4.023438 29.828125 4.578125 29.828125 C 5.835938 29.828125 7.363281 29.222656 9.164062 28.011719 C 11.234375 26.617188 13.222656 24.316406 15.128906 21.109375 C 17.542969 16.957031 19.089844 13.410156 19.769531 10.472656 C 20.449219 7.519531 20.730469 5.117188 20.605469 3.269531 C 20.472656 1.25 20.246094 -0.3125 19.929688 -1.421875 C 19.222656 -3.898438 19.019531 -5.894531 19.324219 -7.414062 L 19.398438 -7.785156 L 19.519531 -8.148438 C 19.851562 -9.144531 20.476562 -10.144531 21.402344 -11.144531 C 21.847656 -11.628906 22.4375 -12.207031 23.171875 -12.871094 C 24.519531 -14.097656 26.125 -15.402344 27.988281 -16.785156 L 32.667969 -20.230469 C 34.359375 -21.46875 35.578125 -22.269531 36.320312 -22.644531 L 39.0625 -17.160156 L 35.578125 -22.203125 L 46.875 -30.011719 L 47.066406 -30.125 C 47.5 -30.378906 47.773438 -30.570312 47.898438 -30.699219 C 47.601562 -30.386719 47.390625 -29.925781 47.269531 -29.3125 C 47.164062 -28.785156 47.171875 -28.222656 47.289062 -27.625 C 47.492188 -26.613281 47.960938 -25.742188 48.699219 -25.003906 C 49.300781 -24.402344 49.984375 -23.988281 50.753906 -23.761719 C 51.085938 -23.664062 51.382812 -23.617188 51.644531 -23.617188 L 51.671875 -23.605469 C 51.511719 -23.574219 51.308594 -23.511719 51.066406 -23.421875 C 50.519531 -23.21875 49.757812 -22.78125 48.78125 -22.105469 L 33.582031 -11.484375 L 30.070312 -16.507812 L 34.09375 -11.882812 C 31.40625 -9.546875 28.765625 -7.492188 26.171875 -5.722656 L 21.011719 -2.207031 L 17.589844 -7.429688 C 15.882812 -10.03125 14.117188 -12.058594 12.292969 -13.5 L 6.40625 -18.160156 C 3.492188 -20.472656 1.859375 -23.207031 1.507812 -26.371094 C 1.140625 -29.675781 2.652344 -33.195312 6.042969 -36.921875 C 7.117188 -38.132812 7.9375 -38.96875 8.496094 -39.4375 C 9.785156 -40.511719 11.328125 -41.140625 13.117188 -41.320312 C 13.367188 -41.34375 14 -41.484375 15.019531 -41.738281 L 16.507812 -35.792969 L 10.578125 -37.351562 C 10.707031 -37.839844 10.769531 -38.167969 10.765625 -38.335938 C 10.777344 -37.84375 10.980469 -37.308594 11.375 -36.734375 C 11.6875 -36.277344 12.105469 -35.925781 12.628906 -35.671875 C 13.023438 -35.480469 13.390625 -35.382812 13.730469 -35.382812 L 13.75 -35.378906 C 13.644531 -35.359375 13.515625 -35.316406 13.359375 -35.257812 C 12.855469 -35.070312 12.257812 -34.753906 11.5625 -34.308594 C 10.136719 -33.398438 8.894531 -32.167969 7.839844 -30.621094 C 7.027344 -29.429688 6.621094 -28.046875 6.621094 -26.476562 Z M 6.621094 -26.476562 "/></g></g></g><g fill="#191a1b" fill-opacity="1"><g transform="translate(1.940845, 159.78448)"><g><path d="M 86.125 6.859375 L 87.921875 -10.140625 C 89.234375 -20.484375 90.488281 -30.203125 91.6875 -39.296875 C 92.882812 -48.398438 94.164062 -57.3125 95.53125 -66.03125 C 96.894531 -74.75 98.472656 -83.679688 100.265625 -92.828125 C 102.066406 -101.984375 104.164062 -111.847656 106.5625 -122.421875 C 104.601562 -122.421875 101.929688 -122.144531 98.546875 -121.59375 C 95.171875 -121.050781 91.441406 -120.398438 87.359375 -119.640625 C 83.273438 -118.878906 79.1875 -118.035156 75.09375 -117.109375 C 71.007812 -116.179688 67.28125 -115.332031 63.90625 -114.5625 C 60.53125 -113.800781 57.914062 -113.203125 56.0625 -112.765625 C 52.03125 -111.679688 48.109375 -110.617188 44.296875 -109.578125 C 40.484375 -108.546875 36.613281 -107.429688 32.6875 -106.234375 C 30.832031 -105.691406 28.429688 -104.925781 25.484375 -103.9375 C 22.546875 -102.957031 19.796875 -101.867188 17.234375 -100.671875 C 14.679688 -99.472656 12.96875 -98.222656 12.09375 -96.921875 C 12.53125 -95.503906 13.347656 -94.410156 14.546875 -93.640625 C 15.742188 -92.878906 16.890625 -92.066406 17.984375 -91.203125 L 37.09375 -77.3125 C 45.925781 -70.664062 53.691406 -63.335938 60.390625 -55.328125 C 67.085938 -47.316406 72.453125 -38.132812 76.484375 -27.78125 C 79.210938 -21.03125 81.066406 -15.640625 82.046875 -11.609375 C 83.023438 -7.578125 83.703125 -4.253906 84.078125 -1.640625 C 84.460938 0.972656 85.039062 3.535156 85.8125 6.046875 Z M 6.53125 -98.0625 C 6.53125 -99.375 7.078125 -100.597656 8.171875 -101.734375 C 9.265625 -102.878906 10.488281 -103.914062 11.84375 -104.84375 C 13.207031 -105.769531 14.328125 -106.503906 15.203125 -107.046875 L 27.296875 -112.125 C 39.929688 -116.476562 52.8125 -120.125 65.9375 -123.0625 C 79.070312 -126.007812 92.234375 -128.191406 105.421875 -129.609375 C 107.160156 -129.828125 108.21875 -130.125 108.59375 -130.5 C 108.976562 -130.882812 109.253906 -131.265625 109.421875 -131.640625 C 109.585938 -132.023438 110.101562 -132.21875 110.96875 -132.21875 C 112.5 -132.21875 113.316406 -132.109375 113.421875 -131.890625 C 113.535156 -131.671875 113.671875 -131.425781 113.828125 -131.15625 C 113.992188 -130.882812 114.84375 -130.695312 116.375 -130.59375 C 116.800781 -130.59375 117.234375 -130.59375 117.671875 -130.59375 C 118.109375 -130.59375 118.546875 -130.59375 118.984375 -130.59375 C 120.722656 -130.59375 122.628906 -130.617188 124.703125 -130.671875 C 126.773438 -130.722656 128.738281 -130.75 130.59375 -130.75 C 131.132812 -130.75 131.648438 -130.75 132.140625 -130.75 C 132.628906 -130.75 133.09375 -130.75 133.53125 -130.75 C 134.613281 -130.644531 136.707031 -130.425781 139.8125 -130.09375 C 142.925781 -129.769531 146.609375 -129.332031 150.859375 -128.78125 C 155.109375 -128.238281 159.460938 -127.613281 163.921875 -126.90625 C 168.390625 -126.195312 172.554688 -125.40625 176.421875 -124.53125 C 180.296875 -123.664062 183.429688 -122.742188 185.828125 -121.765625 C 188.222656 -120.785156 189.421875 -119.695312 189.421875 -118.5 C 189.421875 -116.644531 188.820312 -115.71875 187.625 -115.71875 C 186.863281 -115.71875 185.910156 -115.878906 184.765625 -116.203125 C 183.617188 -116.523438 182.175781 -116.90625 180.4375 -117.34375 C 177.164062 -118.113281 173.320312 -118.90625 168.90625 -119.71875 C 164.5 -120.53125 159.894531 -121.265625 155.09375 -121.921875 C 150.300781 -122.578125 145.726562 -123.09375 141.375 -123.46875 C 137.019531 -123.851562 133.316406 -124.046875 130.265625 -124.046875 C 127.429688 -124.046875 124.894531 -123.9375 122.65625 -123.71875 C 120.425781 -123.5 117.785156 -123.390625 114.734375 -123.390625 C 114.617188 -123.066406 114.316406 -121.757812 113.828125 -119.46875 C 113.335938 -117.1875 112.789062 -114.570312 112.1875 -111.625 C 111.59375 -108.6875 111.078125 -105.988281 110.640625 -103.53125 C 110.210938 -101.082031 109.941406 -99.476562 109.828125 -98.71875 L 101 -48.875 C 99.582031 -39.820312 98.359375 -31.070312 97.328125 -22.625 C 96.296875 -14.1875 95.179688 -5.609375 93.984375 3.109375 C 93.648438 5.503906 93.398438 7.734375 93.234375 9.796875 C 93.078125 11.867188 92.832031 14.160156 92.5 16.671875 L 87.109375 69.78125 C 87.003906 70.875 86.894531 72.238281 86.78125 73.875 C 86.675781 75.507812 86.378906 76.976562 85.890625 78.28125 C 85.398438 79.59375 84.554688 80.25 83.359375 80.25 C 82.703125 80.25 82.207031 80.054688 81.875 79.671875 C 81.550781 79.296875 81.117188 78.941406 80.578125 78.609375 L 83.359375 32.203125 C 83.359375 27.515625 83.054688 22.5 82.453125 17.15625 C 81.859375 11.820312 81.039062 6.507812 80 1.21875 C 78.96875 -4.0625 77.851562 -8.828125 76.65625 -13.078125 C 75.019531 -19.179688 73.109375 -24.601562 70.921875 -29.34375 C 68.742188 -34.082031 66.265625 -38.570312 63.484375 -42.8125 C 60.710938 -47.0625 57.582031 -51.367188 54.09375 -55.734375 C 51.8125 -58.671875 49.035156 -61.53125 45.765625 -64.3125 C 42.492188 -67.09375 39.113281 -69.789062 35.625 -72.40625 C 32.144531 -75.019531 28.988281 -77.363281 26.15625 -79.4375 L 11.28125 -90.046875 C 10.082031 -90.921875 8.988281 -91.957031 8 -93.15625 C 7.019531 -94.351562 6.53125 -95.988281 6.53125 -98.0625 Z M 6.53125 -98.0625 "/></g></g></g><g fill="#191a1b" fill-opacity="1"><g transform="translate(109.804928, 159.78448)"><g><path d="M 8.171875 -3.765625 C 9.804688 -4.191406 11.273438 -5.628906 12.578125 -8.078125 C 13.890625 -10.535156 14.816406 -13.34375 15.359375 -16.5 C 15.910156 -19.664062 16.046875 -22.582031 15.765625 -25.25 C 15.492188 -27.914062 14.648438 -29.738281 13.234375 -30.71875 C 12.910156 -29.519531 12.3125 -27.804688 11.4375 -25.578125 C 10.570312 -23.347656 9.726562 -20.894531 8.90625 -18.21875 C 8.09375 -15.550781 7.546875 -12.9375 7.265625 -10.375 C 6.992188 -7.8125 7.296875 -5.609375 8.171875 -3.765625 Z M 0 -9.3125 C 0 -10.726562 0.296875 -12.828125 0.890625 -15.609375 C 1.492188 -18.390625 2.335938 -21.382812 3.421875 -24.59375 C 4.515625 -27.8125 5.742188 -30.863281 7.109375 -33.75 C 8.472656 -36.632812 9.941406 -39.003906 11.515625 -40.859375 C 13.097656 -42.710938 14.707031 -43.640625 16.34375 -43.640625 C 17.4375 -43.640625 18.195312 -43.148438 18.625 -42.171875 C 19.0625 -41.191406 19.171875 -40.375 18.953125 -39.71875 C 18.734375 -39.164062 18.320312 -38.617188 17.71875 -38.078125 C 17.125 -37.535156 16.613281 -36.9375 16.1875 -36.28125 C 16.394531 -35.519531 16.9375 -34.675781 17.8125 -33.75 C 18.6875 -32.820312 19.554688 -31.59375 20.421875 -30.0625 C 21.296875 -28.539062 21.867188 -26.472656 22.140625 -23.859375 C 22.410156 -21.242188 22.113281 -17.8125 21.25 -13.5625 C 20.050781 -7.894531 18.144531 -3.644531 15.53125 -0.8125 C 12.914062 2.019531 10.351562 3.4375 7.84375 3.4375 C 5.769531 3.4375 3.941406 2.375 2.359375 0.25 C 0.785156 -1.875 0 -5.0625 0 -9.3125 Z M 0 -9.3125 "/></g></g></g><g fill="#191a1b" fill-opacity="1"><g transform="translate(138.568692, 159.78448)"><g><path d="M 2.28125 -0.65625 C 1.195312 -0.65625 0.546875 -1.332031 0.328125 -2.6875 C 0.109375 -4.050781 0.0507812 -5.492188 0.15625 -7.015625 C 0.269531 -8.546875 0.328125 -9.476562 0.328125 -9.8125 C 0.210938 -11.769531 0.179688 -13.753906 0.234375 -15.765625 C 0.296875 -17.785156 0.269531 -19.832031 0.15625 -21.90625 C 0.15625 -22.664062 0.179688 -24.109375 0.234375 -26.234375 C 0.296875 -28.359375 0.460938 -30.617188 0.734375 -33.015625 C 1.003906 -35.410156 1.410156 -37.476562 1.953125 -39.21875 C 2.503906 -40.96875 3.21875 -41.84375 4.09375 -41.84375 C 6.269531 -41.84375 7.382812 -41.132812 7.4375 -39.71875 C 7.488281 -38.300781 7.40625 -36.445312 7.1875 -34.15625 C 7.082031 -33.394531 7.03125 -32.550781 7.03125 -31.625 C 7.03125 -30.695312 7.03125 -29.796875 7.03125 -28.921875 C 7.03125 -27.835938 6.972656 -27.128906 6.859375 -26.796875 C 6.753906 -26.472656 6.703125 -25.765625 6.703125 -24.671875 C 7.898438 -25.546875 8.988281 -26.554688 9.96875 -27.703125 C 10.945312 -28.847656 12.691406 -29.421875 15.203125 -29.421875 C 15.960938 -29.421875 16.96875 -29.445312 18.21875 -29.5 C 19.476562 -29.550781 20.816406 -29.578125 22.234375 -29.578125 C 24.628906 -29.578125 26.859375 -29.441406 28.921875 -29.171875 C 30.992188 -28.898438 32.03125 -28.21875 32.03125 -27.125 C 32.03125 -26.039062 31.457031 -25.332031 30.3125 -25 C 29.175781 -24.675781 27.789062 -24.515625 26.15625 -24.515625 C 25.0625 -24.515625 23.941406 -24.539062 22.796875 -24.59375 C 21.648438 -24.644531 20.644531 -24.671875 19.78125 -24.671875 C 16.726562 -24.671875 14.679688 -24.507812 13.640625 -24.1875 C 12.609375 -23.863281 11.441406 -22.613281 10.140625 -20.4375 C 9.367188 -19.019531 8.628906 -17.492188 7.921875 -15.859375 C 7.210938 -14.222656 6.695312 -12.421875 6.375 -10.453125 C 6.050781 -9.035156 5.914062 -7.566406 5.96875 -6.046875 C 6.019531 -4.523438 5.851562 -3.242188 5.46875 -2.203125 C 5.09375 -1.171875 4.03125 -0.65625 2.28125 -0.65625 Z M 2.28125 -0.65625 "/></g></g></g><g fill="#191a1b" fill-opacity="1"><g transform="translate(165.207849, 159.78448)"><g><path d="M 2.28125 -0.65625 C 1.195312 -0.65625 0.546875 -1.332031 0.328125 -2.6875 C 0.109375 -4.050781 0.0507812 -5.492188 0.15625 -7.015625 C 0.269531 -8.546875 0.328125 -9.476562 0.328125 -9.8125 C 0.210938 -11.769531 0.179688 -13.753906 0.234375 -15.765625 C 0.296875 -17.785156 0.269531 -19.832031 0.15625 -21.90625 C 0.15625 -22.664062 0.179688 -24.109375 0.234375 -26.234375 C 0.296875 -28.359375 0.460938 -30.617188 0.734375 -33.015625 C 1.003906 -35.410156 1.410156 -37.476562 1.953125 -39.21875 C 2.503906 -40.96875 3.21875 -41.84375 4.09375 -41.84375 C 6.269531 -41.84375 7.382812 -41.132812 7.4375 -39.71875 C 7.488281 -38.300781 7.40625 -36.445312 7.1875 -34.15625 C 7.082031 -33.394531 7.03125 -32.550781 7.03125 -31.625 C 7.03125 -30.695312 7.03125 -29.796875 7.03125 -28.921875 C 7.03125 -27.835938 6.972656 -27.128906 6.859375 -26.796875 C 6.753906 -26.472656 6.703125 -25.765625 6.703125 -24.671875 C 7.898438 -25.546875 8.988281 -26.554688 9.96875 -27.703125 C 10.945312 -28.847656 12.691406 -29.421875 15.203125 -29.421875 C 15.960938 -29.421875 16.96875 -29.445312 18.21875 -29.5 C 19.476562 -29.550781 20.816406 -29.578125 22.234375 -29.578125 C 24.628906 -29.578125 26.859375 -29.441406 28.921875 -29.171875 C 30.992188 -28.898438 32.03125 -28.21875 32.03125 -27.125 C 32.03125 -26.039062 31.457031 -25.332031 30.3125 -25 C 29.175781 -24.675781 27.789062 -24.515625 26.15625 -24.515625 C 25.0625 -24.515625 23.941406 -24.539062 22.796875 -24.59375 C 21.648438 -24.644531 20.644531 -24.671875 19.78125 -24.671875 C 16.726562 -24.671875 14.679688 -24.507812 13.640625 -24.1875 C 12.609375 -23.863281 11.441406 -22.613281 10.140625 -20.4375 C 9.367188 -19.019531 8.628906 -17.492188 7.921875 -15.859375 C 7.210938 -14.222656 6.695312 -12.421875 6.375 -10.453125 C 6.050781 -9.035156 5.914062 -7.566406 5.96875 -6.046875 C 6.019531 -4.523438 5.851562 -3.242188 5.46875 -2.203125 C 5.09375 -1.171875 4.03125 -0.65625 2.28125 -0.65625 Z M 2.28125 -0.65625 "/></g></g></g><g fill="#191a1b" fill-opacity="1"><g transform="translate(191.847006, 159.78448)"><g><path d="M 7.515625 -29.578125 C 9.585938 -30.671875 11.875 -32.171875 14.375 -34.078125 C 16.882812 -35.984375 18.25 -38.242188 18.46875 -40.859375 C 17.050781 -40.640625 15.550781 -39.875 13.96875 -38.5625 C 12.394531 -37.257812 11.035156 -35.789062 9.890625 -34.15625 C 8.742188 -32.519531 7.953125 -30.992188 7.515625 -29.578125 Z M 0.15625 -25.65625 C 0.15625 -28.382812 1.054688 -31.328125 2.859375 -34.484375 C 4.660156 -37.640625 6.894531 -40.332031 9.5625 -42.5625 C 12.226562 -44.800781 14.867188 -45.921875 17.484375 -45.921875 C 21.078125 -45.921875 22.957031 -44.554688 23.125 -41.828125 C 23.289062 -39.109375 22.117188 -36.171875 19.609375 -33.015625 C 18.304688 -31.597656 16.347656 -29.960938 13.734375 -28.109375 C 11.117188 -26.253906 8.554688 -25.21875 6.046875 -25 C 6.046875 -23.257812 6.097656 -21.707031 6.203125 -20.34375 C 6.316406 -18.988281 7.082031 -17.601562 8.5 -16.1875 C 9.914062 -14.769531 11.710938 -14.0625 13.890625 -14.0625 C 16.722656 -14.0625 19.664062 -14.957031 22.71875 -16.75 C 25.769531 -18.550781 28.113281 -20.050781 29.75 -21.25 C 30.394531 -21.789062 30.910156 -22.222656 31.296875 -22.546875 C 31.679688 -22.878906 32.144531 -23.265625 32.6875 -23.703125 C 34.976562 -25.441406 36.421875 -26.71875 37.015625 -27.53125 C 37.617188 -28.351562 38.132812 -28.898438 38.5625 -29.171875 C 39 -29.441406 40.035156 -29.578125 41.671875 -29.578125 C 41.890625 -28.378906 41.972656 -27.5625 41.921875 -27.125 C 41.867188 -26.695312 41.460938 -26.046875 40.703125 -25.171875 C 38.734375 -23.210938 36.25 -20.976562 33.25 -18.46875 C 30.257812 -15.957031 27.046875 -13.773438 23.609375 -11.921875 C 20.179688 -10.078125 16.78125 -9.15625 13.40625 -9.15625 C 11.65625 -9.15625 9.988281 -9.453125 8.40625 -10.046875 C 6.832031 -10.648438 5.335938 -11.660156 3.921875 -13.078125 C 1.960938 -15.035156 0.84375 -17.050781 0.5625 -19.125 C 0.289062 -21.195312 0.15625 -23.375 0.15625 -25.65625 Z M 0.15625 -25.65625 "/></g></g></g><g fill="#191a1b" fill-opacity="1"><g transform="translate(227.311407, 159.78448)"><g><path d="M 0.328125 -12.578125 C 0.328125 -18.023438 0.648438 -23.910156 1.296875 -30.234375 C 1.953125 -36.554688 2.828125 -42.820312 3.921875 -49.03125 C 5.015625 -55.238281 6.210938 -60.847656 7.515625 -65.859375 C 8.054688 -67.492188 8.597656 -69.316406 9.140625 -71.328125 C 9.691406 -73.347656 10.398438 -75.09375 11.265625 -76.5625 C 12.140625 -78.039062 13.285156 -78.78125 14.703125 -78.78125 C 16.015625 -78.78125 16.832031 -78.285156 17.15625 -77.296875 C 17.488281 -76.316406 17.515625 -75.144531 17.234375 -73.78125 C 16.960938 -72.425781 16.609375 -71.175781 16.171875 -70.03125 C 15.742188 -68.882812 15.472656 -68.09375 15.359375 -67.65625 C 14.492188 -64.394531 13.488281 -59.957031 12.34375 -54.34375 C 11.195312 -48.726562 10.101562 -42.597656 9.0625 -35.953125 C 8.03125 -29.304688 7.242188 -22.710938 6.703125 -16.171875 C 6.160156 -9.640625 6.050781 -3.734375 6.375 1.546875 C 6.695312 6.835938 7.566406 10.898438 8.984375 13.734375 C 10.835938 12.753906 12.363281 11.28125 13.5625 9.3125 C 14.757812 7.351562 15.796875 5.445312 16.671875 3.59375 C 19.179688 -1.195312 21.632812 -6.257812 24.03125 -11.59375 C 26.425781 -16.9375 28.929688 -21.953125 31.546875 -26.640625 C 32.410156 -28.378906 33.335938 -29.25 34.328125 -29.25 C 34.753906 -29.25 35.101562 -29.054688 35.375 -28.671875 C 35.65625 -28.296875 35.796875 -27.890625 35.796875 -27.453125 C 35.796875 -27.128906 35.359375 -26.09375 34.484375 -24.34375 C 33.609375 -22.601562 32.707031 -20.804688 31.78125 -18.953125 C 30.863281 -17.109375 30.238281 -15.910156 29.90625 -15.359375 C 28.820312 -13.078125 27.597656 -10.410156 26.234375 -7.359375 C 24.867188 -4.304688 23.53125 -1.3125 22.21875 1.625 C 20.914062 4.570312 19.664062 7.082031 18.46875 9.15625 C 17.925781 10.019531 17.191406 11.1875 16.265625 12.65625 C 15.335938 14.132812 14.328125 15.414062 13.234375 16.5 C 12.148438 17.59375 10.898438 18.140625 9.484375 18.140625 C 7.296875 18.140625 5.578125 17.050781 4.328125 14.875 C 3.078125 12.695312 2.175781 9.972656 1.625 6.703125 C 1.082031 3.429688 0.726562 0.0546875 0.5625 -3.421875 C 0.40625 -6.910156 0.328125 -9.960938 0.328125 -12.578125 Z M 0.328125 -12.578125 "/></g></g></g><g fill="#191a1b" fill-opacity="1"><g transform="translate(256.075171, 159.78448)"><g><path d="M 0.328125 -12.578125 C 0.328125 -18.023438 0.648438 -23.910156 1.296875 -30.234375 C 1.953125 -36.554688 2.828125 -42.820312 3.921875 -49.03125 C 5.015625 -55.238281 6.210938 -60.847656 7.515625 -65.859375 C 8.054688 -67.492188 8.597656 -69.316406 9.140625 -71.328125 C 9.691406 -73.347656 10.398438 -75.09375 11.265625 -76.5625 C 12.140625 -78.039062 13.285156 -78.78125 14.703125 -78.78125 C 16.015625 -78.78125 16.832031 -78.285156 17.15625 -77.296875 C 17.488281 -76.316406 17.515625 -75.144531 17.234375 -73.78125 C 16.960938 -72.425781 16.609375 -71.175781 16.171875 -70.03125 C 15.742188 -68.882812 15.472656 -68.09375 15.359375 -67.65625 C 14.492188 -64.394531 13.488281 -59.957031 12.34375 -54.34375 C 11.195312 -48.726562 10.101562 -42.597656 9.0625 -35.953125 C 8.03125 -29.304688 7.242188 -22.710938 6.703125 -16.171875 C 6.160156 -9.640625 6.050781 -3.734375 6.375 1.546875 C 6.695312 6.835938 7.566406 10.898438 8.984375 13.734375 C 10.835938 12.753906 12.363281 11.28125 13.5625 9.3125 C 14.757812 7.351562 15.796875 5.445312 16.671875 3.59375 C 19.179688 -1.195312 21.632812 -6.257812 24.03125 -11.59375 C 26.425781 -16.9375 28.929688 -21.953125 31.546875 -26.640625 C 32.410156 -28.378906 33.335938 -29.25 34.328125 -29.25 C 34.753906 -29.25 35.101562 -29.054688 35.375 -28.671875 C 35.65625 -28.296875 35.796875 -27.890625 35.796875 -27.453125 C 35.796875 -27.128906 35.359375 -26.09375 34.484375 -24.34375 C 33.609375 -22.601562 32.707031 -20.804688 31.78125 -18.953125 C 30.863281 -17.109375 30.238281 -15.910156 29.90625 -15.359375 C 28.820312 -13.078125 27.597656 -10.410156 26.234375 -7.359375 C 24.867188 -4.304688 23.53125 -1.3125 22.21875 1.625 C 20.914062 4.570312 19.664062 7.082031 18.46875 9.15625 C 17.925781 10.019531 17.191406 11.1875 16.265625 12.65625 C 15.335938 14.132812 14.328125 15.414062 13.234375 16.5 C 12.148438 17.59375 10.898438 18.140625 9.484375 18.140625 C 7.296875 18.140625 5.578125 17.050781 4.328125 14.875 C 3.078125 12.695312 2.175781 9.972656 1.625 6.703125 C 1.082031 3.429688 0.726562 0.0546875 0.5625 -3.421875 C 0.40625 -6.910156 0.328125 -9.960938 0.328125 -12.578125 Z M 0.328125 -12.578125 "/></g></g></g><g fill="#191a1b" fill-opacity="1"><g transform="translate(284.83895, 159.78448)"><g><path d="M 7.515625 -29.578125 C 9.585938 -30.671875 11.875 -32.171875 14.375 -34.078125 C 16.882812 -35.984375 18.25 -38.242188 18.46875 -40.859375 C 17.050781 -40.640625 15.550781 -39.875 13.96875 -38.5625 C 12.394531 -37.257812 11.035156 -35.789062 9.890625 -34.15625 C 8.742188 -32.519531 7.953125 -30.992188 7.515625 -29.578125 Z M 0.15625 -25.65625 C 0.15625 -28.382812 1.054688 -31.328125 2.859375 -34.484375 C 4.660156 -37.640625 6.894531 -40.332031 9.5625 -42.5625 C 12.226562 -44.800781 14.867188 -45.921875 17.484375 -45.921875 C 21.078125 -45.921875 22.957031 -44.554688 23.125 -41.828125 C 23.289062 -39.109375 22.117188 -36.171875 19.609375 -33.015625 C 18.304688 -31.597656 16.347656 -29.960938 13.734375 -28.109375 C 11.117188 -26.253906 8.554688 -25.21875 6.046875 -25 C 6.046875 -23.257812 6.097656 -21.707031 6.203125 -20.34375 C 6.316406 -18.988281 7.082031 -17.601562 8.5 -16.1875 C 9.914062 -14.769531 11.710938 -14.0625 13.890625 -14.0625 C 16.722656 -14.0625 19.664062 -14.957031 22.71875 -16.75 C 25.769531 -18.550781 28.113281 -20.050781 29.75 -21.25 C 30.394531 -21.789062 30.910156 -22.222656 31.296875 -22.546875 C 31.679688 -22.878906 32.144531 -23.265625 32.6875 -23.703125 C 34.976562 -25.441406 36.421875 -26.71875 37.015625 -27.53125 C 37.617188 -28.351562 38.132812 -28.898438 38.5625 -29.171875 C 39 -29.441406 40.035156 -29.578125 41.671875 -29.578125 C 41.890625 -28.378906 41.972656 -27.5625 41.921875 -27.125 C 41.867188 -26.695312 41.460938 -26.046875 40.703125 -25.171875 C 38.734375 -23.210938 36.25 -20.976562 33.25 -18.46875 C 30.257812 -15.957031 27.046875 -13.773438 23.609375 -11.921875 C 20.179688 -10.078125 16.78125 -9.15625 13.40625 -9.15625 C 11.65625 -9.15625 9.988281 -9.453125 8.40625 -10.046875 C 6.832031 -10.648438 5.335938 -11.660156 3.921875 -13.078125 C 1.960938 -15.035156 0.84375 -17.050781 0.5625 -19.125 C 0.289062 -21.195312 0.15625 -23.375 0.15625 -25.65625 Z M 0.15625 -25.65625 "/></g></g></g><g fill="#191a1b" fill-opacity="1"><g transform="translate(320.303337, 159.78448)"><g><path d="M 1.96875 26.96875 C 1.96875 29.257812 2.675781 30.40625 4.09375 30.40625 C 4.851562 30.40625 5.664062 30.128906 6.53125 29.578125 C 7.40625 29.035156 8.113281 28.546875 8.65625 28.109375 C 10.84375 26.472656 12.78125 23.992188 14.46875 20.671875 C 16.15625 17.347656 17.378906 14.328125 18.140625 11.609375 C 18.679688 9.753906 18.976562 7.875 19.03125 5.96875 C 19.09375 4.0625 19.125 1.960938 19.125 -0.328125 C 17.8125 0.429688 16.3125 1.765625 14.625 3.671875 C 12.9375 5.578125 11.601562 7.128906 10.625 8.328125 C 8.664062 10.734375 6.734375 13.625 4.828125 17 C 2.921875 20.375 1.96875 23.695312 1.96875 26.96875 Z M 0.484375 -26.484375 C 0.484375 -29.304688 1.242188 -31.832031 2.765625 -34.0625 C 4.296875 -36.300781 6.125 -38.101562 8.25 -39.46875 C 10.375 -40.832031 12.203125 -41.515625 13.734375 -41.515625 C 14.929688 -41.515625 15.828125 -41.078125 16.421875 -40.203125 C 17.023438 -39.328125 17.050781 -37.859375 16.5 -35.796875 C 15.195312 -35.460938 14.269531 -35.269531 13.71875 -35.21875 C 13.175781 -35.164062 12.742188 -35.003906 12.421875 -34.734375 C 12.097656 -34.460938 11.5 -33.832031 10.625 -32.84375 C 8.445312 -30.445312 7.4375 -28.515625 7.59375 -27.046875 C 7.757812 -25.578125 8.628906 -24.210938 10.203125 -22.953125 C 11.785156 -21.703125 13.75 -20.148438 16.09375 -18.296875 C 18.4375 -16.453125 20.644531 -13.945312 22.71875 -10.78125 C 25.113281 -12.414062 27.566406 -14.320312 30.078125 -16.5 L 45.265625 -27.125 C 46.679688 -28.113281 47.90625 -28.796875 48.9375 -29.171875 C 49.976562 -29.554688 50.878906 -29.75 51.640625 -29.75 C 52.953125 -29.75 53.5 -29.203125 53.28125 -28.109375 C 53.0625 -27.023438 52.023438 -25.9375 50.171875 -24.84375 L 39.0625 -17.15625 C 38.625 -16.9375 37.695312 -16.3125 36.28125 -15.28125 C 34.863281 -14.25 33.3125 -13.101562 31.625 -11.84375 C 29.9375 -10.59375 28.492188 -9.421875 27.296875 -8.328125 C 26.097656 -7.242188 25.441406 -6.535156 25.328125 -6.203125 C 25.222656 -5.660156 25.390625 -4.625 25.828125 -3.09375 C 26.265625 -1.570312 26.5625 0.410156 26.71875 2.859375 C 26.882812 5.304688 26.554688 8.300781 25.734375 11.84375 C 24.921875 15.382812 23.15625 19.5 20.4375 24.1875 C 18.03125 28.21875 15.410156 31.1875 12.578125 33.09375 C 9.742188 35 7.078125 35.953125 4.578125 35.953125 C 2.285156 35.953125 0.40625 35.1875 -1.0625 33.65625 C -2.53125 32.132812 -3.265625 29.90625 -3.265625 26.96875 C -3.265625 23.257812 -2.363281 19.660156 -0.5625 16.171875 C 1.226562 12.691406 3.375 9.476562 5.875 6.53125 C 8.382812 3.59375 10.703125 1.0625 12.828125 -1.0625 C 14.953125 -3.1875 16.34375 -4.738281 17 -5.71875 C 15.6875 -8.007812 14.101562 -10 12.25 -11.6875 C 10.40625 -13.375 8.582031 -14.925781 6.78125 -16.34375 C 4.988281 -17.757812 3.488281 -19.253906 2.28125 -20.828125 C 1.082031 -22.410156 0.484375 -24.296875 0.484375 -26.484375 Z M 0.484375 -26.484375 "/></g></g></g></g></g><g transform="matrix(1, 0, 0, 1, 105, 251)"><g clip-path="url(#de95ebc8ab)"><g clip-path="url(#4ea4f509d5)"><path fill="#e2f6ea" d="M 214.445312 12.566406 C 214.878906 12.898438 215.273438 13.265625 215.628906 13.671875 C 215.988281 14.078125 216.304688 14.515625 216.582031 14.984375 C 216.855469 15.453125 217.082031 15.945312 217.261719 16.457031 C 217.441406 16.96875 217.570312 17.492188 217.648438 18.027344 C 217.730469 18.566406 217.753906 19.105469 217.730469 19.648438 C 217.703125 20.1875 217.625 20.722656 217.496094 21.25 C 217.367188 21.777344 217.191406 22.289062 216.964844 22.78125 C 216.738281 23.273438 216.464844 23.738281 216.148438 24.179688 C 214.535156 26.152344 212.867188 28.074219 211.148438 29.953125 C 209.429688 31.835938 207.660156 33.664062 205.839844 35.445312 C 204.019531 37.226562 202.152344 38.957031 200.234375 40.636719 C 198.320312 42.316406 196.359375 43.9375 194.355469 45.507812 C 192.351562 47.078125 190.304688 48.59375 188.214844 50.050781 C 186.125 51.507812 184 52.90625 181.832031 54.246094 C 179.667969 55.585938 177.464844 56.867188 175.230469 58.085938 C 172.992188 59.304688 170.722656 60.460938 168.421875 61.554688 C 166.125 62.648438 163.792969 63.675781 161.4375 64.640625 C 159.082031 65.605469 156.699219 66.503906 154.292969 67.339844 C 151.886719 68.171875 149.457031 68.9375 147.007812 69.636719 C 144.558594 70.339844 142.09375 70.96875 139.609375 71.535156 C 137.125 72.097656 134.628906 72.589844 132.117188 73.015625 C 129.605469 73.441406 127.085938 73.800781 124.554688 74.085938 C 122.023438 74.371094 119.488281 74.589844 116.945312 74.734375 C 114.402344 74.882812 111.855469 74.957031 109.308594 74.964844 C 106.761719 74.972656 104.21875 74.90625 101.675781 74.773438 C 99.128906 74.640625 96.59375 74.433594 94.0625 74.160156 C 91.527344 73.886719 89.003906 73.542969 86.492188 73.128906 C 83.980469 72.714844 81.480469 72.234375 78.992188 71.683594 C 76.507812 71.128906 74.035156 70.511719 71.585938 69.824219 C 69.132812 69.136719 66.699219 68.382812 64.289062 67.558594 C 61.878906 66.738281 59.492188 65.851562 57.132812 64.898438 C 54.769531 63.945312 52.4375 62.925781 50.128906 61.84375 C 47.824219 60.761719 45.550781 59.617188 43.308594 58.410156 C 41.066406 57.203125 38.859375 55.933594 36.6875 54.605469 C 34.511719 53.273438 32.378906 51.886719 30.285156 50.4375 C 28.1875 48.992188 26.132812 47.488281 24.121094 45.925781 C 22.105469 44.367188 20.140625 42.753906 18.214844 41.082031 C 16.292969 39.414062 14.414062 37.691406 12.585938 35.921875 C 10.757812 34.148438 8.980469 32.324219 7.25 30.457031 C 5.523438 28.585938 3.847656 26.667969 2.222656 24.703125 C 1.90625 24.265625 1.628906 23.800781 1.398438 23.308594 C 1.171875 22.816406 0.988281 22.308594 0.859375 21.78125 C 0.726562 21.253906 0.648438 20.722656 0.617188 20.179688 C 0.589844 19.636719 0.613281 19.097656 0.691406 18.5625 C 0.765625 18.023438 0.894531 17.5 1.070312 16.984375 C 1.246094 16.472656 1.472656 15.980469 1.746094 15.511719 C 2.015625 15.042969 2.332031 14.605469 2.6875 14.195312 C 3.046875 13.785156 3.4375 13.414062 3.867188 13.082031 L 17.492188 3.152344 C 17.933594 2.800781 18.410156 2.496094 18.917969 2.242188 C 19.425781 1.984375 19.949219 1.78125 20.5 1.628906 C 21.046875 1.480469 21.601562 1.386719 22.167969 1.351562 C 22.734375 1.3125 23.300781 1.332031 23.863281 1.410156 C 24.425781 1.484375 24.972656 1.617188 25.507812 1.804688 C 26.046875 1.992188 26.558594 2.230469 27.042969 2.523438 C 27.53125 2.8125 27.984375 3.148438 28.40625 3.53125 C 28.824219 3.914062 29.199219 4.335938 29.535156 4.792969 C 30.765625 6.222656 32.03125 7.617188 33.332031 8.976562 C 34.636719 10.335938 35.976562 11.660156 37.351562 12.949219 C 38.726562 14.238281 40.136719 15.488281 41.578125 16.699219 C 43.019531 17.910156 44.496094 19.082031 46 20.214844 C 47.507812 21.347656 49.042969 22.4375 50.605469 23.488281 C 52.171875 24.539062 53.761719 25.542969 55.382812 26.507812 C 57 27.472656 58.644531 28.390625 60.3125 29.265625 C 61.980469 30.140625 63.671875 30.96875 65.386719 31.753906 C 67.101562 32.539062 68.832031 33.273438 70.585938 33.964844 C 72.339844 34.65625 74.109375 35.296875 75.898438 35.890625 C 77.683594 36.488281 79.488281 37.03125 81.304688 37.53125 C 83.121094 38.027344 84.949219 38.476562 86.792969 38.875 C 88.632812 39.273438 90.484375 39.621094 92.34375 39.921875 C 94.203125 40.21875 96.070312 40.46875 97.945312 40.667969 C 99.820312 40.867188 101.695312 41.011719 103.578125 41.109375 C 105.460938 41.207031 107.34375 41.253906 109.226562 41.25 C 111.109375 41.246094 112.992188 41.1875 114.875 41.082031 C 116.753906 40.976562 118.632812 40.820312 120.503906 40.613281 C 122.378906 40.40625 124.242188 40.148438 126.101562 39.839844 C 127.960938 39.53125 129.808594 39.171875 131.648438 38.765625 C 133.488281 38.355469 135.316406 37.898438 137.128906 37.394531 C 138.945312 36.886719 140.746094 36.332031 142.53125 35.730469 C 144.3125 35.125 146.082031 34.472656 147.832031 33.773438 C 149.582031 33.078125 151.308594 32.332031 153.019531 31.539062 C 154.730469 30.746094 156.414062 29.910156 158.082031 29.027344 C 159.746094 28.144531 161.382812 27.214844 162.996094 26.242188 C 164.613281 25.273438 166.199219 24.257812 167.757812 23.199219 C 169.316406 22.144531 170.847656 21.042969 172.347656 19.90625 C 173.847656 18.765625 175.316406 17.585938 176.753906 16.367188 C 178.191406 15.148438 179.59375 13.890625 180.960938 12.597656 C 182.332031 11.300781 183.664062 9.972656 184.960938 8.605469 C 186.257812 7.238281 187.515625 5.835938 188.738281 4.402344 C 189.070312 3.941406 189.445312 3.519531 189.863281 3.136719 C 190.28125 2.75 190.730469 2.414062 191.21875 2.121094 C 191.703125 1.828125 192.214844 1.585938 192.75 1.394531 C 193.285156 1.203125 193.832031 1.070312 194.394531 0.988281 C 194.957031 0.910156 195.519531 0.886719 196.085938 0.921875 C 196.652344 0.957031 197.210938 1.046875 197.757812 1.195312 C 198.308594 1.34375 198.835938 1.542969 199.34375 1.796875 C 199.851562 2.050781 200.328125 2.355469 200.773438 2.703125 Z M 214.445312 12.566406 " fill-opacity="1" fill-rule="nonzero"/></g><g fill="#191a1b" fill-opacity="1"><g transform="translate(10.012389, 19.794428)"><g><path d="M 12 -8.796875 L 16.171875 -4.4375 C 17.703125 -2.84375 18.460938 -1.046875 18.453125 0.953125 C 18.441406 2.960938 17.664062 4.703125 16.125 6.171875 C 14.582031 7.648438 12.804688 8.347656 10.796875 8.265625 C 8.785156 8.179688 7.007812 7.332031 5.46875 5.71875 L 1.34375 1.40625 Z M 12.109375 -5.46875 L 4.671875 1.640625 L 7.171875 4.265625 C 8.171875 5.316406 9.347656 5.851562 10.703125 5.875 C 12.066406 5.90625 13.285156 5.40625 14.359375 4.375 C 15.429688 3.351562 15.976562 2.144531 16 0.75 C 16.03125 -0.644531 15.539062 -1.867188 14.53125 -2.921875 Z M 12.109375 -5.46875 "/></g></g></g><g fill="#191a1b" fill-opacity="1"><g transform="translate(30.489519, 39.207837)"><g><path d="M 17.34375 -3.3125 L 10.703125 -7.859375 L 8.46875 -4.5625 L 14.421875 -0.5 L 13.15625 1.34375 L 7.203125 -2.71875 L 4.921875 0.640625 L 11.765625 5.328125 L 10.5 7.171875 L 1.59375 1.09375 L 9.90625 -11.09375 L 18.609375 -5.15625 Z M 17.34375 -3.3125 "/></g></g></g><g fill="#191a1b" fill-opacity="1"><g transform="translate(52.324037, 52.698795)"><g><path d="M 7.859375 3.296875 L 5.46875 2.296875 L 5.765625 -13.578125 L 8.21875 -12.546875 L 7.78125 0.265625 L 16.65625 -9.015625 L 19.046875 -8.015625 Z M 7.859375 3.296875 "/></g></g></g><g fill="#191a1b" fill-opacity="1"><g transform="translate(77.098852, 61.749896)"><g><path d="M 14.671875 -9.859375 L 6.78125 -11.421875 L 6 -7.515625 L 13.0625 -6.125 L 12.625 -3.921875 L 5.5625 -5.3125 L 4.78125 -1.328125 L 12.90625 0.28125 L 12.46875 2.46875 L 1.90625 0.375 L 4.765625 -14.09375 L 15.09375 -12.046875 Z M 14.671875 -9.859375 "/></g></g></g><g fill="#191a1b" fill-opacity="1"><g transform="translate(102.373976, 65.504794)"><g><path d="M 4.4375 -2.21875 L 10.828125 -2.171875 L 10.8125 0.078125 L 1.9375 0.015625 L 2.046875 -14.734375 L 4.53125 -14.71875 Z M 4.4375 -2.21875 "/></g></g></g><g fill="#191a1b" fill-opacity="1"><g transform="translate(125.47405, 64.772435)"><g><path d="M 0.46875 -13 C 1.664062 -14.6875 3.347656 -15.742188 5.515625 -16.171875 C 7.679688 -16.597656 9.632812 -16.253906 11.375 -15.140625 C 13.125 -14.035156 14.203125 -12.453125 14.609375 -10.390625 C 15.015625 -8.328125 14.617188 -6.441406 13.421875 -4.734375 C 12.234375 -3.023438 10.554688 -1.957031 8.390625 -1.53125 C 6.222656 -1.101562 4.265625 -1.453125 2.515625 -2.578125 C 0.765625 -3.710938 -0.3125 -5.3125 -0.71875 -7.375 C -1.125 -9.4375 -0.726562 -11.3125 0.46875 -13 Z M 5.96875 -13.984375 C 4.53125 -13.703125 3.398438 -12.96875 2.578125 -11.78125 C 1.753906 -10.601562 1.484375 -9.296875 1.765625 -7.859375 C 2.046875 -6.429688 2.796875 -5.316406 4.015625 -4.515625 C 5.234375 -3.710938 6.550781 -3.445312 7.96875 -3.71875 C 9.394531 -4 10.507812 -4.738281 11.3125 -5.9375 C 12.125 -7.144531 12.390625 -8.460938 12.109375 -9.890625 C 11.828125 -11.328125 11.085938 -12.4375 9.890625 -13.21875 C 8.691406 -14.007812 7.382812 -14.265625 5.96875 -13.984375 Z M 5.96875 -13.984375 "/></g></g></g><g fill="#191a1b" fill-opacity="1"><g transform="translate(153.60797, 57.789073)"><g><path d="M -4.0625 -14.3125 L 1.328125 -16.640625 C 3.023438 -17.378906 4.515625 -17.546875 5.796875 -17.140625 C 7.085938 -16.734375 8.050781 -15.789062 8.6875 -14.3125 C 9.34375 -12.78125 9.382812 -11.390625 8.8125 -10.140625 C 8.238281 -8.898438 7.101562 -7.910156 5.40625 -7.171875 L 2.296875 -5.828125 L 4.0625 -1.75 L 1.78125 -0.765625 Z M -0.890625 -13.234375 L 1.421875 -7.875 L 4.4375 -9.171875 C 6.613281 -10.117188 7.304688 -11.5 6.515625 -13.3125 C 5.765625 -15.070312 4.300781 -15.476562 2.125 -14.53125 Z M -0.890625 -13.234375 "/></g></g></g><g fill="#191a1b" fill-opacity="1"><g transform="translate(176.984453, 46.38804)"><g><path d="M 3.09375 -17.40625 L -3.515625 -12.8125 L -1.25 -9.53125 L 4.671875 -13.640625 L 5.953125 -11.8125 L 0.03125 -7.703125 L 2.34375 -4.359375 L 9.15625 -9.09375 L 10.4375 -7.265625 L 1.59375 -1.109375 L -6.828125 -13.21875 L 1.8125 -19.234375 Z M 3.09375 -17.40625 "/></g></g></g><g fill="#191a1b" fill-opacity="1"><g transform="translate(197.405198, 30.800429)"><g><path d="M 7.765625 -8.203125 L 2.65625 -9.3125 C 2.582031 -9.195312 2.441406 -9.023438 2.234375 -8.796875 L -0.171875 -6.25 L 3.046875 -3.203125 L 1.328125 -1.40625 L -9.375 -11.5625 L -5.25 -15.90625 C -3.957031 -17.269531 -2.632812 -18.023438 -1.28125 -18.171875 C 0.0703125 -18.316406 1.328125 -17.835938 2.484375 -16.734375 C 3.335938 -15.929688 3.878906 -15.054688 4.109375 -14.109375 C 4.347656 -13.160156 4.265625 -12.203125 3.859375 -11.234375 L 9.703125 -10.234375 Z M -1.796875 -7.796875 L 0.609375 -10.34375 C 2.242188 -12.070312 2.34375 -13.617188 0.90625 -14.984375 C -0.476562 -16.296875 -1.988281 -16.085938 -3.625 -14.359375 L -6.03125 -11.8125 Z M -1.796875 -7.796875 "/></g></g></g></g></g></svg>